LibreFranklin-SemiBold.ufo
<glyph name="exclam" format="2">
  <advance width="257.3125"/>
  <unicode hex="0021"/>
  <outline>
    <contour>
      <point x="199.875" y="21.125" type="curve"/>
      <point x="199.875" y="130.625" type="line"/>
      <point x="199.875" y="140.5625"/>
      <point x="195.625" y="145.375"/>
      <point x="186.6875" y="145.375" type="curve"/>
      <point x="68.375" y="145.375" type="line" smooth="yes"/>
      <point x="60.4375" y="145.375"/>
      <point x="54.625" y="140.5625"/>
      <point x="54.625" y="129.0625" type="curve"/>
      <point x="54.625" y="18.4375" type="line" smooth="yes"/>
      <point x="54.625" y="5.8125"/>
      <point x="59.4375" y="0.0"/>
      <point x="74.1875" y="0.0" type="curve"/>
      <point x="175.625" y="0.0" type="line" smooth="yes"/>
      <point x="193.5" y="0.0"/>
      <point x="199.875" y="5.8125"/>
    </contour>
    <contour>
      <point x="171.375" y="233.625" type="curve"/>
      <point x="203.1875" y="727.5625" type="line"/>
      <point x="203.75" y="736.1875"/>
      <point x="198.375" y="742.0"/>
      <point x="190.4375" y="742.0" type="curve"/>
      <point x="65.75" y="742.0" type="line" smooth="yes"/>
      <point x="57.6875" y="742.0"/>
      <point x="51.75" y="736.625"/>
      <point x="52.875" y="726.0" type="curve"/>
      <point x="85.375" y="231.5" type="line" smooth="yes"/>
      <point x="86.5" y="219.75"/>
      <point x="89.625" y="214.375"/>
      <point x="103.5" y="214.375" type="curve"/>
      <point x="148.4375" y="214.375" type="line" smooth="yes"/>
      <point x="164.4375" y="214.375"/>
      <point x="170.25" y="219.75"/>
    </contour>
  </outline>
</glyph>
<glyph name="numbersign" format="2">
  <advance width="603.0"/>
  <unicode hex="0023"/>
  <outline>
    <contour>
      <point x="180.8125" y="20.5" type="curve"/>
      <point x="285.5" y="720.8125" type="line"/>
      <point x="287.0625" y="731.1875"/>
      <point x="281.6875" y="735.875"/>
      <point x="272.875" y="736.875" type="curve"/>
      <point x="228.0625" y="742.0" type="line" smooth="yes"/>
      <point x="220.5625" y="743.0"/>
      <point x="216.4375" y="736.0625"/>
      <point x="214.3125" y="725.875" type="curve"/>
      <point x="108.5" y="20.6875" type="line" smooth="yes"/>
      <point x="107.375" y="8.6875"/>
      <point x="114.0" y="6.6875"/>
      <point x="127.4375" y="4.5625" type="curve"/>
      <point x="159.3125" y="0.0" type="line" smooth="yes"/>
      <point x="175.125" y="-2.125"/>
      <point x="178.6875" y="4.375"/>
    </contour>
    <contour>
      <point x="395.625" y="20.5" type="curve"/>
      <point x="500.3125" y="720.8125" type="line"/>
      <point x="501.875" y="731.1875"/>
      <point x="496.5" y="735.875"/>
      <point x="487.6875" y="736.875" type="curve"/>
      <point x="442.875" y="742.0" type="line" smooth="yes"/>
      <point x="435.375" y="743.0"/>
      <point x="431.25" y="736.0625"/>
      <point x="429.125" y="725.875" type="curve"/>
      <point x="323.3125" y="20.6875" type="line" smooth="yes"/>
      <point x="322.1875" y="8.6875"/>
      <point x="328.8125" y="6.6875"/>
      <point x="342.25" y="4.5625" type="curve"/>
      <point x="374.125" y="0.0" type="line" smooth="yes"/>
      <point x="389.9375" y="-2.125"/>
      <point x="393.5" y="4.375"/>
    </contour>
    <contour>
      <point x="547.5" y="253.5" type="curve"/>
      <point x="547.5" y="291.0" type="line"/>
      <point x="547.5" y="299.5"/>
      <point x="542.25" y="304.875"/>
      <point x="534.3125" y="304.875" type="curve"/>
      <point x="35.375" y="304.875" type="line" smooth="yes"/>
      <point x="27.3125" y="304.875"/>
      <point x="22.5" y="299.5"/>
      <point x="22.5" y="288.875" type="curve"/>
      <point x="22.5" y="251.375" type="line" smooth="yes"/>
      <point x="22.5" y="239.625"/>
      <point x="26.75" y="234.25"/>
      <point x="40.625" y="234.25" type="curve"/>
      <point x="524.5625" y="234.25" type="line" smooth="yes"/>
      <point x="540.5625" y="234.25"/>
      <point x="547.5" y="239.625"/>
    </contour>
    <contour>
      <point x="580.5" y="463.5" type="curve"/>
      <point x="580.5" y="501.0" type="line"/>
      <point x="580.5" y="509.5"/>
      <point x="575.25" y="514.875"/>
      <point x="567.3125" y="514.875" type="curve"/>
      <point x="68.375" y="514.875" type="line" smooth="yes"/>
      <point x="60.3125" y="514.875"/>
      <point x="55.5" y="509.5"/>
      <point x="55.5" y="498.875" type="curve"/>
      <point x="55.5" y="461.375" type="line" smooth="yes"/>
      <point x="55.5" y="449.625"/>
      <point x="59.75" y="444.25"/>
      <point x="73.625" y="444.25" type="curve"/>
      <point x="557.5625" y="444.25" type="line" smooth="yes"/>
      <point x="573.5625" y="444.25"/>
      <point x="580.5" y="449.625"/>
    </contour>
  </outline>
</glyph>
<glyph name="dollar" format="2">
  <advance width="637.5625"/>
  <unicode hex="0024"/>
  <outline>
    <contour>
      <point x="602.0625" y="203.8125" type="curve"/>
      <point x="602.0625" y="203.8125" type="line"/>
      <point x="602.0625" y="303.3125"/>
      <point x="534.1875" y="376.0"/>
      <point x="428.625" y="410.5" type="curve"/>
      <point x="379.125" y="424.75" type="line" smooth="yes"/>
      <point x="369.5625" y="427.625"/>
      <point x="367.0" y="430.1875"/>
      <point x="367.0" y="438.0625" type="curve"/>
      <point x="367.0" y="634.875" type="line" smooth="yes"/>
      <point x="367.0" y="640.875"/>
      <point x="370.6875" y="645.0"/>
      <point x="378.8125" y="642.875" type="curve"/>
      <point x="423.6875" y="633.1875"/>
      <point x="463.25" y="610.9375"/>
      <point x="486.8125" y="585.0" type="curve"/>
      <point x="498.4375" y="573.625"/>
      <point x="504.375" y="575.4375"/>
      <point x="511.625" y="583.375" type="curve"/>
      <point x="558.8125" y="640.3125" type="line"/>
      <point x="566.5" y="649.25"/>
      <point x="563.9375" y="657.625"/>
      <point x="556.0" y="662.75" type="curve"/>
      <point x="508.375" y="702.125"/>
      <point x="452.625" y="728.8125"/>
      <point x="379.625" y="742.0" type="curve"/>
      <point x="371.25" y="743.6875"/>
      <point x="367.5625" y="746.125"/>
      <point x="367.5625" y="751.25" type="curve"/>
      <point x="367.5625" y="794.0" type="line" smooth="yes"/>
      <point x="367.5625" y="806.625"/>
      <point x="362.1875" y="810.75"/>
      <point x="351.6875" y="810.75" type="curve"/>
      <point x="293.375" y="810.75" type="line" smooth="yes"/>
      <point x="287.6875" y="810.75"/>
      <point x="282.3125" y="806.625"/>
      <point x="282.3125" y="798.6875" type="curve"/>
      <point x="282.3125" y="756.75" type="line" smooth="yes"/>
      <point x="282.3125" y="748.25"/>
      <point x="272.5625" y="743.0"/>
      <point x="265.75" y="741.875" type="curve"/>
      <point x="130.8125" y="720.5"/>
      <point x="50.6875" y="640.4375"/>
      <point x="50.6875" y="534.25" type="curve"/>
      <point x="50.6875" y="433.625"/>
      <point x="105.1875" y="362.125"/>
      <point x="265.9375" y="319.1875" type="curve"/>
      <point x="278.25" y="314.4375"/>
      <point x="282.75" y="309.25"/>
      <point x="282.75" y="297.8125" type="curve"/>
      <point x="282.1875" y="101.3125" type="line" smooth="yes"/>
      <point x="282.1875" y="92.9375"/>
      <point x="278.5" y="90.9375"/>
      <point x="269.0" y="92.0625" type="curve"/>
      <point x="198.5625" y="98.8125"/>
      <point x="151.1875" y="129.1875"/>
      <point x="110.3125" y="176.375" type="curve"/>
      <point x="102.25" y="184.3125"/>
      <point x="93.125" y="184.875"/>
      <point x="83.625" y="175.125" type="curve"/>
      <point x="33.3125" y="121.8125" type="line" smooth="yes"/>
      <point x="24.9375" y="113.75"/>
      <point x="27.3125" y="104.25"/>
      <point x="40.3125" y="93.3125" type="curve"/>
      <point x="98.625" y="32.5625"/>
      <point x="165.5" y="-1.0"/>
      <point x="268.75" y="-4.9375" type="curve"/>
      <point x="278.375" y="-4.9375"/>
      <point x="281.0625" y="-7.625"/>
      <point x="281.0625" y="-18.25" type="curve"/>
      <point x="281.0625" y="-64.9375" type="line" smooth="yes"/>
      <point x="281.0625" y="-75.8125"/>
      <point x="285.875" y="-81.75"/>
      <point x="299.3125" y="-81.75" type="curve"/>
      <point x="347.5" y="-81.75" type="line" smooth="yes"/>
      <point x="362.0625" y="-81.75"/>
      <point x="368.0" y="-75.8125"/>
      <point x="368.0" y="-61.9375" type="curve"/>
      <point x="368.0" y="-19.375" type="line" smooth="yes"/>
      <point x="368.0" y="-8.625"/>
      <point x="370.0" y="-6.0625"/>
      <point x="383.3125" y="-4.9375" type="curve"/>
      <point x="515.6875" y="5.1875"/>
      <point x="602.0625" y="89.75"/>
    </contour>
    <contour>
      <point x="282.3125" y="636.3125" type="curve"/>
      <point x="282.3125" y="464.0" type="line"/>
      <point x="282.3125" y="448.75"/>
      <point x="275.0" y="444.0625"/>
      <point x="262.3125" y="447.375" type="curve"/>
      <point x="189.5" y="473.5"/>
      <point x="163.25" y="503.25"/>
      <point x="163.25" y="547.3125" type="curve"/>
      <point x="163.25" y="597.25"/>
      <point x="201.9375" y="637.0"/>
      <point x="270.0625" y="647.25" type="curve"/>
      <point x="278.3125" y="648.8125"/>
      <point x="282.3125" y="644.6875"/>
    </contour>
    <contour>
      <point x="367.4375" y="98.0625" type="curve"/>
      <point x="367.4375" y="98.0625" type="line"/>
      <point x="367.4375" y="284.6875" type="line" smooth="yes"/>
      <point x="367.4375" y="295.6875"/>
      <point x="372.1875" y="296.6875"/>
      <point x="381.0625" y="294.375" type="curve"/>
      <point x="457.625" y="270.625"/>
      <point x="488.375" y="237.0625"/>
      <point x="488.375" y="186.4375" type="curve"/>
      <point x="488.375" y="136.0"/>
      <point x="447.0625" y="97.125"/>
      <point x="378.9375" y="91.5" type="curve"/>
      <point x="371.6875" y="90.375"/>
      <point x="367.4375" y="92.375"/>
    </contour>
  </outline>
</glyph>
<glyph name="ampersand" format="2">
  <advance width="817.625"/>
  <unicode hex="0026"/>
  <outline>
    <contour>
      <point x="362.375" y="753.0" type="curve"/>
      <point x="362.375" y="753.0" type="line"/>
      <point x="234.0625" y="753.0"/>
      <point x="139.375" y="674.6875"/>
      <point x="139.375" y="569.125" type="curve"/>
      <point x="139.375" y="519.625"/>
      <point x="161.9375" y="469.6875"/>
      <point x="203.4375" y="425.0625" type="curve"/>
      <point x="215.875" y="411.0625"/>
      <point x="214.875" y="407.5"/>
      <point x="201.875" y="400.0625" type="curve"/>
      <point x="86.3125" y="333.9375"/>
      <point x="39.4375" y="270.5"/>
      <point x="39.4375" y="191.5" type="curve"/>
      <point x="39.4375" y="69.1875"/>
      <point x="127.1875" y="-5.0"/>
      <point x="276.125" y="-5.0" type="curve"/>
      <point x="367.8125" y="-5.0"/>
      <point x="441.8125" y="21.25"/>
      <point x="507.1875" y="73.625" type="curve"/>
      <point x="516.6875" y="80.875"/>
      <point x="521.25" y="80.875"/>
      <point x="530.75" y="74.625" type="curve"/>
      <point x="589.75" y="30.9375"/>
      <point x="678.1875" y="0.0"/>
      <point x="766.4375" y="0.0" type="curve"/>
      <point x="780.5625" y="0.0"/>
      <point x="786.9375" y="7.5"/>
      <point x="786.9375" y="22.4375" type="curve"/>
      <point x="786.9375" y="94.8125" type="line" smooth="yes"/>
      <point x="786.9375" y="106.3125"/>
      <point x="781.6875" y="111.0"/>
      <point x="768.75" y="111.5625" type="curve"/>
      <point x="716.375" y="113.25"/>
      <point x="660.75" y="133.0625"/>
      <point x="628.625" y="159.5625" type="curve"/>
      <point x="619.25" y="166.125"/>
      <point x="618.8125" y="169.0"/>
      <point x="626.625" y="178.5" type="curve"/>
      <point x="682.6875" y="243.5625"/>
      <point x="728.0625" y="309.25"/>
      <point x="748.75" y="362.6875" type="curve"/>
      <point x="752.0" y="371.75"/>
      <point x="746.1875" y="382.5"/>
      <point x="736.5625" y="385.625" type="curve"/>
      <point x="672.3125" y="406.6875" type="line" smooth="yes"/>
      <point x="662.8125" y="409.8125"/>
      <point x="655.125" y="407.6875"/>
      <point x="650.875" y="398.3125" type="curve"/>
      <point x="635.5625" y="356.75"/>
      <point x="591.6875" y="291.1875"/>
      <point x="554.375" y="252.125" type="curve"/>
      <point x="545.375" y="241.875"/>
      <point x="542.0" y="241.875"/>
      <point x="534.3125" y="250.0" type="curve"/>
      <point x="411.0" y="389.0625" type="line" smooth="yes"/>
      <point x="403.4375" y="397.5"/>
      <point x="404.0" y="401.0625"/>
      <point x="414.0" y="405.625" type="curve"/>
      <point x="518.4375" y="453.6875"/>
      <point x="574.5" y="529.75"/>
      <point x="574.5" y="597.3125" type="curve"/>
      <point x="574.5" y="692.125"/>
      <point x="484.75" y="753.0"/>
    </contour>
    <contour>
      <point x="368.0" y="671.25" type="curve"/>
      <point x="368.0" y="671.25" type="line"/>
      <point x="418.9375" y="671.25"/>
      <point x="458.1875" y="643.3125"/>
      <point x="458.1875" y="592.0" type="curve"/>
      <point x="458.1875" y="544.25"/>
      <point x="425.5" y="505.875"/>
      <point x="352.4375" y="470.3125" type="curve"/>
      <point x="346.0" y="467.3125"/>
      <point x="337.875" y="466.625"/>
      <point x="333.1875" y="471.75" type="curve"/>
      <point x="302.3125" y="508.0" type="line" smooth="yes"/>
      <point x="280.9375" y="531.6875"/>
      <point x="270.1875" y="555.6875"/>
      <point x="270.1875" y="579.375" type="curve"/>
      <point x="270.1875" y="627.0"/>
      <point x="306.1875" y="671.25"/>
    </contour>
    <contour>
      <point x="293.9375" y="324.4375" type="curve"/>
      <point x="293.9375" y="324.4375" type="line"/>
      <point x="433.375" y="165.75" type="line" smooth="yes"/>
      <point x="441.625" y="155.5"/>
      <point x="438.8125" y="149.0625"/>
      <point x="430.375" y="141.625" type="curve"/>
      <point x="398.125" y="113.375"/>
      <point x="347.5625" y="93.1875"/>
      <point x="303.1875" y="93.1875" type="curve"/>
      <point x="233.625" y="93.1875"/>
      <point x="180.0625" y="141.9375"/>
      <point x="180.0625" y="204.375" type="curve"/>
      <point x="180.0625" y="253.9375"/>
      <point x="213.1875" y="300.5625"/>
      <point x="266.5" y="328.875" type="curve"/>
      <point x="277.25" y="334.875"/>
      <point x="284.25" y="335.5625"/>
    </contour>
  </outline>
</glyph>
<glyph name="quotesingle" format="2">
  <advance width="245.125"/>
  <unicode hex="0027"/>
  <outline>
    <contour>
      <point x="160.875" y="492.0625" type="curve"/>
      <point x="192.125" y="728.125" type="line"/>
      <point x="193.25" y="737.1875"/>
      <point x="187.875" y="742.0"/>
      <point x="179.375" y="742.0" type="curve"/>
      <point x="70.25" y="742.0" type="line" smooth="yes"/>
      <point x="62.75" y="742.0"/>
      <point x="55.8125" y="737.1875"/>
      <point x="56.9375" y="727.0" type="curve"/>
      <point x="87.75" y="488.9375" type="line" smooth="yes"/>
      <point x="89.3125" y="477.1875"/>
      <point x="92.5625" y="471.8125"/>
      <point x="106.4375" y="471.8125" type="curve"/>
      <point x="137.9375" y="471.8125" type="line" smooth="yes"/>
      <point x="154.5" y="471.8125"/>
      <point x="158.75" y="477.625"/>
    </contour>
  </outline>
</glyph>
<glyph name="parenleft" format="2">
  <advance width="304.0"/>
  <unicode hex="0028"/>
  <outline>
    <contour>
      <point x="277.4375" y="742.0" type="curve"/>
      <point x="277.4375" y="742.0" type="line"/>
      <point x="215.3125" y="742.0" type="line" smooth="yes"/>
      <point x="205.375" y="742.0"/>
      <point x="199.5625" y="738.3125"/>
      <point x="194.3125" y="731.5" type="curve"/>
      <point x="111.3125" y="606.5"/>
      <point x="54.6875" y="451.0"/>
      <point x="54.6875" y="285.0" type="curve"/>
      <point x="54.6875" y="114.0"/>
      <point x="108.625" y="-14.5"/>
      <point x="190.625" y="-155.5" type="curve"/>
      <point x="195.3125" y="-162.3125"/>
      <point x="199.0" y="-165.0"/>
      <point x="206.375" y="-165.0" type="curve"/>
      <point x="272.0625" y="-165.0" type="line" smooth="yes"/>
      <point x="281.4375" y="-165.0"/>
      <point x="283.5625" y="-158.1875"/>
      <point x="280.4375" y="-152.375" type="curve"/>
      <point x="210.4375" y="-2.375"/>
      <point x="172.875" y="133.0"/>
      <point x="172.875" y="284.0" type="curve"/>
      <point x="172.875" y="443.0"/>
      <point x="219.25" y="599.5"/>
      <point x="285.25" y="730.5" type="curve"/>
      <point x="288.375" y="735.75"/>
      <point x="286.8125" y="742.0"/>
    </contour>
  </outline>
</glyph>
<glyph name="asterisk" format="2">
  <advance width="436.125"/>
  <unicode hex="002A"/>
  <outline>
    <contour>
      <point x="225.0" y="487.0625" type="curve"/>
      <point x="297.125" y="368.3125" type="line"/>
      <point x="300.375" y="362.9375"/>
      <point x="309.4375" y="360.8125"/>
      <point x="319.0625" y="367.75" type="curve"/>
      <point x="361.4375" y="397.375" type="line" smooth="yes"/>
      <point x="371.625" y="404.3125"/>
      <point x="372.625" y="412.375"/>
      <point x="367.375" y="418.625" type="curve"/>
      <point x="282.625" y="521.0" type="line" smooth="yes"/>
      <point x="278.9375" y="525.125"/>
      <point x="279.375" y="529.9375"/>
      <point x="284.625" y="531.5" type="curve"/>
      <point x="405.0" y="567.8125" type="line" smooth="yes"/>
      <point x="413.0625" y="569.9375"/>
      <point x="415.875" y="575.875"/>
      <point x="413.1875" y="584.8125" type="curve"/>
      <point x="397.1875" y="635.0625" type="line" smooth="yes"/>
      <point x="394.5" y="644.25"/>
      <point x="389.0" y="646.9375"/>
      <point x="380.5" y="643.25" type="curve"/>
      <point x="261.125" y="590.9375" type="line" smooth="yes"/>
      <point x="255.75" y="588.8125"/>
      <point x="253.1875" y="590.9375"/>
      <point x="253.75" y="597.1875" type="curve"/>
      <point x="263.8125" y="730.8125" type="line" smooth="yes"/>
      <point x="264.375" y="736.0625"/>
      <point x="261.125" y="742.0"/>
      <point x="253.1875" y="742.0" type="curve"/>
      <point x="189.4375" y="742.0" type="line" smooth="yes"/>
      <point x="181.0625" y="742.0"/>
      <point x="177.375" y="735.625"/>
      <point x="177.9375" y="730.8125" type="curve"/>
      <point x="187.75" y="597.75" type="line" smooth="yes"/>
      <point x="188.3125" y="591.5"/>
      <point x="184.0625" y="589.375"/>
      <point x="178.25" y="592.0625" type="curve"/>
      <point x="61.875" y="641.3125" type="line" smooth="yes"/>
      <point x="53.9375" y="645.0"/>
      <point x="49.6875" y="641.75"/>
      <point x="47.0" y="634.8125" type="curve"/>
      <point x="28.3125" y="583.5625" type="line" smooth="yes"/>
      <point x="25.0625" y="574.5"/>
      <point x="27.3125" y="568.0"/>
      <point x="34.25" y="565.875" type="curve"/>
      <point x="156.75" y="531.625" type="line" smooth="yes"/>
      <point x="163.5625" y="530.0625"/>
      <point x="164.125" y="525.25"/>
      <point x="161.4375" y="521.5625" type="curve"/>
      <point x="73.125" y="413.875" type="line" smooth="yes"/>
      <point x="67.3125" y="406.5"/>
      <point x="67.875" y="402.25"/>
      <point x="75.375" y="396.875" type="curve"/>
      <point x="123.25" y="363.3125" type="line" smooth="yes"/>
      <point x="130.75" y="357.9375"/>
      <point x="139.25" y="359.0625"/>
      <point x="142.5" y="364.4375" type="curve"/>
      <point x="216.9375" y="487.0625" type="line" smooth="yes"/>
      <point x="219.0625" y="490.3125"/>
      <point x="222.875" y="490.3125"/>
    </contour>
  </outline>
</glyph>
<glyph name="plus" format="2">
  <advance width="574.1875"/>
  <unicode hex="002B"/>
  <outline>
    <contour>
      <point x="522.1875" y="344.5625" type="curve"/>
      <point x="522.1875" y="407.375" type="line"/>
      <point x="522.1875" y="415.875"/>
      <point x="516.9375" y="421.25"/>
      <point x="509.0" y="421.25" type="curve"/>
      <point x="66.0" y="420.8125" type="line" smooth="yes"/>
      <point x="57.9375" y="420.8125"/>
      <point x="53.125" y="415.4375"/>
      <point x="53.125" y="404.8125" type="curve"/>
      <point x="53.125" y="342.0" type="line" smooth="yes"/>
      <point x="53.125" y="330.25"/>
      <point x="57.375" y="324.875"/>
      <point x="71.25" y="324.875" type="curve"/>
      <point x="499.25" y="325.3125" type="line" smooth="yes"/>
      <point x="515.25" y="325.3125"/>
      <point x="522.1875" y="330.6875"/>
    </contour>
    <contour>
      <point x="259.4375" y="138.8125" type="curve"/>
      <point x="322.25" y="138.8125" type="line"/>
      <point x="330.75" y="138.8125"/>
      <point x="336.125" y="144.0625"/>
      <point x="336.125" y="152.0" type="curve"/>
      <point x="335.6875" y="595.0" type="line" smooth="yes"/>
      <point x="335.6875" y="603.0625"/>
      <point x="330.3125" y="607.875"/>
      <point x="319.6875" y="607.875" type="curve"/>
      <point x="256.875" y="607.875" type="line" smooth="yes"/>
      <point x="245.125" y="607.875"/>
      <point x="239.75" y="603.625"/>
      <point x="239.75" y="589.75" type="curve"/>
      <point x="240.1875" y="161.75" type="line" smooth="yes"/>
      <point x="240.1875" y="145.75"/>
      <point x="245.5625" y="138.8125"/>
    </contour>
  </outline>
</glyph>
<glyph name="comma" format="2">
  <advance width="238.75"/>
  <unicode hex="002C"/>
  <outline>
    <contour>
      <point x="53.375" y="-151.4375" type="curve"/>
      <point x="53.375" y="-151.4375" type="line"/>
      <point x="68.8125" y="-151.4375" type="line" smooth="yes"/>
      <point x="79.875" y="-151.4375"/>
      <point x="92.4375" y="-146.0625"/>
      <point x="99.5" y="-135.875" type="curve"/>
      <point x="188.5625" y="11.3125" type="line" smooth="yes"/>
      <point x="190.6875" y="15.4375"/>
      <point x="191.6875" y="18.875"/>
      <point x="191.6875" y="25.0" type="curve"/>
      <point x="191.6875" y="132.0625" type="line" smooth="yes"/>
      <point x="191.6875" y="141.125"/>
      <point x="187.4375" y="145.9375"/>
      <point x="178.9375" y="145.9375" type="curve"/>
      <point x="59.75" y="145.9375" type="line" smooth="yes"/>
      <point x="51.8125" y="145.9375"/>
      <point x="46.4375" y="141.125"/>
      <point x="46.4375" y="130.9375" type="curve"/>
      <point x="46.4375" y="17.125" type="line" smooth="yes"/>
      <point x="46.4375" y="5.8125"/>
      <point x="51.25" y="0.0"/>
      <point x="65.125" y="0.0" type="curve"/>
      <point x="81.4375" y="0.0" type="line" smooth="yes"/>
      <point x="94.375" y="0.0"/>
      <point x="96.375" y="-8.0625"/>
      <point x="90.0" y="-22.375" type="curve"/>
      <point x="43.0625" y="-133.0" type="line" smooth="yes"/>
      <point x="38.9375" y="-142.8125"/>
      <point x="44.3125" y="-151.4375"/>
    </contour>
  </outline>
</glyph>
<glyph name="hyphen" format="2">
  <advance width="380.4375"/>
  <unicode hex="002D"/>
  <outline>
    <contour>
      <point x="326.75" y="235.4375" type="curve"/>
      <point x="326.75" y="298.5625" type="line"/>
      <point x="326.75" y="307.0625"/>
      <point x="321.5" y="312.4375"/>
      <point x="313.5625" y="312.4375" type="curve"/>
      <point x="66.5625" y="312.0" type="line" smooth="yes"/>
      <point x="58.5" y="312.0"/>
      <point x="53.6875" y="306.625"/>
      <point x="53.6875" y="296.0" type="curve"/>
      <point x="53.6875" y="232.875" type="line" smooth="yes"/>
      <point x="53.6875" y="221.125"/>
      <point x="57.9375" y="215.75"/>
      <point x="71.8125" y="215.75" type="curve"/>
      <point x="303.8125" y="216.1875" type="line" smooth="yes"/>
      <point x="319.8125" y="216.1875"/>
      <point x="326.75" y="221.5625"/>
    </contour>
  </outline>
</glyph>
<glyph name="period" format="2">
  <advance width="236.5625"/>
  <unicode hex="002E"/>
  <outline>
    <contour>
      <point x="189.5" y="21.125" type="curve"/>
      <point x="189.5" y="132.875" type="line"/>
      <point x="189.5" y="142.8125"/>
      <point x="185.25" y="147.625"/>
      <point x="176.3125" y="147.625" type="curve"/>
      <point x="58.0" y="147.625" type="line" smooth="yes"/>
      <point x="50.0625" y="147.625"/>
      <point x="44.25" y="142.8125"/>
      <point x="44.25" y="131.3125" type="curve"/>
      <point x="44.25" y="18.4375" type="line" smooth="yes"/>
      <point x="44.25" y="5.8125"/>
      <point x="49.0625" y="0.0"/>
      <point x="63.8125" y="0.0" type="curve"/>
      <point x="165.25" y="0.0" type="line" smooth="yes"/>
      <point x="183.125" y="0.0"/>
      <point x="189.5" y="5.8125"/>
    </contour>
  </outline>
</glyph>
<glyph name="slash" format="2">
  <advance width="357.25"/>
  <unicode hex="002F"/>
  <outline>
    <contour>
      <point x="19.1875" y="-26.25" type="curve"/>
      <point x="19.1875" y="-26.25" type="line"/>
      <point x="78.5625" y="-26.25" type="line" smooth="yes"/>
      <point x="90.3125" y="-26.25"/>
      <point x="98.25" y="-22.0"/>
      <point x="103.0625" y="-8.125" type="curve"/>
      <point x="347.125" y="719.0625" type="line" smooth="yes"/>
      <point x="352.5" y="735.0625"/>
      <point x="349.25" y="742.0"/>
      <point x="335.375" y="742.0" type="curve"/>
      <point x="276.0" y="742.0" type="line" smooth="yes"/>
      <point x="267.5" y="742.0"/>
      <point x="260.5625" y="737.1875"/>
      <point x="257.875" y="729.25" type="curve"/>
      <point x="8.0" y="-13.375" type="line" smooth="yes"/>
      <point x="5.3125" y="-21.4375"/>
      <point x="8.5625" y="-26.25"/>
    </contour>
  </outline>
</glyph>
<glyph name="zero" format="2">
  <advance width="701.4375"/>
  <unicode hex="0030"/>
  <outline>
    <contour>
      <point x="351.5" y="752.5625" type="curve"/>
      <point x="351.5" y="752.5625" type="line"/>
      <point x="180.0625" y="752.5625"/>
      <point x="52.0" y="606.1875"/>
      <point x="52.0" y="368.125" type="curve"/>
      <point x="52.0" y="132.375"/>
      <point x="177.5" y="-8.875"/>
      <point x="351.0625" y="-8.875" type="curve"/>
      <point x="524.0625" y="-8.875"/>
      <point x="649.4375" y="132.8125"/>
      <point x="649.4375" y="369.0" type="curve"/>
      <point x="649.4375" y="606.625"/>
      <point x="522.375" y="752.5625"/>
    </contour>
    <contour>
      <point x="351.375" y="97.25" type="curve"/>
      <point x="351.375" y="97.25" type="line"/>
      <point x="256.5" y="97.25"/>
      <point x="202.375" y="174.625"/>
      <point x="202.375" y="368.4375" type="curve"/>
      <point x="202.375" y="565.9375"/>
      <point x="257.0625" y="647.5625"/>
      <point x="350.9375" y="647.5625" type="curve"/>
      <point x="444.8125" y="647.5625"/>
      <point x="499.0625" y="566.9375"/>
      <point x="499.0625" y="368.4375" type="curve"/>
      <point x="499.0625" y="173.625"/>
      <point x="446.8125" y="97.25"/>
    </contour>
  </outline>
</glyph>
<glyph name="one" format="2">
  <advance width="493.6875"/>
  <unicode hex="0031"/>
  <outline>
    <contour>
      <point x="441.375" y="110.625" type="curve"/>
      <point x="441.375" y="110.625" type="line"/>
      <point x="336.5" y="110.625" type="line" smooth="yes"/>
      <point x="331.25" y="110.625"/>
      <point x="328.125" y="113.75"/>
      <point x="328.125" y="120.0" type="curve"/>
      <point x="328.125" y="726.25" type="line" smooth="yes"/>
      <point x="328.125" y="736.1875"/>
      <point x="322.875" y="742.0"/>
      <point x="314.5" y="742.0" type="curve"/>
      <point x="254.875" y="742.0" type="line" smooth="yes"/>
      <point x="240.6875" y="742.0"/>
      <point x="232.875" y="739.3125"/>
      <point x="217.125" y="731.5" type="curve"/>
      <point x="55.9375" y="651.125" type="line" smooth="yes"/>
      <point x="45.875" y="645.875"/>
      <point x="43.1875" y="643.0625"/>
      <point x="43.1875" y="630.875" type="curve"/>
      <point x="43.1875" y="573.125" type="line" smooth="yes"/>
      <point x="43.1875" y="559.25"/>
      <point x="49.5625" y="554.0"/>
      <point x="61.875" y="557.125" type="curve"/>
      <point x="168.125" y="591.75" type="line" smooth="yes"/>
      <point x="177.625" y="594.3125"/>
      <point x="180.3125" y="590.75"/>
      <point x="180.3125" y="581.8125" type="curve"/>
      <point x="180.3125" y="117.4375" type="line" smooth="yes"/>
      <point x="180.3125" y="112.75"/>
      <point x="175.625" y="110.625"/>
      <point x="170.9375" y="110.625" type="curve"/>
      <point x="59.1875" y="110.625" type="line" smooth="yes"/>
      <point x="49.5625" y="110.625"/>
      <point x="44.1875" y="106.9375"/>
      <point x="44.1875" y="97.3125" type="curve"/>
      <point x="44.1875" y="14.4375" type="line" smooth="yes"/>
      <point x="44.1875" y="5.8125"/>
      <point x="49.0" y="0.0"/>
      <point x="60.3125" y="0.0" type="curve"/>
      <point x="440.25" y="0.0" type="line" smooth="yes"/>
      <point x="452.0" y="0.0"/>
      <point x="457.375" y="7.375"/>
      <point x="457.375" y="15.0" type="curve"/>
      <point x="457.375" y="97.3125" type="line" smooth="yes"/>
      <point x="457.375" y="106.9375"/>
      <point x="451.4375" y="110.625"/>
    </contour>
  </outline>
</glyph>
<glyph name="two" format="2">
  <advance width="628.375"/>
  <unicode hex="0032"/>
  <outline>
    <contour>
      <point x="276.125" y="317.5" type="curve"/>
      <point x="80.5625" y="134.75" type="line"/>
      <point x="44.25" y="104.0625"/>
      <point x="41.25" y="95.375"/>
      <point x="41.25" y="83.75" type="curve"/>
      <point x="41.25" y="19.3125" type="line" smooth="yes"/>
      <point x="41.25" y="4.125"/>
      <point x="46.5" y="0.0"/>
      <point x="61.6875" y="0.0" type="curve"/>
      <point x="563.375" y="0.0" type="line" smooth="yes"/>
      <point x="575.5625" y="0.0"/>
      <point x="580.9375" y="6.9375"/>
      <point x="580.9375" y="15.875" type="curve"/>
      <point x="580.9375" y="108.25" type="line" smooth="yes"/>
      <point x="580.9375" y="118.75"/>
      <point x="575.0" y="122.4375"/>
      <point x="564.0625" y="122.4375" type="curve"/>
      <point x="238.8125" y="122.4375" type="line" smooth="yes"/>
      <point x="224.875" y="122.4375"/>
      <point x="224.6875" y="128.0"/>
      <point x="232.8125" y="134.4375" type="curve"/>
      <point x="424.0" y="294.75" type="line" smooth="yes"/>
      <point x="533.375" y="387.4375"/>
      <point x="573.5" y="449.5"/>
      <point x="573.5" y="532.625" type="curve"/>
      <point x="573.5" y="673.0625"/>
      <point x="463.5625" y="752.0"/>
      <point x="315.6875" y="752.0" type="curve"/>
      <point x="205.75" y="752.0"/>
      <point x="113.1875" y="706.0625"/>
      <point x="47.5" y="604.75" type="curve"/>
      <point x="40.25" y="593.8125"/>
      <point x="40.9375" y="583.375"/>
      <point x="53.4375" y="575.8125" type="curve"/>
      <point x="126.9375" y="536.9375" type="line" smooth="yes"/>
      <point x="139.0" y="529.8125"/>
      <point x="147.8125" y="532.8125"/>
      <point x="151.9375" y="539.625" type="curve"/>
      <point x="196.8125" y="614.9375"/>
      <point x="250.9375" y="643.0625"/>
      <point x="305.875" y="643.0625" type="curve"/>
      <point x="372.25" y="643.0625"/>
      <point x="429.625" y="603.0625"/>
      <point x="429.625" y="534.125" type="curve"/>
      <point x="429.625" y="470.8125"/>
      <point x="398.375" y="426.6875"/>
    </contour>
  </outline>
</glyph>
<glyph name="three" format="2">
  <advance width="658.3125"/>
  <unicode hex="0033"/>
  <outline>
    <contour>
      <point x="69.375" y="629.8125" type="curve"/>
      <point x="69.375" y="629.8125" type="line"/>
      <point x="129.1875" y="573.0625" type="line" smooth="yes"/>
      <point x="137.4375" y="565.375"/>
      <point x="141.4375" y="565.375"/>
      <point x="149.6875" y="573.625" type="curve"/>
      <point x="202.5" y="624.3125"/>
      <point x="253.4375" y="648.125"/>
      <point x="317.4375" y="648.125" type="curve"/>
      <point x="390.5625" y="648.125"/>
      <point x="443.625" y="605.8125"/>
      <point x="443.625" y="551.6875" type="curve"/>
      <point x="443.625" y="487.125"/>
      <point x="380.125" y="440.375"/>
      <point x="292.625" y="438.125" type="curve"/>
      <point x="223.0" y="435.875" type="line" smooth="yes"/>
      <point x="213.5" y="434.75"/>
      <point x="207.25" y="430.625"/>
      <point x="207.25" y="423.25" type="curve"/>
      <point x="207.25" y="343.8125" type="line" smooth="yes"/>
      <point x="207.25" y="334.875"/>
      <point x="212.5" y="331.1875"/>
      <point x="223.0" y="331.1875" type="curve"/>
      <point x="309.625" y="330.0625" type="line" smooth="yes"/>
      <point x="392.875" y="328.9375"/>
      <point x="465.5" y="285.0"/>
      <point x="465.5" y="207.8125" type="curve"/>
      <point x="465.5" y="141.625"/>
      <point x="410.125" y="96.125"/>
      <point x="314.875" y="96.125" type="curve"/>
      <point x="239.25" y="96.125"/>
      <point x="190.0" y="119.375"/>
      <point x="129.4375" y="181.375" type="curve"/>
      <point x="124.75" y="186.625"/>
      <point x="119.375" y="187.9375"/>
      <point x="109.4375" y="180.8125" type="curve"/>
      <point x="43.4375" y="132.6875" type="line" smooth="yes"/>
      <point x="32.9375" y="125.5625"/>
      <point x="31.6875" y="117.125"/>
      <point x="38.5" y="107.5" type="curve"/>
      <point x="97.8125" y="33.4375"/>
      <point x="196.0625" y="-10.0"/>
      <point x="305.9375" y="-10.0" type="curve"/>
      <point x="509.8125" y="-10.0"/>
      <point x="611.0625" y="75.3125"/>
      <point x="611.0625" y="211.375" type="curve"/>
      <point x="611.0625" y="297.0625"/>
      <point x="549.875" y="362.375"/>
      <point x="466.75" y="387.875" type="curve"/>
      <point x="451.75" y="392.4375"/>
      <point x="452.3125" y="399.5"/>
      <point x="467.3125" y="404.5" type="curve"/>
      <point x="544.9375" y="430.125"/>
      <point x="588.0625" y="493.9375"/>
      <point x="588.0625" y="560.125" type="curve"/>
      <point x="588.0625" y="672.125"/>
      <point x="486.25" y="752.0"/>
      <point x="318.8125" y="752.0" type="curve"/>
      <point x="218.25" y="752.0"/>
      <point x="125.6875" y="714.875"/>
      <point x="69.375" y="649.6875" type="curve"/>
      <point x="64.125" y="642.1875"/>
      <point x="63.6875" y="636.0625"/>
    </contour>
  </outline>
</glyph>
<glyph name="four" format="2">
  <advance width="675.3125"/>
  <unicode hex="0034"/>
  <outline>
    <contour>
      <point x="371.1875" y="725.75" type="curve"/>
      <point x="371.1875" y="725.75" type="line"/>
      <point x="61.0" y="315.25" type="line" smooth="yes"/>
      <point x="45.0" y="294.0"/>
      <point x="38.5" y="282.9375"/>
      <point x="38.5" y="271.875" type="curve"/>
      <point x="38.5" y="199.8125" type="line" smooth="yes"/>
      <point x="38.5" y="189.0"/>
      <point x="44.75" y="183.0625"/>
      <point x="57.375" y="183.0625" type="curve"/>
      <point x="365.5625" y="183.0625" type="line" smooth="yes"/>
      <point x="372.6875" y="183.0625"/>
      <point x="376.9375" y="180.5"/>
      <point x="376.9375" y="174.8125" type="curve"/>
      <point x="376.375" y="18.0" type="line" smooth="yes"/>
      <point x="376.375" y="6.25"/>
      <point x="381.625" y="0.0"/>
      <point x="395.0625" y="0.0" type="curve"/>
      <point x="503.5" y="0.0" type="line" smooth="yes"/>
      <point x="519.5" y="0.0"/>
      <point x="526.4375" y="5.8125"/>
      <point x="526.4375" y="20.25" type="curve"/>
      <point x="526.4375" y="171.8125" type="line" smooth="yes"/>
      <point x="526.4375" y="180.5"/>
      <point x="530.5625" y="183.0625"/>
      <point x="536.6875" y="183.0625" type="curve"/>
      <point x="620.8125" y="183.0625" type="line" smooth="yes"/>
      <point x="633.4375" y="183.0625"/>
      <point x="638.6875" y="189.875"/>
      <point x="638.6875" y="199.8125" type="curve"/>
      <point x="638.6875" y="272.625" type="line" smooth="yes"/>
      <point x="638.6875" y="282.6875"/>
      <point x="632.4375" y="286.375"/>
      <point x="621.9375" y="286.375" type="curve"/>
      <point x="535.6875" y="286.375" type="line" smooth="yes"/>
      <point x="529.5625" y="286.375"/>
      <point x="526.4375" y="290.5"/>
      <point x="526.4375" y="296.625" type="curve"/>
      <point x="526.4375" y="726.25" type="line" smooth="yes"/>
      <point x="526.4375" y="736.1875"/>
      <point x="521.1875" y="742.0"/>
      <point x="511.8125" y="742.0" type="curve"/>
      <point x="406.0" y="742.0" type="line" smooth="yes"/>
      <point x="387.75" y="742.0"/>
      <point x="381.625" y="738.875"/>
    </contour>
    <contour>
      <point x="367.875" y="286.375" type="curve"/>
      <point x="168.125" y="286.375" type="line"/>
      <point x="156.4375" y="286.375"/>
      <point x="155.125" y="291.375"/>
      <point x="161.125" y="299.375" type="curve"/>
      <point x="362.875" y="575.25" type="line" smooth="yes"/>
      <point x="373.0" y="588.9375"/>
      <point x="376.875" y="588.0625"/>
      <point x="376.875" y="571.25" type="curve"/>
      <point x="376.875" y="293.375" type="line" smooth="yes"/>
      <point x="376.875" y="289.375"/>
      <point x="372.875" y="286.375"/>
    </contour>
  </outline>
</glyph>
<glyph name="five" format="2">
  <advance width="668.5625"/>
  <unicode hex="0035"/>
  <outline>
    <contour>
      <point x="555.5" y="742.0" type="curve"/>
      <point x="138.25" y="742.0" type="line"/>
      <point x="112.4375" y="742.0"/>
      <point x="108.375" y="738.0625"/>
      <point x="107.25" y="721.625" type="curve"/>
      <point x="79.125" y="394.6875" type="line" smooth="yes"/>
      <point x="77.5625" y="377.4375"/>
      <point x="75.375" y="373.875"/>
      <point x="88.625" y="366.3125" type="curve"/>
      <point x="165.1875" y="324.1875" type="line" smooth="yes"/>
      <point x="176.6875" y="317.9375"/>
      <point x="175.9375" y="316.625"/>
      <point x="188.1875" y="322.625" type="curve"/>
      <point x="234.5" y="347.4375"/>
      <point x="276.4375" y="368.875"/>
      <point x="331.5" y="368.875" type="curve"/>
      <point x="418.5625" y="368.875"/>
      <point x="477.9375" y="320.375"/>
      <point x="477.9375" y="238.0625" type="curve"/>
      <point x="477.9375" y="155.8125"/>
      <point x="417.375" y="95.25"/>
      <point x="310.5625" y="95.25" type="curve"/>
      <point x="230.125" y="95.25"/>
      <point x="188.875" y="131.1875"/>
      <point x="140.125" y="180.375" type="curve"/>
      <point x="133.75" y="187.3125"/>
      <point x="125.8125" y="189.875"/>
      <point x="117.1875" y="183.5" type="curve"/>
      <point x="48.125" y="133.6875" type="line" smooth="yes"/>
      <point x="34.8125" y="124.3125"/>
      <point x="38.75" y="115.4375"/>
      <point x="46.5625" y="104.8125" type="curve"/>
      <point x="104.125" y="33.625"/>
      <point x="207.8125" y="-10.0"/>
      <point x="327.5625" y="-10.0" type="curve"/>
      <point x="501.6875" y="-10.0"/>
      <point x="623.5" y="83.0"/>
      <point x="623.5" y="242.4375" type="curve"/>
      <point x="623.5" y="398.0625"/>
      <point x="506.625" y="475.25"/>
      <point x="363.125" y="475.25" type="curve"/>
      <point x="301.9375" y="475.25"/>
      <point x="263.1875" y="458.625"/>
      <point x="212.375" y="438.5" type="curve"/>
      <point x="204.125" y="435.0625"/>
      <point x="197.4375" y="440.5"/>
      <point x="199.0" y="450.75" type="curve"/>
      <point x="212.6875" y="608.75" type="line" smooth="yes"/>
      <point x="213.25" y="618.6875"/>
      <point x="218.9375" y="622.375"/>
      <point x="228.4375" y="622.375" type="curve"/>
      <point x="552.375" y="622.375" type="line" smooth="yes"/>
      <point x="567.4375" y="622.375"/>
      <point x="570.625" y="625.75"/>
      <point x="571.625" y="638.375" type="curve"/>
      <point x="576.3125" y="721.75" type="line" smooth="yes"/>
      <point x="577.3125" y="738.3125"/>
      <point x="575.3125" y="742.0"/>
    </contour>
  </outline>
</glyph>
<glyph name="six" format="2">
  <advance width="676.9375"/>
  <unicode hex="0036"/>
  <outline>
    <contour>
      <point x="370.8125" y="750.875" type="curve"/>
      <point x="370.8125" y="750.875" type="line"/>
      <point x="177.25" y="750.875"/>
      <point x="52.0" y="602.75"/>
      <point x="52.0" y="356.8125" type="curve"/>
      <point x="52.0" y="130.3125"/>
      <point x="167.75" y="-8.875"/>
      <point x="354.8125" y="-8.875" type="curve"/>
      <point x="511.0" y="-8.875"/>
      <point x="633.75" y="90.0"/>
      <point x="633.75" y="231.25" type="curve"/>
      <point x="633.75" y="357.75"/>
      <point x="536.4375" y="450.0625"/>
      <point x="381.875" y="450.0625" type="curve"/>
      <point x="311.875" y="450.0625"/>
      <point x="266.3125" y="429.75"/>
      <point x="219.3125" y="408.5" type="curve"/>
      <point x="201.375" y="400.5"/>
      <point x="198.6875" y="404.8125"/>
      <point x="198.6875" y="428.5" type="curve"/>
      <point x="198.6875" y="554.4375"/>
      <point x="256.1875" y="645.875"/>
      <point x="371.25" y="645.875" type="curve"/>
      <point x="423.9375" y="645.875"/>
      <point x="451.6875" y="622.0625"/>
      <point x="477.625" y="586.5" type="curve"/>
      <point x="481.0625" y="580.9375"/>
      <point x="486.625" y="573.875"/>
      <point x="495.6875" y="577.4375" type="curve"/>
      <point x="586.625" y="608.5" type="line" smooth="yes"/>
      <point x="597.125" y="612.5"/>
      <point x="595.8125" y="621.0"/>
      <point x="593.375" y="628.5" type="curve"/>
      <point x="568.6875" y="683.1875"/>
      <point x="490.875" y="750.875"/>
    </contour>
    <contour>
      <point x="354.375" y="350.6875" type="curve"/>
      <point x="354.375" y="350.6875" type="line"/>
      <point x="432.4375" y="350.6875"/>
      <point x="487.625" y="299.5"/>
      <point x="487.625" y="225.75" type="curve"/>
      <point x="487.625" y="148.75"/>
      <point x="428.5625" y="90.5"/>
      <point x="351.625" y="90.5" type="curve"/>
      <point x="252.0625" y="90.5"/>
      <point x="200.6875" y="186.5"/>
      <point x="200.6875" y="275.6875" type="curve"/>
      <point x="200.6875" y="297.625"/>
      <point x="204.0" y="303.8125"/>
      <point x="216.8125" y="312.875" type="curve"/>
      <point x="247.6875" y="333.1875"/>
      <point x="309.125" y="350.6875"/>
    </contour>
  </outline>
</glyph>
<glyph name="seven" format="2">
  <advance width="612.3125"/>
  <unicode hex="0037"/>
  <outline>
    <contour>
      <point x="551.5" y="742.0" type="curve"/>
      <point x="66.1875" y="742.0" type="line"/>
      <point x="53.0" y="742.0"/>
      <point x="45.9375" y="738.1875"/>
      <point x="44.9375" y="729.375" type="curve"/>
      <point x="35.75" y="639.5" type="line" smooth="yes"/>
      <point x="35.1875" y="628.875"/>
      <point x="39.5625" y="622.375"/>
      <point x="53.125" y="622.375" type="curve"/>
      <point x="408.0" y="622.375" type="line" smooth="yes"/>
      <point x="421.8125" y="622.375"/>
      <point x="421.25" y="615.6875"/>
      <point x="415.6875" y="607.0" type="curve"/>
      <point x="258.5" y="359.0"/>
      <point x="185.75" y="170.0"/>
      <point x="146.125" y="22.0" type="curve"/>
      <point x="142.4375" y="8.375"/>
      <point x="147.6875" y="0.0"/>
      <point x="161.3125" y="0.0" type="curve"/>
      <point x="292.6875" y="0.0" type="line" smooth="yes"/>
      <point x="304.75" y="0.0"/>
      <point x="310.5625" y="7.8125"/>
      <point x="311.5625" y="24.6875" type="curve"/>
      <point x="326.3125" y="160.125"/>
      <point x="426.9375" y="438.8125"/>
      <point x="551.625" y="626.125" type="curve"/>
      <point x="561.4375" y="640.625"/>
      <point x="572.5625" y="663.625"/>
      <point x="573.125" y="675.4375" type="curve"/>
      <point x="575.375" y="723.625" type="line" smooth="yes"/>
      <point x="575.9375" y="733.375"/>
      <point x="567.75" y="742.0"/>
    </contour>
  </outline>
</glyph>
<glyph name="eight" format="2">
  <advance width="678.125"/>
  <unicode hex="0038"/>
  <outline>
    <contour>
      <point x="335.5" y="752.0" type="curve"/>
      <point x="335.5" y="752.0" type="line"/>
      <point x="171.9375" y="752.0"/>
      <point x="67.6875" y="651.625"/>
      <point x="67.6875" y="528.5625" type="curve"/>
      <point x="67.6875" y="449.5625"/>
      <point x="110.8125" y="405.0"/>
      <point x="163.9375" y="371.0625" type="curve"/>
      <point x="177.4375" y="362.625"/>
      <point x="175.75" y="359.1875"/>
      <point x="162.8125" y="351.6875" type="curve"/>
      <point x="77.625" y="302.1875"/>
      <point x="47.6875" y="250.6875"/>
      <point x="47.6875" y="183.3125" type="curve"/>
      <point x="47.6875" y="59.625"/>
      <point x="161.125" y="-10.0"/>
      <point x="331.25" y="-10.0" type="curve"/>
      <point x="510.1875" y="-10.0"/>
      <point x="632.75" y="70.6875"/>
      <point x="632.75" y="205.4375" type="curve"/>
      <point x="632.75" y="280.875"/>
      <point x="595.8125" y="337.4375"/>
      <point x="500.9375" y="383.5625" type="curve"/>
      <point x="490.25" y="389.9375"/>
      <point x="491.9375" y="395.0625"/>
      <point x="501.9375" y="400.9375" type="curve"/>
      <point x="568.5" y="442.1875"/>
      <point x="599.75" y="488.0625"/>
      <point x="599.75" y="546.1875" type="curve"/>
      <point x="599.75" y="665.8125"/>
      <point x="489.375" y="752.0"/>
    </contour>
    <contour>
      <point x="337.75" y="652.0625" type="curve"/>
      <point x="337.75" y="652.0625" type="line"/>
      <point x="423.125" y="652.0625"/>
      <point x="473.875" y="605.25"/>
      <point x="473.875" y="543.875" type="curve"/>
      <point x="473.875" y="484.25"/>
      <point x="413.375" y="418.625"/>
      <point x="374.9375" y="429.4375" type="curve"/>
      <point x="287.75" y="452.75" type="line" smooth="yes"/>
      <point x="234.4375" y="466.375"/>
      <point x="206.5" y="498.3125"/>
      <point x="206.5" y="544.875" type="curve"/>
      <point x="206.5" y="608.0625"/>
      <point x="263.625" y="652.0625"/>
    </contour>
    <contour>
      <point x="339.5625" y="89.9375" type="curve"/>
      <point x="339.5625" y="89.9375" type="line"/>
      <point x="227.9375" y="89.9375"/>
      <point x="174.6875" y="132.875"/>
      <point x="174.6875" y="204.0" type="curve"/>
      <point x="174.6875" y="279.5"/>
      <point x="251.125" y="334.0"/>
      <point x="290.125" y="322.1875" type="curve"/>
      <point x="396.5625" y="293.25" type="line" smooth="yes"/>
      <point x="463.25" y="274.6875"/>
      <point x="486.0625" y="242.9375"/>
      <point x="486.0625" y="195.5" type="curve"/>
      <point x="486.0625" y="131.125"/>
      <point x="430.75" y="89.9375"/>
    </contour>
  </outline>
</glyph>
<glyph name="nine" format="2">
  <advance width="674.75"/>
  <unicode hex="0039"/>
  <outline>
    <contour>
      <point x="306.5625" y="-8.875" type="curve"/>
      <point x="306.5625" y="-8.875" type="line"/>
      <point x="498.375" y="-8.875"/>
      <point x="622.75" y="139.25"/>
      <point x="622.75" y="385.1875" type="curve"/>
      <point x="622.75" y="611.6875"/>
      <point x="507.875" y="750.875"/>
      <point x="322.5625" y="750.875" type="curve"/>
      <point x="166.375" y="750.875"/>
      <point x="43.625" y="652.0"/>
      <point x="43.625" y="510.75" type="curve"/>
      <point x="43.625" y="384.25"/>
      <point x="141.375" y="291.9375"/>
      <point x="294.625" y="291.9375" type="curve"/>
      <point x="364.625" y="291.9375"/>
      <point x="409.3125" y="312.25"/>
      <point x="455.4375" y="333.5" type="curve"/>
      <point x="473.375" y="341.5"/>
      <point x="476.0625" y="337.1875"/>
      <point x="476.0625" y="313.5" type="curve"/>
      <point x="476.0625" y="187.5625"/>
      <point x="419.0" y="96.125"/>
      <point x="306.5625" y="96.125" type="curve"/>
      <point x="250.8125" y="96.125"/>
      <point x="221.3125" y="119.9375"/>
      <point x="195.375" y="155.5" type="curve"/>
      <point x="191.9375" y="161.0625"/>
      <point x="186.375" y="168.125"/>
      <point x="177.3125" y="164.5625" type="curve"/>
      <point x="86.375" y="133.5" type="line" smooth="yes"/>
      <point x="75.875" y="129.5"/>
      <point x="77.1875" y="121.0"/>
      <point x="79.625" y="113.5" type="curve"/>
      <point x="105.1875" y="58.8125"/>
      <point x="184.3125" y="-8.875"/>
    </contour>
    <contour>
      <point x="321.6875" y="391.3125" type="curve"/>
      <point x="321.6875" y="391.3125" type="line"/>
      <point x="245.375" y="391.3125"/>
      <point x="189.75" y="442.5"/>
      <point x="189.75" y="516.6875" type="curve"/>
      <point x="189.75" y="593.6875"/>
      <point x="248.8125" y="651.5"/>
      <point x="325.75" y="651.5" type="curve"/>
      <point x="424.0" y="651.5"/>
      <point x="474.9375" y="557.25"/>
      <point x="474.9375" y="469.375" type="curve"/>
      <point x="474.9375" y="447.4375"/>
      <point x="471.625" y="441.25"/>
      <point x="458.8125" y="432.1875" type="curve"/>
      <point x="428.375" y="410.125"/>
      <point x="368.6875" y="391.3125"/>
    </contour>
  </outline>
</glyph>
<glyph name="colon" format="2">
  <advance width="236.5625"/>
  <unicode hex="003A"/>
  <outline>
    <contour>
      <point x="189.5" y="389.8125" type="curve"/>
      <point x="189.5" y="499.3125" type="line"/>
      <point x="189.5" y="509.25"/>
      <point x="185.25" y="514.0625"/>
      <point x="176.3125" y="514.0625" type="curve"/>
      <point x="58.0" y="514.0625" type="line" smooth="yes"/>
      <point x="50.0625" y="514.0625"/>
      <point x="44.25" y="509.25"/>
      <point x="44.25" y="497.75" type="curve"/>
      <point x="44.25" y="387.6875" type="line" smooth="yes"/>
      <point x="44.25" y="375.0625"/>
      <point x="49.0625" y="368.6875"/>
      <point x="63.8125" y="368.6875" type="curve"/>
      <point x="165.25" y="368.6875" type="line" smooth="yes"/>
      <point x="183.125" y="368.6875"/>
      <point x="189.5" y="375.0625"/>
    </contour>
    <contour>
      <point x="189.5" y="24.125" type="curve"/>
      <point x="189.5" y="133.625" type="line"/>
      <point x="189.5" y="143.5625"/>
      <point x="185.25" y="148.375"/>
      <point x="176.3125" y="148.375" type="curve"/>
      <point x="58.0" y="148.375" type="line" smooth="yes"/>
      <point x="50.0625" y="148.375"/>
      <point x="44.25" y="143.5625"/>
      <point x="44.25" y="132.0625" type="curve"/>
      <point x="44.25" y="22.0" type="line" smooth="yes"/>
      <point x="44.25" y="9.375"/>
      <point x="49.0625" y="3.0"/>
      <point x="63.8125" y="3.0" type="curve"/>
      <point x="165.25" y="3.0" type="line" smooth="yes"/>
      <point x="183.125" y="3.0"/>
      <point x="189.5" y="9.375"/>
    </contour>
  </outline>
</glyph>
<glyph name="semicolon" format="2">
  <advance width="248.8125"/>
  <unicode hex="003B"/>
  <outline>
    <contour>
      <point x="53.375" y="-153.6875" type="curve"/>
      <point x="53.375" y="-153.6875" type="line"/>
      <point x="68.8125" y="-153.6875" type="line" smooth="yes"/>
      <point x="79.875" y="-153.6875"/>
      <point x="92.4375" y="-148.3125"/>
      <point x="99.5" y="-138.125" type="curve"/>
      <point x="188.5625" y="11.3125" type="line" smooth="yes"/>
      <point x="190.6875" y="15.4375"/>
      <point x="191.6875" y="18.875"/>
      <point x="191.6875" y="25.0" type="curve"/>
      <point x="191.6875" y="132.0625" type="line" smooth="yes"/>
      <point x="191.6875" y="141.125"/>
      <point x="187.4375" y="145.9375"/>
      <point x="178.9375" y="145.9375" type="curve"/>
      <point x="59.75" y="145.9375" type="line" smooth="yes"/>
      <point x="51.8125" y="145.9375"/>
      <point x="46.4375" y="141.125"/>
      <point x="46.4375" y="130.9375" type="curve"/>
      <point x="46.4375" y="17.125" type="line" smooth="yes"/>
      <point x="46.4375" y="5.8125"/>
      <point x="51.25" y="0.0"/>
      <point x="65.125" y="0.0" type="curve"/>
      <point x="81.4375" y="0.0" type="line" smooth="yes"/>
      <point x="94.375" y="0.0"/>
      <point x="95.8125" y="-8.0625"/>
      <point x="90.0" y="-22.375" type="curve"/>
      <point x="43.0625" y="-135.25" type="line" smooth="yes"/>
      <point x="38.9375" y="-145.0625"/>
      <point x="44.3125" y="-153.6875"/>
    </contour>
    <contour>
      <point x="63.8125" y="364.75" type="curve"/>
      <point x="63.8125" y="364.75" type="line"/>
      <point x="165.25" y="364.75" type="line" smooth="yes"/>
      <point x="183.125" y="364.75"/>
      <point x="189.5" y="370.5625"/>
      <point x="189.5" y="385.875" type="curve"/>
      <point x="189.5" y="497.625" type="line" smooth="yes"/>
      <point x="189.5" y="507.5625"/>
      <point x="185.25" y="512.375"/>
      <point x="176.3125" y="512.375" type="curve"/>
      <point x="58.0" y="512.375" type="line" smooth="yes"/>
      <point x="50.0625" y="512.375"/>
      <point x="44.25" y="507.5625"/>
      <point x="44.25" y="496.0625" type="curve"/>
      <point x="44.25" y="383.1875" type="line" smooth="yes"/>
      <point x="44.25" y="370.5625"/>
      <point x="49.0625" y="364.75"/>
    </contour>
  </outline>
</glyph>
<glyph name="less" format="2">
  <advance width="565.75"/>
  <unicode hex="003C"/>
  <outline>
    <contour>
      <point x="503.75" y="149.4375" type="curve"/>
      <point x="503.75" y="212.625" type="line"/>
      <point x="503.75" y="229.1875"/>
      <point x="494.6875" y="236.125"/>
      <point x="472.75" y="244.625" type="curve"/>
      <point x="191.3125" y="352.375" type="line"/>
      <point x="473.1875" y="461.375" type="line" smooth="yes"/>
      <point x="494.5625" y="469.875"/>
      <point x="504.1875" y="478.5"/>
      <point x="504.1875" y="493.5" type="curve"/>
      <point x="504.1875" y="558.875" type="line" smooth="yes"/>
      <point x="504.1875" y="573.9375"/>
      <point x="492.4375" y="583.5625"/>
      <point x="475.9375" y="576.875" type="curve"/>
      <point x="65.1875" y="415.9375" type="line" smooth="yes"/>
      <point x="53.4375" y="411.6875"/>
      <point x="45.9375" y="405.1875"/>
      <point x="45.9375" y="391.3125" type="curve"/>
      <point x="45.9375" y="313.5625" type="line" smooth="yes"/>
      <point x="45.9375" y="301.25"/>
      <point x="54.0" y="294.3125"/>
      <point x="65.1875" y="290.0625" type="curve"/>
      <point x="475.375" y="130.5625" type="line" smooth="yes"/>
      <point x="491.125" y="124.3125"/>
      <point x="503.75" y="130.0"/>
    </contour>
  </outline>
</glyph>
<glyph name="equal" format="2">
  <advance width="574.1875"/>
  <unicode hex="003D"/>
  <outline>
    <contour>
      <point x="522.1875" y="442.3125" type="curve"/>
      <point x="522.1875" y="505.125" type="line"/>
      <point x="522.1875" y="513.625"/>
      <point x="516.9375" y="519.0"/>
      <point x="509.0" y="519.0" type="curve"/>
      <point x="66.0" y="518.5625" type="line" smooth="yes"/>
      <point x="57.9375" y="518.5625"/>
      <point x="53.125" y="513.1875"/>
      <point x="53.125" y="502.5625" type="curve"/>
      <point x="53.125" y="439.75" type="line" smooth="yes"/>
      <point x="53.125" y="428.0"/>
      <point x="57.375" y="422.625"/>
      <point x="71.25" y="422.625" type="curve"/>
      <point x="499.25" y="423.0625" type="line" smooth="yes"/>
      <point x="515.25" y="423.0625"/>
      <point x="522.1875" y="428.4375"/>
    </contour>
    <contour>
      <point x="522.1875" y="210.5" type="curve"/>
      <point x="522.1875" y="273.3125" type="line"/>
      <point x="522.1875" y="281.8125"/>
      <point x="516.9375" y="287.1875"/>
      <point x="509.0" y="287.1875" type="curve"/>
      <point x="66.0" y="286.75" type="line" smooth="yes"/>
      <point x="57.9375" y="286.75"/>
      <point x="53.125" y="281.375"/>
      <point x="53.125" y="270.75" type="curve"/>
      <point x="53.125" y="207.9375" type="line" smooth="yes"/>
      <point x="53.125" y="196.1875"/>
      <point x="57.375" y="190.8125"/>
      <point x="71.25" y="190.8125" type="curve"/>
      <point x="499.25" y="191.25" type="line" smooth="yes"/>
      <point x="515.25" y="191.25"/>
      <point x="522.1875" y="196.625"/>
    </contour>
  </outline>
</glyph>
<glyph name="greater" format="2">
  <advance width="565.75"/>
  <unicode hex="003E"/>
  <outline>
    <contour>
      <point x="62.0" y="212.625" type="curve"/>
      <point x="62.0" y="212.625" type="line"/>
      <point x="62.0" y="149.4375" type="line" smooth="yes"/>
      <point x="62.0" y="130.0"/>
      <point x="74.625" y="124.3125"/>
      <point x="90.375" y="130.5625" type="curve"/>
      <point x="500.5625" y="290.0625" type="line" smooth="yes"/>
      <point x="511.75" y="294.3125"/>
      <point x="519.8125" y="301.25"/>
      <point x="519.8125" y="313.5625" type="curve"/>
      <point x="519.8125" y="391.3125" type="line" smooth="yes"/>
      <point x="519.8125" y="405.1875"/>
      <point x="512.3125" y="411.6875"/>
      <point x="500.5625" y="415.9375" type="curve"/>
      <point x="89.8125" y="576.875" type="line" smooth="yes"/>
      <point x="73.3125" y="583.5625"/>
      <point x="61.5625" y="573.9375"/>
      <point x="61.5625" y="558.875" type="curve"/>
      <point x="61.5625" y="493.5" type="line" smooth="yes"/>
      <point x="61.5625" y="478.5"/>
      <point x="71.1875" y="469.875"/>
      <point x="92.5625" y="461.375" type="curve"/>
      <point x="374.4375" y="352.375" type="line"/>
      <point x="93.0" y="244.625" type="line" smooth="yes"/>
      <point x="71.0625" y="236.125"/>
      <point x="62.0" y="229.1875"/>
    </contour>
  </outline>
</glyph>
<glyph name="question" format="2">
  <advance width="532.0"/>
  <unicode hex="003F"/>
  <outline>
    <contour>
      <point x="321.125" y="21.125" type="curve"/>
      <point x="321.125" y="130.625" type="line"/>
      <point x="321.125" y="140.5625"/>
      <point x="316.3125" y="145.375"/>
      <point x="307.9375" y="145.375" type="curve"/>
      <point x="189.625" y="145.375" type="line" smooth="yes"/>
      <point x="180.6875" y="145.375"/>
      <point x="175.875" y="140.125"/>
      <point x="175.875" y="129.0625" type="curve"/>
      <point x="175.875" y="18.4375" type="line" smooth="yes"/>
      <point x="175.875" y="5.8125"/>
      <point x="180.5625" y="0.0"/>
      <point x="194.875" y="0.0" type="curve"/>
      <point x="296.875" y="0.0" type="line" smooth="yes"/>
      <point x="314.1875" y="0.0"/>
      <point x="321.125" y="5.8125"/>
    </contour>
    <contour>
      <point x="22.625" y="587.25" type="curve"/>
      <point x="22.625" y="587.25" type="line"/>
      <point x="107.75" y="565.375" type="line" smooth="yes"/>
      <point x="118.375" y="562.8125"/>
      <point x="121.625" y="564.8125"/>
      <point x="125.875" y="573.4375" type="curve"/>
      <point x="147.75" y="625.1875"/>
      <point x="206.0" y="660.5"/>
      <point x="263.3125" y="660.5" type="curve"/>
      <point x="326.75" y="660.5"/>
      <point x="372.0625" y="625.0625"/>
      <point x="372.0625" y="569.4375" type="curve"/>
      <point x="372.0625" y="458.625"/>
      <point x="196.0" y="416.3125"/>
      <point x="196.0" y="237.1875" type="curve"/>
      <point x="196.0" y="223.875"/>
      <point x="202.9375" y="216.9375"/>
      <point x="214.125" y="216.9375" type="curve"/>
      <point x="285.0" y="216.9375" type="line" smooth="yes"/>
      <point x="294.625" y="216.9375"/>
      <point x="302.125" y="224.875"/>
      <point x="302.125" y="233.9375" type="curve"/>
      <point x="302.125" y="387.8125"/>
      <point x="501.875" y="414.375"/>
      <point x="501.875" y="575.625" type="curve"/>
      <point x="501.875" y="675.375"/>
      <point x="408.0625" y="752.0"/>
      <point x="264.4375" y="752.0" type="curve"/>
      <point x="147.5" y="752.0"/>
      <point x="58.25" y="698.9375"/>
      <point x="15.6875" y="605.9375" type="curve"/>
      <point x="12.5625" y="598.4375"/>
      <point x="13.5625" y="589.8125"/>
    </contour>
  </outline>
</glyph>
<glyph name="at" format="2">
  <advance width="834.0"/>
  <unicode hex="0040"/>
  <outline>
    <contour>
      <point x="661.25" y="-46.0" type="curve"/>
      <point x="661.25" y="-46.0" type="line"/>
      <point x="668.375" y="-40.875"/>
      <point x="674.6875" y="-34.875"/>
      <point x="668.25" y="-26.0" type="curve"/>
      <point x="640.5" y="11.375" type="line" smooth="yes"/>
      <point x="636.5" y="16.9375"/>
      <point x="630.0625" y="18.5"/>
      <point x="620.375" y="12.375" type="curve"/>
      <point x="573.1875" y="-17.8125"/>
      <point x="533.3125" y="-42.0"/>
      <point x="446.75" y="-42.0" type="curve"/>
      <point x="244.125" y="-42.0"/>
      <point x="126.75" y="79.25"/>
      <point x="126.75" y="261.9375" type="curve"/>
      <point x="126.75" y="437.125"/>
      <point x="232.0625" y="585.375"/>
      <point x="449.125" y="585.375" type="curve"/>
      <point x="586.4375" y="585.375"/>
      <point x="725.0625" y="520.25"/>
      <point x="725.0625" y="332.875" type="curve"/>
      <point x="725.0625" y="219.25"/>
      <point x="673.875" y="158.3125"/>
      <point x="620.5" y="158.3125" type="curve"/>
      <point x="593.0" y="158.3125"/>
      <point x="578.125" y="174.5625"/>
      <point x="586.875" y="225.8125" type="curve"/>
      <point x="623.1875" y="441.875" type="line" smooth="yes"/>
      <point x="624.1875" y="447.0"/>
      <point x="621.1875" y="449.0"/>
      <point x="616.0625" y="449.0" type="curve"/>
      <point x="554.4375" y="449.0" type="line" smooth="yes"/>
      <point x="549.3125" y="449.0"/>
      <point x="546.1875" y="447.4375"/>
      <point x="545.1875" y="442.875" type="curve"/>
      <point x="540.25" y="423.4375" type="line" smooth="yes"/>
      <point x="538.6875" y="417.3125"/>
      <point x="534.6875" y="416.75"/>
      <point x="532.0" y="419.875" type="curve"/>
      <point x="509.0" y="450.9375"/>
      <point x="476.6875" y="475.0"/>
      <point x="421.5625" y="475.0" type="curve"/>
      <point x="301.1875" y="475.0"/>
      <point x="221.75" y="367.375"/>
      <point x="221.75" y="243.5625" type="curve"/>
      <point x="221.1875" y="136.0"/>
      <point x="287.4375" y="67.0"/>
      <point x="369.8125" y="67.0" type="curve"/>
      <point x="430.8125" y="67.0"/>
      <point x="475.5" y="93.5"/>
      <point x="505.5" y="130.4375" type="curve"/>
      <point x="511.5" y="137.875"/>
      <point x="513.375" y="138.4375"/>
      <point x="517.625" y="130.125" type="curve"/>
      <point x="528.3125" y="103.0"/>
      <point x="555.75" y="81.0"/>
      <point x="612.1875" y="81.0" type="curve"/>
      <point x="726.5" y="81.0"/>
      <point x="808.25" y="187.0"/>
      <point x="808.25" y="338.875" type="curve"/>
      <point x="808.25" y="564.5625"/>
      <point x="627.6875" y="661.0"/>
      <point x="449.5625" y="661.0" type="curve"/>
      <point x="201.5" y="661.0"/>
      <point x="41.75" y="477.0"/>
      <point x="41.75" y="261.5625" type="curve"/>
      <point x="41.75" y="55.0"/>
      <point x="187.0" y="-113.0"/>
      <point x="431.9375" y="-113.0" type="curve"/>
      <point x="529.5" y="-113.0"/>
      <point x="610.5" y="-83.375"/>
    </contour>
    <contour>
      <point x="317.875" y="251.875" type="curve"/>
      <point x="317.875" y="251.875" type="line"/>
      <point x="317.875" y="330.6875"/>
      <point x="365.125" y="393.3125"/>
      <point x="428.0625" y="393.3125" type="curve"/>
      <point x="477.1875" y="393.3125"/>
      <point x="515.8125" y="347.9375"/>
      <point x="507.9375" y="275.5625" type="curve"/>
      <point x="501.8125" y="209.25"/>
      <point x="453.0" y="148.6875"/>
      <point x="392.25" y="148.6875" type="curve"/>
      <point x="343.4375" y="148.6875"/>
      <point x="317.875" y="192.625"/>
    </contour>
  </outline>
</glyph>
<glyph name="A" format="2">
  <advance width="755.6875"/>
  <unicode hex="0041"/>
  <anchor x="699.1875" y="9.875" name="ogonek"/>
  <anchor x="378.125" y="0.0" name="bottom"/>
  <anchor x="375.3125" y="742.0" name="top"/>
  <outline>
    <contour>
      <point x="50.4375" y="0.0" type="curve"/>
      <point x="50.4375" y="0.0" type="line"/>
      <point x="146.875" y="0.0" type="line" smooth="yes"/>
      <point x="157.375" y="0.0"/>
      <point x="163.0625" y="4.8125"/>
      <point x="165.1875" y="11.5" type="curve"/>
      <point x="224.5625" y="175.875" type="line" smooth="yes"/>
      <point x="226.5625" y="182.0"/>
      <point x="230.25" y="185.125"/>
      <point x="237.375" y="185.125" type="curve"/>
      <point x="497.5" y="185.125" type="line" smooth="yes"/>
      <point x="505.75" y="185.125"/>
      <point x="507.75" y="181.4375"/>
      <point x="510.3125" y="175.3125" type="curve"/>
      <point x="567.6875" y="13.0625" type="line" smooth="yes"/>
      <point x="570.8125" y="3.125"/>
      <point x="577.0625" y="0.0"/>
      <point x="585.75" y="0.0" type="curve"/>
      <point x="706.5" y="0.0" type="line" smooth="yes"/>
      <point x="718.0" y="0.0"/>
      <point x="721.5625" y="13.0"/>
      <point x="717.875" y="23.5" type="curve"/>
      <point x="468.25" y="722.4375" type="line" smooth="yes"/>
      <point x="464.0" y="734.5"/>
      <point x="454.0625" y="742.0"/>
      <point x="440.125" y="742.0" type="curve"/>
      <point x="314.875" y="742.0" type="line" smooth="yes"/>
      <point x="300.8125" y="742.0"/>
      <point x="295.6875" y="736.75"/>
      <point x="291.0" y="724.25" type="curve"/>
      <point x="38.9375" y="24.75" type="line" smooth="yes"/>
      <point x="33.5625" y="9.75"/>
      <point x="39.375" y="0.0"/>
    </contour>
    <contour>
      <point x="461.9375" y="298.25" type="curve"/>
      <point x="270.5" y="298.25" type="line"/>
      <point x="261.125" y="298.25"/>
      <point x="258.5625" y="303.1875"/>
      <point x="262.6875" y="313.5625" type="curve"/>
      <point x="360.4375" y="580.25" type="line" smooth="yes"/>
      <point x="363.75" y="590.3125"/>
      <point x="369.875" y="590.3125"/>
      <point x="373.75" y="580.6875" type="curve"/>
      <point x="470.0625" y="313.875" type="line" smooth="yes"/>
      <point x="473.1875" y="303.9375"/>
      <point x="471.625" y="298.25"/>
    </contour>
  </outline>
</glyph>
<glyph name="B" format="2">
  <advance width="714.9375"/>
  <unicode hex="0042"/>
  <outline>
    <contour>
      <point x="95.5625" y="0.0" type="curve"/>
      <point x="95.5625" y="0.0" type="line"/>
      <point x="364.75" y="0.0" type="line" smooth="yes"/>
      <point x="562.8125" y="0.0"/>
      <point x="665.8125" y="65.0"/>
      <point x="665.8125" y="199.8125" type="curve"/>
      <point x="665.8125" y="291.375"/>
      <point x="618.0625" y="345.875"/>
      <point x="516.8125" y="376.375" type="curve"/>
      <point x="512.5" y="377.375"/>
      <point x="512.5" y="382.8125"/>
      <point x="516.8125" y="384.25" type="curve"/>
      <point x="611.5625" y="421.9375"/>
      <point x="647.8125" y="472.625"/>
      <point x="647.8125" y="548.1875" type="curve"/>
      <point x="647.8125" y="675.0"/>
      <point x="543.5" y="742.0"/>
      <point x="354.4375" y="742.0" type="curve"/>
      <point x="97.125" y="742.0" type="line" smooth="yes"/>
      <point x="85.625" y="742.0"/>
      <point x="79.125" y="734.9375"/>
      <point x="79.125" y="723.0" type="curve"/>
      <point x="79.125" y="15.875" type="line" smooth="yes"/>
      <point x="79.125" y="6.9375"/>
      <point x="85.5" y="0.0"/>
    </contour>
    <contour>
      <point x="359.75" y="101.875" type="curve"/>
      <point x="239.5625" y="101.875" type="line"/>
      <point x="230.0625" y="101.875"/>
      <point x="226.9375" y="107.125"/>
      <point x="226.9375" y="118.625" type="curve"/>
      <point x="226.9375" y="307.1875" type="line" smooth="yes"/>
      <point x="226.9375" y="318.6875"/>
      <point x="231.625" y="322.9375"/>
      <point x="244.6875" y="322.9375" type="curve"/>
      <point x="368.6875" y="322.9375" type="line" smooth="yes"/>
      <point x="451.5" y="322.9375"/>
      <point x="512.0625" y="286.8125"/>
      <point x="512.0625" y="211.25" type="curve"/>
      <point x="512.0625" y="141.625"/>
      <point x="461.5" y="101.875"/>
    </contour>
    <contour>
      <point x="368.6875" y="427.0625" type="curve"/>
      <point x="239.5625" y="427.0625" type="line"/>
      <point x="230.0625" y="427.0625"/>
      <point x="226.9375" y="432.3125"/>
      <point x="226.9375" y="443.8125" type="curve"/>
      <point x="226.9375" y="625.375" type="line" smooth="yes"/>
      <point x="226.9375" y="636.4375"/>
      <point x="231.625" y="640.125"/>
      <point x="243.8125" y="640.125" type="curve"/>
      <point x="357.75" y="640.125" type="line" smooth="yes"/>
      <point x="443.25" y="640.125"/>
      <point x="500.8125" y="603.375"/>
      <point x="500.8125" y="531.375" type="curve"/>
      <point x="500.8125" y="456.0625"/>
      <point x="435.8125" y="427.0625"/>
    </contour>
  </outline>
</glyph>
<glyph name="C" format="2">
  <advance width="718.625"/>
  <unicode hex="0043"/>
  <anchor x="380.625" y="742.0" name="top"/>
  <anchor x="382.125" y="0.0" name="bottom"/>
  <outline>
    <contour>
      <point x="380.625" y="752.0" type="curve"/>
      <point x="380.625" y="752.0" type="line"/>
      <point x="176.75" y="752.0"/>
      <point x="51.0" y="607.75"/>
      <point x="51.0" y="375.3125" type="curve"/>
      <point x="51.0" y="142.75"/>
      <point x="176.75" y="-10.0"/>
      <point x="382.125" y="-10.0" type="curve"/>
      <point x="565.0" y="-10.0"/>
      <point x="657.125" y="120.625"/>
      <point x="678.0625" y="199.125" type="curve"/>
      <point x="680.75" y="215.5"/>
      <point x="674.125" y="219.1875"/>
      <point x="669.3125" y="220.75" type="curve"/>
      <point x="584.125" y="239.1875" type="line" smooth="yes"/>
      <point x="573.8125" y="241.3125"/>
      <point x="567.875" y="239.1875"/>
      <point x="565.75" y="233.8125" type="curve"/>
      <point x="528.5625" y="138.375"/>
      <point x="471.0" y="100.625"/>
      <point x="387.8125" y="100.625" type="curve"/>
      <point x="266.5625" y="100.625"/>
      <point x="205.875" y="186.1875"/>
      <point x="205.875" y="373.0625" type="curve"/>
      <point x="205.875" y="562.3125"/>
      <point x="271.375" y="647.0"/>
      <point x="384.875" y="647.0" type="curve"/>
      <point x="466.1875" y="647.0"/>
      <point x="515.8125" y="594.125"/>
      <point x="532.0625" y="519.9375" type="curve"/>
      <point x="534.1875" y="509.4375"/>
      <point x="535.625" y="505.75"/>
      <point x="545.8125" y="506.1875" type="curve"/>
      <point x="660.0" y="514.125" type="line" smooth="yes"/>
      <point x="670.625" y="515.25"/>
      <point x="673.3125" y="518.9375"/>
      <point x="669.5" y="536.875" type="curve"/>
      <point x="649.625" y="656.75"/>
      <point x="529.0625" y="752.0"/>
    </contour>
  </outline>
</glyph>
<glyph name="D" format="2">
  <advance width="741.25"/>
  <unicode hex="0044"/>
  <anchor x="369.0" y="371.0" name="center"/>
  <anchor x="366.375" y="742.0" name="top"/>
  <outline>
    <contour>
      <point x="98.6875" y="742.0" type="curve"/>
      <point x="98.6875" y="742.0" type="line"/>
      <point x="84.375" y="742.0"/>
      <point x="79.125" y="736.875"/>
      <point x="79.125" y="723.5625" type="curve"/>
      <point x="79.125" y="21.25" type="line" smooth="yes"/>
      <point x="79.125" y="5.8125"/>
      <point x="85.5" y="0.0"/>
      <point x="99.375" y="0.0" type="curve"/>
      <point x="291.9375" y="0.0" type="line" smooth="yes"/>
      <point x="559.75" y="0.0"/>
      <point x="690.125" y="138.625"/>
      <point x="690.125" y="375.0625" type="curve"/>
      <point x="690.125" y="600.0625"/>
      <point x="570.875" y="735.0625"/>
      <point x="298.625" y="741.0" type="curve"/>
      <point x="261.625" y="742.125"/>
      <point x="137.6875" y="742.0"/>
    </contour>
    <contour>
      <point x="236.9375" y="635.75" type="curve"/>
      <point x="236.9375" y="635.75" type="line"/>
      <point x="273.625" y="635.75" type="line" smooth="yes"/>
      <point x="452.625" y="635.75"/>
      <point x="535.25" y="565.5"/>
      <point x="535.25" y="372.6875" type="curve"/>
      <point x="535.25" y="177.8125"/>
      <point x="448.1875" y="105.8125"/>
      <point x="265.4375" y="105.8125" type="curve"/>
      <point x="239.625" y="105.8125" type="line" smooth="yes"/>
      <point x="229.9375" y="105.8125"/>
      <point x="226.9375" y="108.8125"/>
      <point x="226.9375" y="118.1875" type="curve"/>
      <point x="226.9375" y="621.75" type="line" smooth="yes"/>
      <point x="226.9375" y="631.4375"/>
      <point x="229.5" y="635.75"/>
    </contour>
  </outline>
</glyph>
<glyph name="E" format="2">
  <advance width="645.1875"/>
  <unicode hex="0045"/>
  <anchor x="583.3125" y="10.0" name="ogonek"/>
  <anchor x="348.25" y="0.0" name="bottom"/>
  <anchor x="339.9375" y="742.0" name="top"/>
  <outline>
    <contour>
      <point x="79.125" y="724.6875" type="curve"/>
      <point x="79.125" y="724.6875" type="line"/>
      <point x="79.125" y="18.4375" type="line" smooth="yes"/>
      <point x="79.125" y="5.375"/>
      <point x="83.9375" y="0.0"/>
      <point x="98.25" y="0.0" type="curve"/>
      <point x="587.3125" y="0.0" type="line" smooth="yes"/>
      <point x="599.0625" y="0.0"/>
      <point x="603.875" y="6.5"/>
      <point x="603.875" y="15.4375" type="curve"/>
      <point x="603.875" y="96.0" type="line" smooth="yes"/>
      <point x="603.875" y="106.5"/>
      <point x="598.5" y="109.75"/>
      <point x="588.0" y="109.75" type="curve"/>
      <point x="237.625" y="109.75" type="line" smooth="yes"/>
      <point x="229.5" y="109.75"/>
      <point x="226.9375" y="111.875"/>
      <point x="226.9375" y="121.5625" type="curve"/>
      <point x="226.9375" y="307.75" type="line" smooth="yes"/>
      <point x="226.9375" y="315.75"/>
      <point x="231.1875" y="319.5625"/>
      <point x="239.875" y="319.5625" type="curve"/>
      <point x="469.9375" y="319.5625" type="line" smooth="yes"/>
      <point x="479.875" y="319.5625"/>
      <point x="483.5625" y="324.5"/>
      <point x="483.5625" y="332.1875" type="curve"/>
      <point x="483.5625" y="413.3125" type="line" smooth="yes"/>
      <point x="483.5625" y="422.8125"/>
      <point x="478.75" y="427.625"/>
      <point x="468.6875" y="427.625" type="curve"/>
      <point x="241.0" y="427.625" type="line" smooth="yes"/>
      <point x="232.3125" y="427.625"/>
      <point x="226.9375" y="432.0"/>
      <point x="226.9375" y="442.5" type="curve"/>
      <point x="226.9375" y="617.625" type="line" smooth="yes"/>
      <point x="226.9375" y="628.4375"/>
      <point x="232.3125" y="632.25"/>
      <point x="243.8125" y="632.25" type="curve"/>
      <point x="573.5625" y="632.25" type="line" smooth="yes"/>
      <point x="586.3125" y="632.25"/>
      <point x="591.6875" y="638.875"/>
      <point x="591.6875" y="650.5" type="curve"/>
      <point x="592.25" y="727.125" type="line" smooth="yes"/>
      <point x="592.25" y="736.625"/>
      <point x="588.0" y="742.0"/>
      <point x="579.0625" y="742.0" type="curve"/>
      <point x="93.75" y="742.0" type="line" smooth="yes"/>
      <point x="83.9375" y="742.0"/>
      <point x="79.125" y="736.625"/>
    </contour>
  </outline>
</glyph>
<glyph name="F" format="2">
  <advance width="620.6875"/>
  <unicode hex="0046"/>
  <outline>
    <contour>
      <point x="79.125" y="724.6875" type="curve"/>
      <point x="79.125" y="724.6875" type="line"/>
      <point x="79.125" y="18.4375" type="line" smooth="yes"/>
      <point x="79.125" y="5.375"/>
      <point x="83.375" y="0.0"/>
      <point x="98.25" y="0.0" type="curve"/>
      <point x="205.3125" y="0.0" type="line" smooth="yes"/>
      <point x="220.4375" y="0.0"/>
      <point x="226.9375" y="5.375"/>
      <point x="226.9375" y="19.375" type="curve"/>
      <point x="226.9375" y="298.125" type="line" smooth="yes"/>
      <point x="226.9375" y="306.6875"/>
      <point x="231.1875" y="310.5"/>
      <point x="239.875" y="310.5" type="curve"/>
      <point x="475.4375" y="310.5" type="line" smooth="yes"/>
      <point x="485.9375" y="310.5"/>
      <point x="489.0625" y="314.875"/>
      <point x="489.0625" y="323.125" type="curve"/>
      <point x="489.0625" y="403.125" type="line" smooth="yes"/>
      <point x="489.0625" y="412.625"/>
      <point x="484.8125" y="417.4375"/>
      <point x="474.75" y="417.4375" type="curve"/>
      <point x="241.0" y="417.4375" type="line" smooth="yes"/>
      <point x="231.75" y="417.4375"/>
      <point x="226.9375" y="421.25"/>
      <point x="226.9375" y="431.75" type="curve"/>
      <point x="226.9375" y="617.625" type="line" smooth="yes"/>
      <point x="226.9375" y="628.4375"/>
      <point x="231.75" y="632.25"/>
      <point x="243.8125" y="632.25" type="curve"/>
      <point x="565.8125" y="632.25" type="line" smooth="yes"/>
      <point x="578.5625" y="632.25"/>
      <point x="583.375" y="638.875"/>
      <point x="583.375" y="650.5" type="curve"/>
      <point x="583.9375" y="727.125" type="line" smooth="yes"/>
      <point x="583.9375" y="736.625"/>
      <point x="579.6875" y="742.0"/>
      <point x="570.75" y="742.0" type="curve"/>
      <point x="93.75" y="742.0" type="line" smooth="yes"/>
      <point x="84.5" y="742.0"/>
      <point x="79.125" y="736.625"/>
    </contour>
  </outline>
</glyph>
<glyph name="G" format="2">
  <advance width="747.4375"/>
  <unicode hex="0047"/>
  <anchor x="378.5" y="742.0" name="top"/>
  <anchor x="380.6875" y="0.0" name="bottom"/>
  <outline>
    <contour>
      <point x="376.9375" y="-10.0" type="curve"/>
      <point x="376.9375" y="-10.0" type="line"/>
      <point x="491.875" y="-10.0"/>
      <point x="552.5" y="42.1875"/>
      <point x="589.8125" y="92.5" type="curve"/>
      <point x="594.375" y="98.9375"/>
      <point x="597.8125" y="98.5"/>
      <point x="599.5" y="93.625" type="curve"/>
      <point x="622.0" y="14.625" type="line" smooth="yes"/>
      <point x="627.625" y="2.8125"/>
      <point x="635.4375" y="0.0"/>
      <point x="645.6875" y="0.0" type="curve"/>
      <point x="674.5" y="0.0" type="line" smooth="yes"/>
      <point x="683.1875" y="0.0"/>
      <point x="688.4375" y="5.375"/>
      <point x="688.4375" y="14.375" type="curve"/>
      <point x="688.4375" y="355.8125" type="line" smooth="yes"/>
      <point x="688.4375" y="367.6875"/>
      <point x="680.25" y="375.875"/>
      <point x="664.4375" y="375.875" type="curve"/>
      <point x="403.6875" y="377.0" type="line" smooth="yes"/>
      <point x="393.9375" y="377.0"/>
      <point x="389.6875" y="372.1875"/>
      <point x="389.6875" y="364.8125" type="curve"/>
      <point x="389.6875" y="300.75" type="line" smooth="yes"/>
      <point x="389.6875" y="289.4375"/>
      <point x="393.9375" y="285.75"/>
      <point x="404.0" y="285.75" type="curve"/>
      <point x="539.5625" y="285.75" type="line" smooth="yes"/>
      <point x="547.8125" y="285.75"/>
      <point x="551.6875" y="281.9375"/>
      <point x="549.4375" y="272.6875" type="curve"/>
      <point x="547.75" y="233.0625" type="line" smooth="yes"/>
      <point x="537.625" y="166.0625"/>
      <point x="487.0" y="96.125"/>
      <point x="386.375" y="96.125" type="curve"/>
      <point x="272.3125" y="96.125"/>
      <point x="205.875" y="175.5"/>
      <point x="205.875" y="374.0" type="curve"/>
      <point x="205.875" y="561.5"/>
      <point x="269.8125" y="646.4375"/>
      <point x="381.875" y="646.4375" type="curve"/>
      <point x="468.75" y="646.4375"/>
      <point x="525.625" y="587.6875"/>
      <point x="538.25" y="517.8125" type="curve"/>
      <point x="540.375" y="508.3125"/>
      <point x="542.25" y="503.5"/>
      <point x="552.5625" y="503.9375" type="curve"/>
      <point x="664.0625" y="521.1875" type="line" smooth="yes"/>
      <point x="675.25" y="522.75"/>
      <point x="677.5" y="526.875"/>
      <point x="674.125" y="544.375" type="curve"/>
      <point x="655.375" y="650.0625"/>
      <point x="539.75" y="752.0"/>
      <point x="384.6875" y="752.0" type="curve"/>
      <point x="185.125" y="752.0"/>
      <point x="51.0" y="605.5625"/>
      <point x="51.0" y="368.0" type="curve"/>
      <point x="51.0" y="138.0"/>
      <point x="177.3125" y="-10.0"/>
    </contour>
  </outline>
</glyph>
<glyph name="H" format="2">
  <advance width="745.8125"/>
  <unicode hex="0048"/>
  <anchor x="372.5625" y="742.0" name="top"/>
  <anchor x="371.4375" y="0.0" name="bottom"/>
  <outline>
    <contour>
      <point x="238.5625" y="327.1875" type="curve"/>
      <point x="506.8125" y="327.1875" type="line"/>
      <point x="514.625" y="327.1875"/>
      <point x="518.875" y="322.375"/>
      <point x="518.875" y="315.6875" type="curve"/>
      <point x="518.875" y="20.25" type="line" smooth="yes"/>
      <point x="518.875" y="5.375"/>
      <point x="525.8125" y="0.0"/>
      <point x="541.8125" y="0.0" type="curve"/>
      <point x="647.5625" y="0.0" type="line" smooth="yes"/>
      <point x="662.0" y="0.0"/>
      <point x="666.6875" y="5.8125"/>
      <point x="666.6875" y="18.4375" type="curve"/>
      <point x="666.6875" y="724.6875" type="line" smooth="yes"/>
      <point x="666.6875" y="736.625"/>
      <point x="661.3125" y="742.0"/>
      <point x="652.0625" y="742.0" type="curve"/>
      <point x="532.5" y="742.0" type="line" smooth="yes"/>
      <point x="523.6875" y="742.0"/>
      <point x="518.875" y="736.1875"/>
      <point x="518.875" y="726.25" type="curve"/>
      <point x="518.875" y="456.1875" type="line" smooth="yes"/>
      <point x="518.875" y="446.25"/>
      <point x="514.0625" y="441.4375"/>
      <point x="505.25" y="441.4375" type="curve"/>
      <point x="241.0" y="441.4375" type="line" smooth="yes"/>
      <point x="231.75" y="441.4375"/>
      <point x="226.9375" y="445.8125"/>
      <point x="226.9375" y="456.625" type="curve"/>
      <point x="226.9375" y="725.8125" type="line" smooth="yes"/>
      <point x="226.9375" y="736.625"/>
      <point x="222.125" y="742.0"/>
      <point x="212.875" y="742.0" type="curve"/>
      <point x="93.75" y="742.0" type="line" smooth="yes"/>
      <point x="84.5" y="742.0"/>
      <point x="79.125" y="736.625"/>
      <point x="79.125" y="724.6875" type="curve"/>
      <point x="79.125" y="18.4375" type="line" smooth="yes"/>
      <point x="79.125" y="5.8125"/>
      <point x="83.375" y="0.0"/>
      <point x="98.25" y="0.0" type="curve"/>
      <point x="204.0" y="0.0" type="line" smooth="yes"/>
      <point x="220.0" y="0.0"/>
      <point x="226.9375" y="5.8125"/>
      <point x="226.9375" y="20.25" type="curve"/>
      <point x="226.9375" y="316.125" type="line" smooth="yes"/>
      <point x="226.9375" y="321.9375"/>
      <point x="231.1875" y="327.1875"/>
    </contour>
  </outline>
</glyph>
<glyph name="I" format="2">
  <advance width="306.0625"/>
  <unicode hex="0049"/>
  <anchor x="204.125" y="10.0" name="ogonek"/>
  <anchor x="152.75" y="0.0" name="bottom"/>
  <anchor x="154.625" y="742.0" name="top"/>
  <outline>
    <contour>
      <point x="212.875" y="742.0" type="curve"/>
      <point x="93.75" y="742.0" type="line"/>
      <point x="84.5" y="742.0"/>
      <point x="79.125" y="736.625"/>
      <point x="79.125" y="724.6875" type="curve"/>
      <point x="79.125" y="18.4375" type="line" smooth="yes"/>
      <point x="79.125" y="5.375"/>
      <point x="83.375" y="0.0"/>
      <point x="99.125" y="0.0" type="curve"/>
      <point x="203.125" y="0.0" type="line" smooth="yes"/>
      <point x="220.4375" y="0.0"/>
      <point x="226.9375" y="5.375"/>
      <point x="226.9375" y="21.5625" type="curve"/>
      <point x="226.9375" y="725.8125" type="line" smooth="yes"/>
      <point x="226.9375" y="736.625"/>
      <point x="222.6875" y="742.0"/>
    </contour>
  </outline>
</glyph>
<glyph name="J" format="2">
  <advance width="437.25"/>
  <unicode hex="004A"/>
  <anchor x="253.0625" y="742.0" name="top"/>
  <outline>
    <contour>
      <point x="362.6875" y="182.25" type="curve"/>
      <point x="362.6875" y="182.25" type="line"/>
      <point x="362.6875" y="725.8125" type="line" smooth="yes"/>
      <point x="362.6875" y="736.1875"/>
      <point x="358.4375" y="742.0"/>
      <point x="349.0625" y="742.0" type="curve"/>
      <point x="229.625" y="742.0" type="line" smooth="yes"/>
      <point x="220.25" y="742.0"/>
      <point x="214.875" y="736.1875"/>
      <point x="214.875" y="725.125" type="curve"/>
      <point x="214.875" y="218.125" type="line" smooth="yes"/>
      <point x="214.875" y="139.1875"/>
      <point x="188.9375" y="113.3125"/>
      <point x="132.9375" y="113.3125" type="curve"/>
      <point x="99.125" y="113.3125"/>
      <point x="79.9375" y="122.6875"/>
      <point x="61.75" y="128.1875" type="curve"/>
      <point x="51.0" y="130.1875"/>
      <point x="45.75" y="124.125"/>
      <point x="44.75" y="113.5" type="curve"/>
      <point x="35.75" y="35.8125" type="line" smooth="yes"/>
      <point x="34.1875" y="18.3125"/>
      <point x="40.6875" y="10.8125"/>
      <point x="54.9375" y="7.6875" type="curve"/>
      <point x="83.3125" y="1.0"/>
      <point x="124.375" y="-10.0"/>
      <point x="171.5" y="-10.0" type="curve"/>
      <point x="301.6875" y="-10.0"/>
      <point x="362.6875" y="48.4375"/>
    </contour>
  </outline>
</glyph>
<glyph name="K" format="2">
  <advance width="729.125"/>
  <unicode hex="004B"/>
  <anchor x="371.875" y="742.0" name="top"/>
  <anchor x="358.75" y="0.0" name="bottom"/>
  <outline>
    <contour>
      <point x="691.625" y="20.5" type="curve"/>
      <point x="691.625" y="20.5" type="line"/>
      <point x="446.5" y="464.6875" type="line" smooth="yes"/>
      <point x="442.25" y="474.3125"/>
      <point x="442.8125" y="478.25"/>
      <point x="448.1875" y="485.3125" type="curve"/>
      <point x="653.75" y="722.1875" type="line" smooth="yes"/>
      <point x="662.8125" y="732.375"/>
      <point x="655.625" y="742.0"/>
      <point x="640.625" y="742.0" type="curve"/>
      <point x="538.5" y="742.0" type="line" smooth="yes"/>
      <point x="522.375" y="742.0"/>
      <point x="517.0" y="738.1875"/>
      <point x="509.5" y="728.4375" type="curve"/>
      <point x="238.4375" y="401.3125" type="line" smooth="yes"/>
      <point x="231.75" y="393.5"/>
      <point x="226.9375" y="392.9375"/>
      <point x="226.9375" y="404.5625" type="curve"/>
      <point x="226.9375" y="726.6875" type="line" smooth="yes"/>
      <point x="226.9375" y="736.625"/>
      <point x="222.25" y="742.0"/>
      <point x="213.3125" y="742.0" type="curve"/>
      <point x="93.3125" y="742.0" type="line" smooth="yes"/>
      <point x="84.5" y="742.0"/>
      <point x="79.125" y="736.1875"/>
      <point x="79.125" y="725.5625" type="curve"/>
      <point x="79.125" y="18.0" type="line" smooth="yes"/>
      <point x="79.125" y="5.375"/>
      <point x="83.8125" y="0.0"/>
      <point x="98.6875" y="0.0" type="curve"/>
      <point x="204.0" y="0.0" type="line" smooth="yes"/>
      <point x="220.0" y="0.0"/>
      <point x="226.9375" y="5.8125"/>
      <point x="226.9375" y="20.25" type="curve"/>
      <point x="226.9375" y="208.875" type="line" smooth="yes"/>
      <point x="226.9375" y="218.0"/>
      <point x="228.375" y="222.6875"/>
      <point x="233.8125" y="228.6875" type="curve"/>
      <point x="331.5" y="343.75" type="line" smooth="yes"/>
      <point x="339.3125" y="353.25"/>
      <point x="344.0" y="354.8125"/>
      <point x="349.125" y="346.5625" type="curve"/>
      <point x="530.625" y="13.4375" type="line" smooth="yes"/>
      <point x="535.4375" y="3.6875"/>
      <point x="543.9375" y="0.0"/>
      <point x="555.6875" y="0.0" type="curve"/>
      <point x="682.4375" y="0.0" type="line" smooth="yes"/>
      <point x="695.4375" y="0.0"/>
      <point x="697.4375" y="9.75"/>
    </contour>
  </outline>
</glyph>
<glyph name="L" format="2">
  <advance width="618.5"/>
  <unicode hex="004C"/>
  <anchor x="154.4375" y="742.0" name="top"/>
  <anchor x="316.1875" y="0.0" name="bottom"/>
  <anchor x="471.9375" y="742.0" name="topright"/>
  <outline>
    <contour>
      <point x="79.125" y="724.6875" type="curve"/>
      <point x="79.125" y="724.6875" type="line"/>
      <point x="79.125" y="18.4375" type="line" smooth="yes"/>
      <point x="79.125" y="5.8125"/>
      <point x="83.375" y="0.0"/>
      <point x="98.25" y="0.0" type="curve"/>
      <point x="565.0625" y="0.0" type="line"/>
      <point x="576.8125" y="0.0"/>
      <point x="582.1875" y="6.5"/>
      <point x="582.1875" y="15.4375" type="curve"/>
      <point x="582.1875" y="96.0" type="line" smooth="yes"/>
      <point x="582.1875" y="106.5"/>
      <point x="576.25" y="109.75"/>
      <point x="565.75" y="109.75" type="curve"/>
      <point x="237.625" y="109.75" type="line" smooth="yes"/>
      <point x="229.5" y="109.75"/>
      <point x="226.9375" y="111.875"/>
      <point x="226.9375" y="121.5625" type="curve"/>
      <point x="226.9375" y="725.8125" type="line" smooth="yes"/>
      <point x="226.9375" y="736.625"/>
      <point x="222.6875" y="742.0"/>
      <point x="212.875" y="742.0" type="curve"/>
      <point x="93.75" y="742.0" type="line" smooth="yes"/>
      <point x="84.5" y="742.0"/>
      <point x="79.125" y="736.625"/>
    </contour>
  </outline>
</glyph>
<glyph name="M" format="2">
  <advance width="934.125"/>
  <unicode hex="004D"/>
  <outline>
    <contour>
      <point x="97.6875" y="0.0" type="curve"/>
      <point x="97.6875" y="0.0" type="line"/>
      <point x="183.4375" y="0.0" type="line" smooth="yes"/>
      <point x="196.625" y="0.0"/>
      <point x="200.1875" y="3.5625"/>
      <point x="200.1875" y="16.3125" type="curve"/>
      <point x="200.1875" y="533.125" type="line" smooth="yes"/>
      <point x="200.1875" y="542.1875"/>
      <point x="205.0" y="544.0"/>
      <point x="208.25" y="533.6875" type="curve"/>
      <point x="396.0" y="14.5" type="line" smooth="yes"/>
      <point x="399.5625" y="4.6875"/>
      <point x="406.25" y="0.0"/>
      <point x="417.8125" y="0.0" type="curve"/>
      <point x="488.6875" y="0.0" type="line" smooth="yes"/>
      <point x="498.8125" y="0.0"/>
      <point x="505.625" y="5.25"/>
      <point x="509.1875" y="14.9375" type="curve"/>
      <point x="699.125" y="540.375" type="line" smooth="yes"/>
      <point x="701.8125" y="548.4375"/>
      <point x="707.1875" y="549.3125"/>
      <point x="707.1875" y="540.9375" type="curve"/>
      <point x="707.1875" y="18.0" type="line" smooth="yes"/>
      <point x="707.1875" y="5.375"/>
      <point x="711.875" y="0.0"/>
      <point x="726.1875" y="0.0" type="curve"/>
      <point x="833.0625" y="0.0" type="line" smooth="yes"/>
      <point x="848.625" y="0.0"/>
      <point x="855.0" y="5.8125"/>
      <point x="855.0" y="20.6875" type="curve"/>
      <point x="855.0" y="725.8125" type="line" smooth="yes"/>
      <point x="855.0" y="736.625"/>
      <point x="850.75" y="742.0"/>
      <point x="840.9375" y="742.0" type="curve"/>
      <point x="665.6875" y="742.0" type="line" smooth="yes"/>
      <point x="655.1875" y="742.0"/>
      <point x="649.375" y="734.9375"/>
      <point x="645.6875" y="722.625" type="curve"/>
      <point x="474.8125" y="256.8125" type="line" smooth="yes"/>
      <point x="470.5" y="245.625"/>
      <point x="464.9375" y="244.5"/>
      <point x="460.5" y="256.375" type="curve"/>
      <point x="285.1875" y="728.375" type="line"/>
      <point x="281.5" y="738.875"/>
      <point x="276.8125" y="742.0"/>
      <point x="263.75" y="742.0" type="curve"/>
      <point x="94.875" y="742.0" type="line" smooth="yes"/>
      <point x="83.375" y="742.0"/>
      <point x="79.125" y="737.1875"/>
      <point x="79.125" y="724.6875" type="curve"/>
      <point x="79.125" y="20.125" type="line" smooth="yes"/>
      <point x="79.125" y="7.5"/>
      <point x="85.625" y="0.0"/>
    </contour>
  </outline>
</glyph>
<glyph name="N" format="2">
  <advance width="758.375"/>
  <unicode hex="004E"/>
  <anchor x="386.6875" y="742.0" name="top"/>
  <anchor x="371.375" y="0.0" name="bottom"/>
  <outline>
    <contour>
      <point x="666.875" y="742.0" type="curve"/>
      <point x="573.5" y="742.0" type="line"/>
      <point x="562.4375" y="742.0"/>
      <point x="557.625" y="736.1875"/>
      <point x="557.625" y="726.25" type="curve"/>
      <point x="557.625" y="268.4375" type="line" smooth="yes"/>
      <point x="557.625" y="256.8125"/>
      <point x="550.625" y="254.1875"/>
      <point x="542.5" y="265.3125" type="curve"/>
      <point x="220.6875" y="728.8125" type="line" smooth="yes"/>
      <point x="212.75" y="739.875"/>
      <point x="208.0625" y="742.0"/>
      <point x="195.0" y="742.0" type="curve"/>
      <point x="95.4375" y="742.0" type="line"/>
      <point x="83.9375" y="742.0"/>
      <point x="79.125" y="737.1875"/>
      <point x="79.125" y="724.6875" type="curve"/>
      <point x="79.125" y="15.625" type="line" smooth="yes"/>
      <point x="79.125" y="4.125"/>
      <point x="85.625" y="0.0"/>
      <point x="97.125" y="0.0" type="curve"/>
      <point x="184.5625" y="0.0" type="line" smooth="yes"/>
      <point x="197.75" y="0.0"/>
      <point x="203.0" y="4.6875"/>
      <point x="202.4375" y="16.3125" type="curve"/>
      <point x="202.4375" y="495.8125" type="line" smooth="yes"/>
      <point x="202.4375" y="503.25"/>
      <point x="207.4375" y="505.25"/>
      <point x="213.3125" y="496.9375" type="curve"/>
      <point x="555.25" y="11.0625" type="line" smooth="yes"/>
      <point x="563.0625" y="0.6875"/>
      <point x="569.0625" y="0.0"/>
      <point x="578.75" y="0.0" type="curve"/>
      <point x="662.375" y="0.0" type="line" smooth="yes"/>
      <point x="672.3125" y="0.0"/>
      <point x="679.25" y="5.25"/>
      <point x="679.25" y="14.5" type="curve"/>
      <point x="679.25" y="728.0625" type="line" smooth="yes"/>
      <point x="679.25" y="737.75"/>
      <point x="675.5625" y="742.0"/>
    </contour>
  </outline>
</glyph>
<glyph name="O" format="2">
  <advance width="770.375"/>
  <unicode hex="004F"/>
  <guideline x="-592.875" y="431.0" angle="90.0"/>
  <anchor x="385.1875" y="371.0" name="center"/>
  <anchor x="469.0" y="9.5625" name="ogonek"/>
  <anchor x="386.0625" y="742.0" name="top"/>
  <anchor x="553.5625" y="742.0" name="topright"/>
  <anchor x="20.0" y="742.0" name="topleft"/>
  <anchor x="387.1875" y="0.0" name="bottom"/>
  <outline>
    <contour>
      <point x="385.75" y="-10.0" type="curve"/>
      <point x="385.75" y="-10.0" type="line"/>
      <point x="590.625" y="-10.0"/>
      <point x="718.8125" y="131.5625"/>
      <point x="718.8125" y="369.0" type="curve"/>
      <point x="718.8125" y="608.4375"/>
      <point x="588.9375" y="752.0"/>
      <point x="386.1875" y="752.0" type="curve"/>
      <point x="181.875" y="752.0"/>
      <point x="51.5625" y="608.0"/>
      <point x="51.5625" y="368.125" type="curve"/>
      <point x="51.5625" y="130.5625"/>
      <point x="178.75" y="-10.0"/>
    </contour>
    <contour>
      <point x="386.625" y="96.125" type="curve"/>
      <point x="386.625" y="96.125" type="line"/>
      <point x="263.9375" y="96.125"/>
      <point x="206.4375" y="178.4375"/>
      <point x="206.4375" y="367.3125" type="curve"/>
      <point x="206.4375" y="559.875"/>
      <point x="265.0625" y="647.0"/>
      <point x="386.1875" y="647.0" type="curve"/>
      <point x="505.75" y="647.0"/>
      <point x="563.9375" y="560.3125"/>
      <point x="563.9375" y="367.3125" type="curve"/>
      <point x="563.9375" y="178.0"/>
      <point x="507.75" y="96.125"/>
    </contour>
  </outline>
</glyph>
<glyph name="P" format="2">
  <advance width="706.0625"/>
  <unicode hex="0050"/>
  <outline>
    <contour>
      <point x="662.75" y="515.875" type="curve"/>
      <point x="662.75" y="515.875" type="line"/>
      <point x="662.75" y="671.625"/>
      <point x="537.125" y="742.0"/>
      <point x="377.0625" y="742.0" type="curve"/>
      <point x="93.75" y="742.0" type="line" smooth="yes"/>
      <point x="83.9375" y="742.0"/>
      <point x="79.125" y="736.625"/>
      <point x="79.125" y="724.6875" type="curve"/>
      <point x="79.125" y="17.5625" type="line" smooth="yes"/>
      <point x="79.125" y="5.8125"/>
      <point x="83.8125" y="0.0"/>
      <point x="97.25" y="0.0" type="curve"/>
      <point x="204.875" y="0.0" type="line" smooth="yes"/>
      <point x="220.0" y="0.0"/>
      <point x="226.9375" y="5.8125"/>
      <point x="226.9375" y="20.25" type="curve"/>
      <point x="226.9375" y="282.5625" type="line" smooth="yes"/>
      <point x="226.9375" y="289.125"/>
      <point x="229.5" y="292.6875"/>
      <point x="237.1875" y="292.6875" type="curve"/>
      <point x="394.3125" y="292.6875" type="line" smooth="yes"/>
      <point x="552.0625" y="292.6875"/>
      <point x="662.75" y="369.0"/>
    </contour>
    <contour>
      <point x="511.25" y="518.875" type="curve"/>
      <point x="511.25" y="518.875" type="line"/>
      <point x="511.25" y="440.875"/>
      <point x="458.1875" y="400.1875"/>
      <point x="375.1875" y="400.1875" type="curve"/>
      <point x="239.5625" y="400.1875" type="line" smooth="yes"/>
      <point x="230.0625" y="400.1875"/>
      <point x="226.9375" y="405.4375"/>
      <point x="226.9375" y="416.9375" type="curve"/>
      <point x="226.9375" y="619.1875" type="line" smooth="yes"/>
      <point x="226.9375" y="630.25"/>
      <point x="231.625" y="634.5"/>
      <point x="243.8125" y="634.5" type="curve"/>
      <point x="368.75" y="634.5" type="line" smooth="yes"/>
      <point x="453.6875" y="634.5"/>
      <point x="511.25" y="600.125"/>
    </contour>
  </outline>
</glyph>
<glyph name="Q" format="2">
  <advance width="771.5"/>
  <unicode hex="0051"/>
  <outline>
    <contour>
      <point x="51.5625" y="369.0" type="curve"/>
      <point x="51.5625" y="369.0" type="line"/>
      <point x="51.5625" y="128.375"/>
      <point x="180.9375" y="-10.0"/>
      <point x="385.75" y="-10.0" type="curve"/>
      <point x="411.75" y="-10.0"/>
      <point x="436.6875" y="-8.125"/>
      <point x="461.125" y="-3.8125" type="curve"/>
      <point x="468.125" y="-2.375"/>
      <point x="473.125" y="-3.8125"/>
      <point x="476.125" y="-7.8125" type="curve"/>
      <point x="536.625" y="-89.25"/>
      <point x="606.0" y="-125.375"/>
      <point x="681.5" y="-125.375" type="curve"/>
      <point x="705.625" y="-125.375"/>
      <point x="715.0" y="-121.125"/>
      <point x="715.0" y="-102.25" type="curve"/>
      <point x="715.0" y="-30.75" type="line" smooth="yes"/>
      <point x="715.0" y="-25.5"/>
      <point x="712.875" y="-19.6875"/>
      <point x="702.375" y="-18.125" type="curve"/>
      <point x="645.375" y="-10.375"/>
      <point x="589.625" y="29.5"/>
      <point x="589.625" y="50.875" type="curve"/>
      <point x="589.625" y="54.875"/>
      <point x="590.0625" y="56.875"/>
      <point x="593.375" y="59.3125" type="curve"/>
      <point x="673.5" y="121.8125"/>
      <point x="719.375" y="222.75"/>
      <point x="719.375" y="369.0" type="curve"/>
      <point x="719.375" y="609.3125"/>
      <point x="589.5" y="752.0"/>
      <point x="385.75" y="752.0" type="curve"/>
      <point x="181.4375" y="752.0"/>
      <point x="51.5625" y="609.3125"/>
    </contour>
    <contour>
      <point x="206.4375" y="367.0" type="curve"/>
      <point x="206.4375" y="367.0" type="line"/>
      <point x="206.4375" y="558.25"/>
      <point x="263.75" y="647.0"/>
      <point x="385.75" y="647.0" type="curve"/>
      <point x="507.1875" y="647.0"/>
      <point x="564.5" y="558.25"/>
      <point x="564.5" y="367.875" type="curve"/>
      <point x="564.5" y="177.5625"/>
      <point x="507.0" y="96.125"/>
      <point x="385.75" y="96.125" type="curve"/>
      <point x="263.9375" y="96.125"/>
      <point x="206.4375" y="177.5625"/>
    </contour>
  </outline>
</glyph>
<glyph name="R" format="2">
  <advance width="712.75"/>
  <unicode hex="0052"/>
  <anchor x="347.5" y="742.0" name="top"/>
  <anchor x="356.1875" y="0.0" name="bottom"/>
  <outline>
    <contour>
      <point x="656.375" y="24.125" type="curve"/>
      <point x="656.375" y="24.125" type="line"/>
      <point x="521.625" y="332.5625" type="line"/>
      <point x="519.5" y="338.375"/>
      <point x="519.9375" y="344.1875"/>
      <point x="525.625" y="346.3125" type="curve"/>
      <point x="598.5625" y="370.5"/>
      <point x="665.8125" y="435.5625"/>
      <point x="665.8125" y="542.25" type="curve"/>
      <point x="665.8125" y="671.0"/>
      <point x="566.0625" y="742.0"/>
      <point x="394.5" y="742.0" type="curve"/>
      <point x="93.75" y="742.0" type="line" smooth="yes"/>
      <point x="83.9375" y="742.0"/>
      <point x="79.125" y="736.625"/>
      <point x="79.125" y="724.6875" type="curve"/>
      <point x="79.125" y="18.0" type="line" smooth="yes"/>
      <point x="79.125" y="5.8125"/>
      <point x="83.375" y="0.0"/>
      <point x="98.125" y="0.0" type="curve"/>
      <point x="204.0" y="0.0" type="line" smooth="yes"/>
      <point x="220.4375" y="0.0"/>
      <point x="226.9375" y="5.8125"/>
      <point x="226.9375" y="21.125" type="curve"/>
      <point x="226.9375" y="310.25" type="line" smooth="yes"/>
      <point x="226.9375" y="315.0"/>
      <point x="229.9375" y="321.25"/>
      <point x="238.9375" y="321.25" type="curve"/>
      <point x="359.3125" y="321.25" type="line" smooth="yes"/>
      <point x="375.6875" y="321.25"/>
      <point x="382.375" y="317.125"/>
      <point x="385.9375" y="307.875" type="curve"/>
      <point x="500.9375" y="15.75" type="line" smooth="yes"/>
      <point x="504.5" y="5.25"/>
      <point x="510.4375" y="0.0"/>
      <point x="521.375" y="0.0" type="curve"/>
      <point x="642.75" y="0.0" type="line" smooth="yes"/>
      <point x="654.8125" y="0.0"/>
      <point x="661.625" y="11.5"/>
    </contour>
    <contour>
      <point x="374.125" y="422.5625" type="curve"/>
      <point x="374.125" y="422.5625" type="line"/>
      <point x="239.5625" y="422.5625" type="line" smooth="yes"/>
      <point x="230.0625" y="422.5625"/>
      <point x="226.9375" y="427.25"/>
      <point x="226.9375" y="438.3125" type="curve"/>
      <point x="226.9375" y="626.5" type="line" smooth="yes"/>
      <point x="226.9375" y="637.5625"/>
      <point x="231.625" y="641.25"/>
      <point x="244.6875" y="641.25" type="curve"/>
      <point x="385.625" y="641.25" type="line" smooth="yes"/>
      <point x="463.875" y="641.25"/>
      <point x="512.625" y="604.625"/>
      <point x="512.625" y="531.3125" type="curve"/>
      <point x="512.625" y="458.125"/>
      <point x="465.375" y="422.5625"/>
    </contour>
  </outline>
</glyph>
<glyph name="S" format="2">
  <advance width="664.6875"/>
  <unicode hex="0053"/>
  <anchor x="339.25" y="742.0" name="top"/>
  <anchor x="341.0" y="0.0" name="bottom"/>
  <outline>
    <contour>
      <point x="496.625" y="579.75" type="curve"/>
      <point x="496.625" y="579.75" type="line"/>
      <point x="507.125" y="568.8125"/>
      <point x="511.375" y="567.375"/>
      <point x="519.1875" y="573.0625" type="curve"/>
      <point x="590.125" y="626.25" type="line" smooth="yes"/>
      <point x="600.0625" y="634.0625"/>
      <point x="595.25" y="642.4375"/>
      <point x="590.125" y="649.25" type="curve"/>
      <point x="539.3125" y="712.0625"/>
      <point x="446.4375" y="752.0"/>
      <point x="338.8125" y="752.0" type="curve"/>
      <point x="172.5625" y="752.0"/>
      <point x="64.0625" y="660.75"/>
      <point x="64.0625" y="532.9375" type="curve"/>
      <point x="64.0625" y="445.875"/>
      <point x="119.9375" y="365.875"/>
      <point x="234.6875" y="331.0625" type="curve"/>
      <point x="386.25" y="284.875" type="line" smooth="yes"/>
      <point x="458.125" y="260.875"/>
      <point x="479.4375" y="231.6875"/>
      <point x="479.4375" y="192.375" type="curve"/>
      <point x="479.4375" y="124.75"/>
      <point x="417.875" y="95.0"/>
      <point x="324.75" y="95.0" type="curve"/>
      <point x="233.5" y="95.0"/>
      <point x="190.5625" y="124.125"/>
      <point x="141.3125" y="187.6875" type="curve"/>
      <point x="134.625" y="195.9375"/>
      <point x="125.6875" y="198.625"/>
      <point x="111.1875" y="188.8125" type="curve"/>
      <point x="48.4375" y="145.375" type="line" smooth="yes"/>
      <point x="36.1875" y="136.125"/>
      <point x="35.75" y="129.0"/>
      <point x="42.4375" y="118.0625" type="curve"/>
      <point x="94.6875" y="36.875"/>
      <point x="203.625" y="-10.0"/>
      <point x="334.3125" y="-10.0" type="curve"/>
      <point x="511.1875" y="-10.0"/>
      <point x="621.0625" y="74.625"/>
      <point x="621.0625" y="211.25" type="curve"/>
      <point x="621.0625" y="305.9375"/>
      <point x="569.625" y="379.4375"/>
      <point x="447.6875" y="415.6875" type="curve"/>
      <point x="293.9375" y="461.75" type="line" smooth="yes"/>
      <point x="219.0" y="485.5625"/>
      <point x="204.5625" y="523.625"/>
      <point x="204.5625" y="550.8125" type="curve"/>
      <point x="204.5625" y="608.1875"/>
      <point x="252.125" y="646.4375"/>
      <point x="342.0" y="646.4375" type="curve"/>
      <point x="422.625" y="646.4375"/>
      <point x="465.625" y="614.9375"/>
    </contour>
  </outline>
</glyph>
<glyph name="T" format="2">
  <advance width="668.5625"/>
  <unicode hex="0054"/>
  <anchor x="339.3125" y="742.0" name="top"/>
  <anchor x="339.3125" y="0.0" name="bottom"/>
  <outline>
    <contour>
      <point x="36.3125" y="726.0" type="curve"/>
      <point x="36.3125" y="647.6875" type="line"/>
      <point x="36.3125" y="637.1875"/>
      <point x="42.25" y="633.9375"/>
      <point x="52.75" y="633.9375" type="curve"/>
      <point x="254.125" y="633.9375" type="line" smooth="yes"/>
      <point x="262.125" y="633.9375"/>
      <point x="264.6875" y="631.25"/>
      <point x="264.6875" y="622.125" type="curve"/>
      <point x="264.6875" y="15.625" type="line" smooth="yes"/>
      <point x="264.6875" y="4.8125"/>
      <point x="269.5" y="0.0"/>
      <point x="279.1875" y="0.0" type="curve"/>
      <point x="397.875" y="0.0" type="line" smooth="yes"/>
      <point x="407.125" y="0.0"/>
      <point x="412.5" y="4.8125"/>
      <point x="412.5" y="16.75" type="curve"/>
      <point x="412.5" y="624.375" type="line" smooth="yes"/>
      <point x="412.5" y="631.8125"/>
      <point x="415.625" y="633.9375"/>
      <point x="423.625" y="633.9375" type="curve"/>
      <point x="616.375" y="633.9375" type="line" smooth="yes"/>
      <point x="626.3125" y="633.9375"/>
      <point x="632.25" y="637.1875"/>
      <point x="632.25" y="647.6875" type="curve"/>
      <point x="632.25" y="726.0" type="line" smooth="yes"/>
      <point x="632.25" y="735.5"/>
      <point x="626.875" y="742.0"/>
      <point x="615.125" y="742.0" type="curve"/>
      <point x="53.4375" y="742.0" type="line" smooth="yes"/>
      <point x="41.6875" y="742.0"/>
      <point x="36.3125" y="735.5"/>
    </contour>
  </outline>
</glyph>
<glyph name="U" format="2">
  <advance width="716.625"/>
  <unicode hex="0055"/>
  <anchor x="452.8125" y="9.5625" name="ogonek"/>
  <anchor x="369.625" y="742.0" name="top"/>
  <anchor x="674.75" y="742.0" name="topright"/>
  <anchor x="358.3125" y="0.0" name="bottom"/>
  <outline>
    <contour>
      <point x="646.375" y="265.4375" type="curve"/>
      <point x="646.375" y="265.4375" type="line"/>
      <point x="646.375" y="726.25" type="line" smooth="yes"/>
      <point x="646.375" y="736.1875"/>
      <point x="642.125" y="742.0"/>
      <point x="632.75" y="742.0" type="curve"/>
      <point x="537.875" y="742.0" type="line" smooth="yes"/>
      <point x="528.5" y="742.0"/>
      <point x="523.6875" y="736.1875"/>
      <point x="523.6875" y="725.125" type="curve"/>
      <point x="523.6875" y="264.4375" type="line" smooth="yes"/>
      <point x="523.6875" y="144.25"/>
      <point x="464.0" y="97.8125"/>
      <point x="368.75" y="97.8125" type="curve"/>
      <point x="271.0" y="97.8125"/>
      <point x="218.0625" y="147.1875"/>
      <point x="218.0625" y="261.4375" type="curve"/>
      <point x="218.0625" y="725.8125" type="line" smooth="yes"/>
      <point x="218.0625" y="736.625"/>
      <point x="213.8125" y="742.0"/>
      <point x="203.5625" y="742.0" type="curve"/>
      <point x="84.4375" y="742.0" type="line" smooth="yes"/>
      <point x="75.625" y="742.0"/>
      <point x="70.25" y="736.1875"/>
      <point x="70.25" y="724.25" type="curve"/>
      <point x="70.25" y="283.25" type="line" smooth="yes"/>
      <point x="70.25" y="89.5625"/>
      <point x="150.375" y="-10.0"/>
      <point x="358.3125" y="-10.0" type="curve"/>
      <point x="538.375" y="-10.0"/>
      <point x="646.375" y="65.0625"/>
    </contour>
  </outline>
</glyph>
<glyph name="V" format="2">
  <advance width="724.3125"/>
  <unicode hex="0056"/>
  <outline>
    <contour>
      <point x="673.3125" y="742.0" type="curve"/>
      <point x="673.3125" y="742.0" type="line"/>
      <point x="578.5625" y="742.0" type="line" smooth="yes"/>
      <point x="569.1875" y="742.0"/>
      <point x="561.6875" y="736.625"/>
      <point x="559.125" y="727.125" type="curve"/>
      <point x="382.0625" y="187.625" type="line" smooth="yes"/>
      <point x="378.1875" y="175.875"/>
      <point x="373.3125" y="175.875"/>
      <point x="369.4375" y="186.625" type="curve"/>
      <point x="190.375" y="726.6875" type="line" smooth="yes"/>
      <point x="187.25" y="736.625"/>
      <point x="180.875" y="742.0"/>
      <point x="170.625" y="742.0" type="curve"/>
      <point x="52.0" y="742.0" type="line" smooth="yes"/>
      <point x="39.9375" y="742.0"/>
      <point x="33.5625" y="732.375"/>
      <point x="37.8125" y="721.3125" type="curve"/>
      <point x="279.875" y="18.4375" type="line" smooth="yes"/>
      <point x="283.5625" y="5.8125"/>
      <point x="292.9375" y="0.0"/>
      <point x="309.0" y="0.0" type="curve"/>
      <point x="414.125" y="0.0" type="line" smooth="yes"/>
      <point x="429.3125" y="0.0"/>
      <point x="437.8125" y="5.8125"/>
      <point x="441.9375" y="18.875" type="curve"/>
      <point x="687.0625" y="721.75" type="line" smooth="yes"/>
      <point x="690.75" y="732.375"/>
      <point x="684.9375" y="742.0"/>
    </contour>
  </outline>
</glyph>
<glyph name="W" format="2">
  <advance width="1070.5"/>
  <unicode hex="0057"/>
  <anchor x="537.1875" y="742.0" name="top"/>
  <outline>
    <contour>
      <point x="1011.75" y="742.0" type="curve"/>
      <point x="1011.75" y="742.0" type="line"/>
      <point x="935.5625" y="742.0" type="line" smooth="yes"/>
      <point x="921.125" y="742.0"/>
      <point x="914.4375" y="736.625"/>
      <point x="912.3125" y="727.125" type="curve"/>
      <point x="772.25" y="222.1875" type="line" smooth="yes"/>
      <point x="769.375" y="211.5625"/>
      <point x="763.6875" y="212.6875"/>
      <point x="760.8125" y="222.875" type="curve"/>
      <point x="618.0" y="726.6875" type="line" smooth="yes"/>
      <point x="614.875" y="736.625"/>
      <point x="610.0625" y="742.0"/>
      <point x="594.75" y="742.0" type="curve"/>
      <point x="505.0625" y="742.0" type="line" smooth="yes"/>
      <point x="489.3125" y="742.0"/>
      <point x="483.5" y="735.75"/>
      <point x="481.375" y="727.125" type="curve"/>
      <point x="339.625" y="226.125" type="line" smooth="yes"/>
      <point x="336.1875" y="213.8125"/>
      <point x="331.625" y="213.8125"/>
      <point x="327.625" y="227.9375" type="curve"/>
      <point x="187.0625" y="726.6875" type="line" smooth="yes"/>
      <point x="183.9375" y="736.625"/>
      <point x="179.125" y="742.0"/>
      <point x="163.8125" y="742.0" type="curve"/>
      <point x="60.0625" y="742.0" type="line" smooth="yes"/>
      <point x="42.375" y="742.0"/>
      <point x="35.4375" y="730.6875"/>
      <point x="39.6875" y="715.125" type="curve"/>
      <point x="242.8125" y="18.4375" type="line" smooth="yes"/>
      <point x="247.0625" y="5.8125"/>
      <point x="255.3125" y="0.0"/>
      <point x="270.9375" y="0.0" type="curve"/>
      <point x="365.375" y="0.0" type="line" smooth="yes"/>
      <point x="381.5625" y="0.0"/>
      <point x="388.9375" y="5.8125"/>
      <point x="392.625" y="18.875" type="curve"/>
      <point x="531.5" y="498.8125" type="line" smooth="yes"/>
      <point x="535.875" y="511.8125"/>
      <point x="539.5625" y="510.6875"/>
      <point x="542.25" y="499.9375" type="curve"/>
      <point x="679.9375" y="18.4375" type="line" smooth="yes"/>
      <point x="683.625" y="5.8125"/>
      <point x="692.4375" y="0.0"/>
      <point x="708.0625" y="0.0" type="curve"/>
      <point x="799.6875" y="0.0" type="line" smooth="yes"/>
      <point x="815.3125" y="0.0"/>
      <point x="822.6875" y="5.8125"/>
      <point x="826.9375" y="18.875" type="curve"/>
      <point x="1031.6875" y="715.5625" type="line" smooth="yes"/>
      <point x="1035.5" y="730.6875"/>
      <point x="1029.0" y="742.0"/>
    </contour>
  </outline>
</glyph>
<glyph name="X" format="2">
  <advance width="714.875"/>
  <unicode hex="0058"/>
  <outline>
    <contour>
      <point x="670.0" y="33.0625" type="curve"/>
      <point x="670.0" y="33.0625" type="line"/>
      <point x="441.3125" y="379.0625" type="line" smooth="yes"/>
      <point x="433.9375" y="390.125"/>
      <point x="433.8125" y="395.8125"/>
      <point x="440.625" y="406.3125" type="curve"/>
      <point x="649.3125" y="720.8125" type="line" smooth="yes"/>
      <point x="655.8125" y="730.5625"/>
      <point x="656.375" y="742.0"/>
      <point x="641.125" y="742.0" type="curve"/>
      <point x="536.0" y="742.0" type="line" smooth="yes"/>
      <point x="521.875" y="742.0"/>
      <point x="515.9375" y="737.625"/>
      <point x="510.5625" y="728.4375" type="curve"/>
      <point x="368.8125" y="503.5625" type="line" smooth="yes"/>
      <point x="362.375" y="493.0"/>
      <point x="355.0" y="493.4375"/>
      <point x="349.0" y="503.125" type="curve"/>
      <point x="207.25" y="728.4375" type="line" smooth="yes"/>
      <point x="201.875" y="737.625"/>
      <point x="195.8125" y="742.0"/>
      <point x="180.8125" y="742.0" type="curve"/>
      <point x="57.4375" y="742.0" type="line" smooth="yes"/>
      <point x="42.75" y="742.0"/>
      <point x="40.625" y="728.5625"/>
      <point x="47.125" y="718.8125" type="curve"/>
      <point x="262.25" y="391.5625" type="line" smooth="yes"/>
      <point x="269.5" y="379.625"/>
      <point x="270.5" y="373.625"/>
      <point x="262.6875" y="362.125" type="curve"/>
      <point x="46.0" y="33.0625" type="line" smooth="yes"/>
      <point x="29.1875" y="7.0625"/>
      <point x="36.25" y="0.0"/>
      <point x="54.625" y="0.0" type="curve"/>
      <point x="150.25" y="0.0" type="line" smooth="yes"/>
      <point x="162.8125" y="0.0"/>
      <point x="172.5625" y="3.25"/>
      <point x="177.9375" y="13.0" type="curve"/>
      <point x="333.625" y="259.3125" type="line" smooth="yes"/>
      <point x="344.1875" y="276.5625"/>
      <point x="349.3125" y="275.5625"/>
      <point x="358.5625" y="260.0625" type="curve"/>
      <point x="516.6875" y="13.0" type="line" smooth="yes"/>
      <point x="522.0625" y="3.8125"/>
      <point x="530.375" y="0.0"/>
      <point x="543.375" y="0.0" type="curve"/>
      <point x="660.375" y="0.0" type="line" smooth="yes"/>
      <point x="678.75" y="0.0"/>
      <point x="686.6875" y="7.625"/>
    </contour>
  </outline>
</glyph>
<glyph name="Y" format="2">
  <advance width="714.5"/>
  <unicode hex="0059"/>
  <anchor x="364.0625" y="742.0" name="top"/>
  <anchor x="357.25" y="0.0" name="bottom"/>
  <anchor x="20.0" y="742.0" name="topleft"/>
  <outline>
    <contour>
      <point x="666.9375" y="742.0" type="curve"/>
      <point x="666.9375" y="742.0" type="line"/>
      <point x="567.25" y="742.0" type="line" smooth="yes"/>
      <point x="552.625" y="742.0"/>
      <point x="547.8125" y="739.3125"/>
      <point x="541.125" y="726.25" type="curve"/>
      <point x="381.625" y="443.75" type="line" smooth="yes"/>
      <point x="374.1875" y="431.3125"/>
      <point x="368.875" y="431.4375"/>
      <point x="361.5625" y="445.1875" type="curve"/>
      <point x="200.5" y="726.25" type="line" smooth="yes"/>
      <point x="193.6875" y="738.3125"/>
      <point x="189.5625" y="742.0"/>
      <point x="174.375" y="742.0" type="curve"/>
      <point x="51.25" y="742.0" type="line" smooth="yes"/>
      <point x="35.0625" y="742.0"/>
      <point x="30.25" y="733.0625"/>
      <point x="37.625" y="721.0" type="curve"/>
      <point x="276.0" y="324.5625" type="line" smooth="yes"/>
      <point x="282.8125" y="313.0625"/>
      <point x="286.0625" y="307.25"/>
      <point x="286.0625" y="291.0625" type="curve"/>
      <point x="286.0625" y="18.875" type="line" smooth="yes"/>
      <point x="286.0625" y="6.25"/>
      <point x="290.75" y="0.0"/>
      <point x="305.9375" y="0.0" type="curve"/>
      <point x="408.75" y="0.0" type="line" smooth="yes"/>
      <point x="426.5" y="0.0"/>
      <point x="433.875" y="6.25"/>
      <point x="433.875" y="22.0" type="curve"/>
      <point x="433.875" y="288.5625" type="line" smooth="yes"/>
      <point x="433.875" y="316.5625"/>
      <point x="434.4375" y="323.9375"/>
      <point x="441.25" y="334.4375" type="curve"/>
      <point x="677.4375" y="724.25" type="line" smooth="yes"/>
      <point x="683.6875" y="734.1875"/>
      <point x="679.5625" y="742.0"/>
    </contour>
  </outline>
</glyph>
<glyph name="Z" format="2">
  <advance width="664.125"/>
  <unicode hex="005A"/>
  <anchor x="342.125" y="742.0" name="top"/>
  <anchor x="331.6875" y="0.0" name="bottom"/>
  <outline>
    <contour>
      <point x="56.8125" y="0.0" type="curve"/>
      <point x="56.8125" y="0.0" type="line"/>
      <point x="602.25" y="0.0" type="line" smooth="yes"/>
      <point x="614.0" y="0.0"/>
      <point x="618.8125" y="6.9375"/>
      <point x="618.8125" y="15.4375" type="curve"/>
      <point x="618.8125" y="98.0" type="line" smooth="yes"/>
      <point x="618.8125" y="107.625"/>
      <point x="613.4375" y="110.875"/>
      <point x="603.8125" y="110.875" type="curve"/>
      <point x="252.5625" y="110.875" type="line" smooth="yes"/>
      <point x="245.75" y="110.875"/>
      <point x="239.6875" y="113.875"/>
      <point x="244.9375" y="122.25" type="curve"/>
      <point x="610.4375" y="663.6875" type="line" smooth="yes"/>
      <point x="619.0625" y="676.0"/>
      <point x="622.1875" y="681.375"/>
      <point x="622.1875" y="692.0" type="curve"/>
      <point x="622.1875" y="728.125" type="line" smooth="yes"/>
      <point x="622.1875" y="736.625"/>
      <point x="617.375" y="742.0"/>
      <point x="608.875" y="742.0" type="curve"/>
      <point x="74.375" y="742.0" type="line" smooth="yes"/>
      <point x="66.4375" y="742.0"/>
      <point x="61.625" y="736.625"/>
      <point x="61.625" y="727.5625" type="curve"/>
      <point x="61.625" y="648.25" type="line" smooth="yes"/>
      <point x="61.625" y="635.9375"/>
      <point x="65.3125" y="631.6875"/>
      <point x="77.0625" y="631.6875" type="curve"/>
      <point x="403.75" y="631.6875" type="line" smooth="yes"/>
      <point x="413.8125" y="631.6875"/>
      <point x="415.8125" y="628.0"/>
      <point x="410.5625" y="619.625" type="curve"/>
      <point x="53.5625" y="85.125" type="line" smooth="yes"/>
      <point x="40.6875" y="66.875"/>
      <point x="38.6875" y="63.4375"/>
      <point x="38.6875" y="49.0" type="curve"/>
      <point x="38.6875" y="17.125" type="line" smooth="yes"/>
      <point x="38.6875" y="3.6875"/>
      <point x="42.9375" y="0.0"/>
    </contour>
  </outline>
</glyph>
<glyph name="bracketleft" format="2">
  <advance width="306.25"/>
  <unicode hex="005B"/>
  <outline>
    <contour>
      <point x="72.25" y="727.0" type="curve"/>
      <point x="72.25" y="727.0" type="line"/>
      <point x="72.6875" y="-146.875" type="line" smooth="yes"/>
      <point x="72.6875" y="-158.0625"/>
      <point x="80.1875" y="-165.0"/>
      <point x="92.9375" y="-165.0" type="curve"/>
      <point x="277.1875" y="-165.0" type="line" smooth="yes"/>
      <point x="287.125" y="-165.0"/>
      <point x="290.8125" y="-161.3125"/>
      <point x="290.8125" y="-151.375" type="curve"/>
      <point x="290.8125" y="-101.125" type="line" smooth="yes"/>
      <point x="290.8125" y="-92.75"/>
      <point x="286.125" y="-88.625"/>
      <point x="277.1875" y="-88.625" type="curve"/>
      <point x="194.9375" y="-88.625" type="line" smooth="yes"/>
      <point x="183.75" y="-88.625"/>
      <point x="180.5" y="-86.5"/>
      <point x="180.5" y="-74.1875" type="curve"/>
      <point x="180.9375" y="646.9375" type="line" smooth="yes"/>
      <point x="180.9375" y="659.8125"/>
      <point x="186.3125" y="665.625"/>
      <point x="198.0625" y="665.625" type="curve"/>
      <point x="279.75" y="665.625" type="line" smooth="yes"/>
      <point x="286.5625" y="665.625"/>
      <point x="291.25" y="669.3125"/>
      <point x="291.25" y="676.125" type="curve"/>
      <point x="291.25" y="732.5" type="line" smooth="yes"/>
      <point x="291.25" y="739.3125"/>
      <point x="288.125" y="742.0"/>
      <point x="279.75" y="742.0" type="curve"/>
      <point x="90.375" y="742.0" type="line" smooth="yes"/>
      <point x="77.0625" y="742.0"/>
      <point x="72.25" y="737.1875"/>
    </contour>
  </outline>
</glyph>
<glyph name="backslash" format="2">
  <advance width="357.25"/>
  <unicode hex="005C"/>
  <outline>
    <contour>
      <point x="277.6875" y="-26.25" type="curve"/>
      <point x="277.6875" y="-26.25" type="line"/>
      <point x="337.0625" y="-26.25" type="line" smooth="yes"/>
      <point x="347.6875" y="-26.25"/>
      <point x="350.9375" y="-21.4375"/>
      <point x="348.25" y="-13.375" type="curve"/>
      <point x="98.375" y="729.25" type="line" smooth="yes"/>
      <point x="95.6875" y="737.1875"/>
      <point x="88.75" y="742.0"/>
      <point x="80.25" y="742.0" type="curve"/>
      <point x="20.875" y="742.0" type="line" smooth="yes"/>
      <point x="7.0" y="742.0"/>
      <point x="3.75" y="735.0625"/>
      <point x="9.125" y="719.0625" type="curve"/>
      <point x="253.1875" y="-8.125" type="line" smooth="yes"/>
      <point x="258.0" y="-22.0"/>
      <point x="265.9375" y="-26.25"/>
    </contour>
  </outline>
</glyph>
<glyph name="asciicircum" format="2">
  <advance width="475.4375"/>
  <unicode hex="005E"/>
  <outline>
    <contour>
      <point x="245.375" y="381.5625" type="curve"/>
      <point x="343.5" y="136.0" type="line"/>
      <point x="346.0625" y="128.75"/>
      <point x="355.0" y="127.4375"/>
      <point x="364.375" y="127.4375" type="curve"/>
      <point x="421.9375" y="127.4375" type="line" smooth="yes"/>
      <point x="432.4375" y="127.4375"/>
      <point x="437.25" y="132.125"/>
      <point x="433.0" y="143.1875" type="curve"/>
      <point x="282.25" y="504.5625" type="line" smooth="yes"/>
      <point x="261.6875" y="553.4375"/>
      <point x="210.3125" y="550.0"/>
      <point x="191.1875" y="504.0" type="curve"/>
      <point x="41.3125" y="146.1875" type="line" smooth="yes"/>
      <point x="36.625" y="135.125"/>
      <point x="40.75" y="128.3125"/>
      <point x="49.6875" y="128.3125" type="curve"/>
      <point x="109.9375" y="128.3125" type="line" smooth="yes"/>
      <point x="119.4375" y="128.3125"/>
      <point x="125.8125" y="129.1875"/>
      <point x="128.9375" y="136.4375" type="curve"/>
      <point x="227.5" y="381.5625" type="line" smooth="yes"/>
      <point x="231.75" y="392.0625"/>
      <point x="240.6875" y="392.0625"/>
    </contour>
  </outline>
</glyph>
<glyph name="underscore" format="2">
  <advance width="535.3125"/>
  <unicode hex="005F"/>
  <outline>
    <contour>
      <point x="482.1875" y="-114.9375" type="curve"/>
      <point x="482.1875" y="-51.8125" type="line"/>
      <point x="482.1875" y="-43.3125"/>
      <point x="476.9375" y="-37.9375"/>
      <point x="469.0" y="-37.9375" type="curve"/>
      <point x="66.0" y="-38.375" type="line" smooth="yes"/>
      <point x="57.9375" y="-38.375"/>
      <point x="53.125" y="-43.75"/>
      <point x="53.125" y="-54.375" type="curve"/>
      <point x="53.125" y="-117.5" type="line" smooth="yes"/>
      <point x="53.125" y="-129.25"/>
      <point x="57.375" y="-134.625"/>
      <point x="71.25" y="-134.625" type="curve"/>
      <point x="459.25" y="-134.1875" type="line" smooth="yes"/>
      <point x="475.25" y="-134.1875"/>
      <point x="482.1875" y="-128.8125"/>
    </contour>
  </outline>
</glyph>
<glyph name="a" format="2">
  <advance width="557.6875"/>
  <unicode hex="0061"/>
  <anchor x="478.0" y="11.75" name="ogonek"/>
  <anchor x="273.5" y="0.0" name="bottom"/>
  <anchor x="277.8125" y="530.0" name="top"/>
  <outline>
    <contour>
      <point x="354.5625" y="55.125" type="curve"/>
      <point x="354.5625" y="55.125" type="line"/>
      <point x="366.3125" y="65.625"/>
      <point x="372.5625" y="64.625"/>
      <point x="374.125" y="54.25" type="curve"/>
      <point x="375.5625" y="23.625" type="line" smooth="yes"/>
      <point x="377.25" y="9.875"/>
      <point x="381.375" y="0.0"/>
      <point x="394.125" y="0.0" type="curve"/>
      <point x="479.0625" y="0.0" type="line" smooth="yes"/>
      <point x="492.375" y="0.0"/>
      <point x="496.375" y="4.8125"/>
      <point x="496.375" y="19.5625" type="curve"/>
      <point x="496.375" y="371.5" type="line" smooth="yes"/>
      <point x="496.375" y="473.875"/>
      <point x="433.0625" y="540.0"/>
      <point x="279.5625" y="540.0" type="curve"/>
      <point x="164.3125" y="540.0"/>
      <point x="83.8125" y="500.3125"/>
      <point x="48.5625" y="425.375" type="curve"/>
      <point x="41.75" y="409.125"/>
      <point x="45.5625" y="405.0"/>
      <point x="52.5" y="403.0" type="curve"/>
      <point x="136.6875" y="381.8125" type="line" smooth="yes"/>
      <point x="148.5625" y="378.8125"/>
      <point x="151.6875" y="381.375"/>
      <point x="156.25" y="389.75" type="curve"/>
      <point x="185.5" y="436.8125"/>
      <point x="227.6875" y="456.4375"/>
      <point x="273.625" y="456.4375" type="curve"/>
      <point x="335.5" y="456.4375"/>
      <point x="372.0" y="421.0"/>
      <point x="372.0" y="363.0" type="curve"/>
      <point x="372.0" y="339.875" type="line" smooth="yes"/>
      <point x="372.0" y="329.1875"/>
      <point x="363.75" y="325.875"/>
      <point x="356.125" y="325.4375" type="curve"/>
      <point x="306.25" y="321.5" type="line" smooth="yes"/>
      <point x="128.1875" y="315.375"/>
      <point x="25.5" y="245.5625"/>
      <point x="25.5" y="135.5625" type="curve"/>
      <point x="25.5" y="49.5"/>
      <point x="87.6875" y="-10.0"/>
      <point x="189.875" y="-10.0" type="curve"/>
      <point x="257.125" y="-10.0"/>
      <point x="310.25" y="14.1875"/>
    </contour>
    <contour>
      <point x="372.0" y="242.375" type="curve"/>
      <point x="372.0" y="242.375" type="line"/>
      <point x="372.0" y="171.0" type="line" smooth="yes"/>
      <point x="372.0" y="149.4375"/>
      <point x="357.0625" y="128.375"/>
      <point x="334.125" y="109.625" type="curve"/>
      <point x="311.3125" y="91.4375"/>
      <point x="279.75" y="77.5"/>
      <point x="243.6875" y="77.5" type="curve"/>
      <point x="188.0" y="77.5"/>
      <point x="153.0" y="106.125"/>
      <point x="153.0" y="152.0625" type="curve"/>
      <point x="153.0" y="217.25"/>
      <point x="229.5625" y="250.3125"/>
      <point x="316.25" y="255.5625" type="curve"/>
      <point x="357.4375" y="258.625" type="line" smooth="yes"/>
      <point x="368.125" y="259.0625"/>
      <point x="372.0" y="253.9375"/>
    </contour>
  </outline>
</glyph>
<glyph name="b" format="2">
  <advance width="605.5"/>
  <unicode hex="0062"/>
  <outline>
    <contour>
      <point x="82.875" y="0.0" type="curve"/>
      <point x="136.625" y="0.0" type="line"/>
      <point x="149.1875" y="0.0"/>
      <point x="155.0" y="5.25"/>
      <point x="157.8125" y="18.625" type="curve"/>
      <point x="167.6875" y="67.375" type="line" smooth="yes"/>
      <point x="169.375" y="75.8125"/>
      <point x="173.8125" y="76.8125"/>
      <point x="179.375" y="70.375" type="curve"/>
      <point x="206.5625" y="34.25"/>
      <point x="258.8125" y="-10.0"/>
      <point x="339.3125" y="-10.0" type="curve"/>
      <point x="484.4375" y="-10.0"/>
      <point x="566.75" y="97.6875"/>
      <point x="566.75" y="268.125" type="curve"/>
      <point x="566.75" y="427.25"/>
      <point x="496.0" y="540.0"/>
      <point x="355.9375" y="540.0" type="curve"/>
      <point x="284.25" y="540.0"/>
      <point x="236.6875" y="507.3125"/>
      <point x="209.25" y="481.4375" type="curve"/>
      <point x="199.6875" y="473.4375"/>
      <point x="192.875" y="473.4375"/>
      <point x="192.875" y="488.125" type="curve"/>
      <point x="192.875" y="725.375" type="line" smooth="yes"/>
      <point x="192.875" y="736.1875"/>
      <point x="188.625" y="742.0"/>
      <point x="179.25" y="742.0" type="curve"/>
      <point x="77.5" y="742.0" type="line" smooth="yes"/>
      <point x="68.6875" y="742.0"/>
      <point x="62.875" y="736.1875"/>
      <point x="62.875" y="724.6875" type="curve"/>
      <point x="62.875" y="19.75" type="line" smooth="yes"/>
      <point x="62.875" y="5.8125"/>
      <point x="67.5625" y="0.0"/>
    </contour>
    <contour>
      <point x="192.875" y="181.5" type="curve"/>
      <point x="192.875" y="394.1875" type="line"/>
      <point x="221.625" y="429.25"/>
      <point x="262.5625" y="454.75"/>
      <point x="312.375" y="454.75" type="curve"/>
      <point x="391.5625" y="454.75"/>
      <point x="434.3125" y="393.25"/>
      <point x="434.3125" y="265.875" type="curve"/>
      <point x="434.3125" y="128.3125"/>
      <point x="381.9375" y="72.4375"/>
      <point x="307.1875" y="72.4375" type="curve"/>
      <point x="246.8125" y="72.4375"/>
      <point x="192.875" y="117.9375"/>
    </contour>
  </outline>
</glyph>
<glyph name="c" format="2">
  <advance width="547.6875"/>
  <unicode hex="0063"/>
  <anchor x="296.6875" y="530.0" name="top"/>
  <anchor x="297.0" y="0.0" name="bottom"/>
  <outline>
    <contour>
      <point x="297.125" y="540.0" type="curve"/>
      <point x="297.125" y="540.0" type="line"/>
      <point x="146.5625" y="540.0"/>
      <point x="36.3125" y="426.6875"/>
      <point x="36.3125" y="263.0" type="curve"/>
      <point x="36.3125" y="100.5625"/>
      <point x="144.5625" y="-10.0"/>
      <point x="297.125" y="-10.0" type="curve"/>
      <point x="425.4375" y="-10.0"/>
      <point x="494.0625" y="71.75"/>
      <point x="520.6875" y="135.125" type="curve"/>
      <point x="523.8125" y="145.3125"/>
      <point x="522.25" y="150.4375"/>
      <point x="514.75" y="152.4375" type="curve"/>
      <point x="451.8125" y="169.125" type="line" smooth="yes"/>
      <point x="442.75" y="171.5625"/>
      <point x="439.625" y="170.0"/>
      <point x="436.1875" y="164.5625" type="curve"/>
      <point x="402.875" y="109.5"/>
      <point x="368.5625" y="76.375"/>
      <point x="307.875" y="76.375" type="curve"/>
      <point x="222.4375" y="76.375"/>
      <point x="168.3125" y="140.4375"/>
      <point x="168.3125" y="265.0" type="curve"/>
      <point x="168.3125" y="387.3125"/>
      <point x="220.75" y="452.5"/>
      <point x="302.125" y="452.5" type="curve"/>
      <point x="353.625" y="452.5"/>
      <point x="378.375" y="420.625"/>
      <point x="404.6875" y="377.25" type="curve"/>
      <point x="407.5625" y="368.875"/>
      <point x="411.5625" y="366.1875"/>
      <point x="419.0625" y="367.625" type="curve"/>
      <point x="506.625" y="378.5625" type="line" smooth="yes"/>
      <point x="517.5" y="380.0"/>
      <point x="521.3125" y="385.375"/>
      <point x="516.75" y="397.5625" type="curve"/>
      <point x="487.625" y="469.75"/>
      <point x="416.5" y="540.0"/>
    </contour>
  </outline>
</glyph>
<glyph name="d" format="2">
  <advance width="605.5"/>
  <unicode hex="0064"/>
  <anchor x="310.0625" y="265.0" name="center"/>
  <anchor x="304.8125" y="0.0" name="bottom"/>
  <anchor x="607.875" y="622.75" name="topright"/>
  <outline>
    <contour>
      <point x="433.625" y="0.0" type="curve"/>
      <point x="433.625" y="0.0" type="line"/>
      <point x="522.1875" y="0.0" type="line" smooth="yes"/>
      <point x="537.9375" y="0.0"/>
      <point x="542.625" y="5.8125"/>
      <point x="542.625" y="19.3125" type="curve"/>
      <point x="542.625" y="725.125" type="line" smooth="yes"/>
      <point x="542.625" y="736.1875"/>
      <point x="536.8125" y="742.0"/>
      <point x="528.4375" y="742.0" type="curve"/>
      <point x="427.25" y="742.0" type="line" smooth="yes"/>
      <point x="417.4375" y="742.0"/>
      <point x="413.1875" y="736.1875"/>
      <point x="413.1875" y="725.8125" type="curve"/>
      <point x="413.1875" y="494.6875" type="line" smooth="yes"/>
      <point x="413.1875" y="480.0"/>
      <point x="407.25" y="478.25"/>
      <point x="396.375" y="487.125" type="curve"/>
      <point x="359.75" y="520.125"/>
      <point x="319.5625" y="540.0"/>
      <point x="262.3125" y="540.0" type="curve"/>
      <point x="136.125" y="540.0"/>
      <point x="37.875" y="428.375"/>
      <point x="37.875" y="259.5" type="curve"/>
      <point x="37.875" y="80.25"/>
      <point x="129.0625" y="-10.0"/>
      <point x="251.4375" y="-10.0" type="curve"/>
      <point x="328.3125" y="-10.0"/>
      <point x="372.5625" y="27.0625"/>
      <point x="401.5" y="54.75" type="curve"/>
      <point x="408.9375" y="61.625"/>
      <point x="415.1875" y="60.625"/>
      <point x="415.1875" y="50.75" type="curve"/>
      <point x="415.1875" y="17.75" type="line" smooth="yes"/>
      <point x="415.1875" y="5.125"/>
      <point x="423.25" y="0.0"/>
    </contour>
    <contour>
      <point x="412.625" y="399.0" type="curve"/>
      <point x="412.625" y="399.0" type="line"/>
      <point x="412.625" y="173.375" type="line" smooth="yes"/>
      <point x="412.625" y="125.1875"/>
      <point x="363.6875" y="74.125"/>
      <point x="299.75" y="74.125" type="curve"/>
      <point x="226.4375" y="74.125"/>
      <point x="169.875" y="127.5625"/>
      <point x="169.875" y="261.8125" type="curve"/>
      <point x="169.875" y="393.5625"/>
      <point x="225.625" y="453.625"/>
      <point x="303.25" y="453.625" type="curve"/>
      <point x="347.375" y="453.625"/>
      <point x="379.375" y="434.0625"/>
    </contour>
  </outline>
</glyph>
<glyph name="e" format="2">
  <advance width="584.3125"/>
  <unicode hex="0065"/>
  <anchor x="415.5" y="22.5" name="ogonek"/>
  <anchor x="302.25" y="0.0" name="bottom"/>
  <anchor x="299.25" y="530.0" name="top"/>
  <outline>
    <contour>
      <point x="170.5625" y="224.25" type="curve"/>
      <point x="170.5625" y="224.25" type="line"/>
      <point x="170.5625" y="234.0625"/>
      <point x="174.25" y="239.9375"/>
      <point x="181.625" y="239.9375" type="curve"/>
      <point x="536.375" y="239.9375" type="line" smooth="yes"/>
      <point x="552.5" y="240.5"/>
      <point x="552.1875" y="249.6875"/>
      <point x="552.1875" y="262.75" type="curve"/>
      <point x="552.1875" y="438.0625"/>
      <point x="449.0" y="540.0"/>
      <point x="299.0" y="540.0" type="curve"/>
      <point x="154.0625" y="540.0"/>
      <point x="36.3125" y="430.375"/>
      <point x="36.3125" y="258.1875" type="curve"/>
      <point x="36.3125" y="99.4375"/>
      <point x="148.25" y="-10.0"/>
      <point x="301.25" y="-10.0" type="curve"/>
      <point x="405.375" y="-10.0"/>
      <point x="474.25" y="21.375"/>
      <point x="534.875" y="110.125" type="curve"/>
      <point x="541.25" y="118.0625"/>
      <point x="539.125" y="124.875"/>
      <point x="532.1875" y="128.0" type="curve"/>
      <point x="470.9375" y="155.375" type="line" smooth="yes"/>
      <point x="461.875" y="159.5"/>
      <point x="458.875" y="158.5"/>
      <point x="454.3125" y="153.0625" type="curve"/>
      <point x="413.8125" y="102.625"/>
      <point x="370.5625" y="80.875"/>
      <point x="316.4375" y="80.875" type="curve"/>
      <point x="234.8125" y="80.875"/>
      <point x="170.5625" y="140.5"/>
    </contour>
    <contour>
      <point x="407.6875" y="313.625" type="curve"/>
      <point x="172.6875" y="314.1875" type="line"/>
      <point x="171.6875" y="392.8125"/>
      <point x="222.8125" y="457.5625"/>
      <point x="303.625" y="457.5625" type="curve"/>
      <point x="382.5" y="457.5625"/>
      <point x="424.6875" y="390.375"/>
      <point x="424.6875" y="327.625" type="curve"/>
      <point x="424.6875" y="316.0625"/>
      <point x="421.125" y="313.625"/>
    </contour>
  </outline>
</glyph>
<glyph name="f" format="2">
  <advance width="394.375"/>
  <unicode hex="0066"/>
  <outline>
    <contour>
      <point x="356.625" y="530.0" type="curve"/>
      <point x="356.625" y="530.0" type="line"/>
      <point x="262.5625" y="530.0" type="line" smooth="yes"/>
      <point x="255.875" y="530.0"/>
      <point x="252.1875" y="532.5625"/>
      <point x="252.1875" y="540.375" type="curve"/>
      <point x="252.1875" y="589.875" type="line" smooth="yes"/>
      <point x="252.1875" y="627.9375"/>
      <point x="270.25" y="653.5625"/>
      <point x="305.0625" y="653.5625" type="curve"/>
      <point x="364.25" y="653.5625" type="line" smooth="yes"/>
      <point x="373.1875" y="653.5625"/>
      <point x="377.875" y="659.5"/>
      <point x="377.875" y="667.875" type="curve"/>
      <point x="377.3125" y="724.3125" type="line" smooth="yes"/>
      <point x="377.3125" y="735.5"/>
      <point x="370.8125" y="742.0"/>
      <point x="358.375" y="742.0" type="curve"/>
      <point x="263.3125" y="742.0" type="line" smooth="yes"/>
      <point x="173.75" y="742.0"/>
      <point x="125.0" y="693.25"/>
      <point x="125.0" y="608.4375" type="curve"/>
      <point x="125.0" y="543.1875" type="line" smooth="yes"/>
      <point x="125.0" y="533.6875"/>
      <point x="122.4375" y="530.0"/>
      <point x="114.0625" y="530.0" type="curve"/>
      <point x="37.625" y="530.0" type="line" smooth="yes"/>
      <point x="26.3125" y="530.0"/>
      <point x="21.5" y="523.5"/>
      <point x="21.5" y="515.0" type="curve"/>
      <point x="21.5" y="452.0625" type="line" smooth="yes"/>
      <point x="21.5" y="442.4375"/>
      <point x="26.875" y="438.75"/>
      <point x="36.5" y="438.75" type="curve"/>
      <point x="117.875" y="438.75" type="line" smooth="yes"/>
      <point x="123.0" y="438.75"/>
      <point x="125.0" y="435.75"/>
      <point x="125.0" y="430.0625" type="curve"/>
      <point x="125.0" y="15.625" type="line" smooth="yes"/>
      <point x="125.0" y="5.25"/>
      <point x="129.8125" y="0.0"/>
      <point x="138.625" y="0.0" type="curve"/>
      <point x="240.375" y="0.0" type="line" smooth="yes"/>
      <point x="249.75" y="0.0"/>
      <point x="255.0" y="5.25"/>
      <point x="255.0" y="17.1875" type="curve"/>
      <point x="255.0" y="428.9375" type="line" smooth="yes"/>
      <point x="255.0" y="435.625"/>
      <point x="258.6875" y="438.75"/>
      <point x="264.8125" y="438.75" type="curve"/>
      <point x="357.875" y="438.75" type="line" smooth="yes"/>
      <point x="366.9375" y="438.75"/>
      <point x="372.875" y="442.4375"/>
      <point x="372.875" y="452.0625" type="curve"/>
      <point x="372.875" y="515.0" type="line" smooth="yes"/>
      <point x="372.875" y="523.5"/>
      <point x="367.5" y="530.0"/>
    </contour>
  </outline>
</glyph>
<glyph name="g" format="2">
  <advance width="621.9375"/>
  <unicode hex="0067"/>
  <anchor x="295.9375" y="530.0" name="top"/>
  <outline>
    <contour>
      <point x="579.125" y="548.0" type="curve"/>
      <point x="579.125" y="548.0" type="line"/>
      <point x="547.0625" y="548.0"/>
      <point x="502.4375" y="522.1875"/>
      <point x="478.5" y="494.25" type="curve"/>
      <point x="471.5" y="486.4375"/>
      <point x="461.875" y="485.875"/>
      <point x="453.1875" y="493.0" type="curve"/>
      <point x="419.75" y="520.3125"/>
      <point x="368.3125" y="538.0"/>
      <point x="296.6875" y="538.0" type="curve"/>
      <point x="138.25" y="538.0"/>
      <point x="52.9375" y="471.625"/>
      <point x="52.9375" y="371.25" type="curve"/>
      <point x="52.9375" y="309.8125"/>
      <point x="84.8125" y="265.4375"/>
      <point x="146.0" y="236.125" type="curve"/>
      <point x="154.6875" y="231.0"/>
      <point x="151.625" y="226.6875"/>
      <point x="144.75" y="224.125" type="curve"/>
      <point x="92.5" y="204.1875"/>
      <point x="54.125" y="174.25"/>
      <point x="54.125" y="138.1875" type="curve"/>
      <point x="54.125" y="105.5"/>
      <point x="76.375" y="84.4375"/>
      <point x="107.875" y="69.625" type="curve"/>
      <point x="115.4375" y="66.0625"/>
      <point x="116.5625" y="62.0625"/>
      <point x="107.875" y="58.625" type="curve"/>
      <point x="50.5" y="34.875"/>
      <point x="13.0625" y="4.6875"/>
      <point x="13.0625" y="-41.625" type="curve"/>
      <point x="13.0625" y="-129.5625"/>
      <point x="108.0625" y="-175.0"/>
      <point x="293.0" y="-175.0" type="curve"/>
      <point x="472.125" y="-175.0"/>
      <point x="568.0" y="-107.75"/>
      <point x="568.0" y="-6.625" type="curve"/>
      <point x="568.0" y="74.0625"/>
      <point x="510.3125" y="128.5625"/>
      <point x="380.25" y="136.25" type="curve"/>
      <point x="242.25" y="144.375" type="line" smooth="yes"/>
      <point x="192.25" y="147.25"/>
      <point x="169.8125" y="153.4375"/>
      <point x="169.8125" y="172.375" type="curve"/>
      <point x="169.8125" y="191.875"/>
      <point x="199.4375" y="209.0"/>
      <point x="286.875" y="209.0" type="curve"/>
      <point x="443.0625" y="209.0"/>
      <point x="519.8125" y="282.25"/>
      <point x="519.8125" y="371.8125" type="curve"/>
      <point x="519.8125" y="395.8125"/>
      <point x="512.5625" y="412.0625"/>
      <point x="507.8125" y="425.125" type="curve"/>
      <point x="504.25" y="436.0625"/>
      <point x="509.25" y="443.75"/>
      <point x="527.8125" y="448.125" type="curve"/>
      <point x="541.5625" y="452.0625"/>
      <point x="557.9375" y="452.125"/>
      <point x="576.625" y="450.3125" type="curve"/>
      <point x="591.1875" y="447.9375"/>
      <point x="598.6875" y="455.0625"/>
      <point x="598.6875" y="471.9375" type="curve"/>
      <point x="598.6875" y="528.25" type="line" smooth="yes"/>
      <point x="598.6875" y="542.3125"/>
      <point x="591.875" y="548.0"/>
    </contour>
    <contour>
      <point x="286.1875" y="276.8125" type="curve"/>
      <point x="286.1875" y="276.8125" type="line"/>
      <point x="212.125" y="276.8125"/>
      <point x="170.5625" y="314.75"/>
      <point x="170.5625" y="370.4375" type="curve"/>
      <point x="170.5625" y="429.375"/>
      <point x="212.5625" y="469.0625"/>
      <point x="286.1875" y="469.0625" type="curve"/>
      <point x="364.0625" y="469.0625"/>
      <point x="400.5" y="429.8125"/>
      <point x="400.5" y="370.4375" type="curve"/>
      <point x="400.5" y="314.875"/>
      <point x="364.9375" y="276.8125"/>
    </contour>
    <contour>
      <point x="207.1875" y="42.125" type="curve"/>
      <point x="365.75" y="33.9375" type="line"/>
      <point x="426.6875" y="30.625"/>
      <point x="452.3125" y="6.75"/>
      <point x="452.3125" y="-28.0" type="curve"/>
      <point x="452.3125" y="-80.1875"/>
      <point x="399.8125" y="-108.3125"/>
      <point x="302.5625" y="-108.3125" type="curve"/>
      <point x="174.9375" y="-108.3125"/>
      <point x="122.0" y="-78.0"/>
      <point x="122.0" y="-25.25" type="curve"/>
      <point x="122.0" y="15.4375"/>
      <point x="169.0" y="44.125"/>
    </contour>
  </outline>
</glyph>
<glyph name="h" format="2">
  <advance width="592.3125"/>
  <unicode hex="0068"/>
  <anchor x="392.5" y="530.0" name="top"/>
  <anchor x="304.6875" y="0.0" name="bottom"/>
  <outline>
    <contour>
      <point x="82.0" y="0.0" type="curve"/>
      <point x="82.0" y="0.0" type="line"/>
      <point x="170.9375" y="0.0" type="line" smooth="yes"/>
      <point x="187.0625" y="0.0"/>
      <point x="193.4375" y="5.8125"/>
      <point x="193.4375" y="20.25" type="curve"/>
      <point x="193.4375" y="375.6875" type="line"/>
      <point x="239.125" y="421.5"/>
      <point x="273.1875" y="444.0625"/>
      <point x="321.6875" y="444.0625" type="curve"/>
      <point x="377.75" y="444.0625"/>
      <point x="404.75" y="413.375"/>
      <point x="404.75" y="362.375" type="curve"/>
      <point x="404.75" y="18.0" type="line" smooth="yes"/>
      <point x="404.75" y="4.6875"/>
      <point x="409.4375" y="0.0"/>
      <point x="421.625" y="0.0" type="curve"/>
      <point x="513.9375" y="0.0" type="line" smooth="yes"/>
      <point x="528.375" y="0.0"/>
      <point x="534.75" y="6.9375"/>
      <point x="534.75" y="21.25" type="curve"/>
      <point x="534.75" y="382.875" type="line" smooth="yes"/>
      <point x="534.75" y="480.5625"/>
      <point x="478.625" y="540.0"/>
      <point x="376.125" y="540.0" type="curve"/>
      <point x="314.375" y="540.0"/>
      <point x="266.5625" y="517.75"/>
      <point x="201.25" y="463.1875" type="curve"/>
      <point x="194.125" y="457.0625"/>
      <point x="190.4375" y="459.1875"/>
      <point x="190.4375" y="466.75" type="curve"/>
      <point x="190.4375" y="726.6875" type="line" smooth="yes"/>
      <point x="190.4375" y="736.625"/>
      <point x="186.1875" y="742.0"/>
      <point x="176.8125" y="742.0" type="curve"/>
      <point x="77.625" y="742.0" type="line" smooth="yes"/>
      <point x="68.25" y="742.0"/>
      <point x="63.4375" y="735.625"/>
      <point x="63.4375" y="725.125" type="curve"/>
      <point x="63.4375" y="18.0" type="line" smooth="yes"/>
      <point x="63.4375" y="5.25"/>
      <point x="68.6875" y="0.0"/>
    </contour>
  </outline>
</glyph>
<glyph name="i" format="2">
  <advance width="255.75"/>
  <unicode hex="0069"/>
  <outline>
    <contour>
      <point x="192.875" y="21.5625" type="curve"/>
      <point x="192.875" y="514.375" type="line"/>
      <point x="192.875" y="524.625"/>
      <point x="188.0625" y="530.0"/>
      <point x="178.8125" y="530.0" type="curve"/>
      <point x="77.5" y="530.0" type="line" smooth="yes"/>
      <point x="67.6875" y="530.0"/>
      <point x="62.875" y="524.625"/>
      <point x="62.875" y="512.6875" type="curve"/>
      <point x="62.875" y="18.4375" type="line" smooth="yes"/>
      <point x="62.875" y="5.375"/>
      <point x="67.125" y="0.0"/>
      <point x="82.3125" y="0.0" type="curve"/>
      <point x="169.0625" y="0.0" type="line" smooth="yes"/>
      <point x="186.375" y="0.0"/>
      <point x="192.875" y="5.375"/>
    </contour>
    <contour>
      <point x="195.0625" y="627.9375" type="curve"/>
      <point x="195.0625" y="724.5" type="line"/>
      <point x="195.0625" y="735.3125"/>
      <point x="188.9375" y="742.0"/>
      <point x="179.6875" y="742.0" type="curve"/>
      <point x="76.625" y="742.0" type="line" smooth="yes"/>
      <point x="66.8125" y="742.0"/>
      <point x="60.6875" y="735.3125"/>
      <point x="60.6875" y="723.375" type="curve"/>
      <point x="60.6875" y="625.375" type="line" smooth="yes"/>
      <point x="60.6875" y="612.3125"/>
      <point x="64.9375" y="604.625"/>
      <point x="80.125" y="604.625" type="curve"/>
      <point x="171.25" y="604.625" type="line" smooth="yes"/>
      <point x="188.5625" y="604.625"/>
      <point x="195.0625" y="612.3125"/>
    </contour>
  </outline>
</glyph>
<glyph name="j" format="2">
  <advance width="256.3125"/>
  <unicode hex="006A"/>
  <outline>
    <contour>
      <point x="193.4375" y="-6.0" type="curve"/>
      <point x="193.4375" y="-6.0" type="line"/>
      <point x="193.4375" y="514.375" type="line" smooth="yes"/>
      <point x="193.4375" y="524.1875"/>
      <point x="189.1875" y="530.0"/>
      <point x="179.8125" y="530.0" type="curve"/>
      <point x="79.0625" y="530.0" type="line" smooth="yes"/>
      <point x="69.25" y="530.0"/>
      <point x="63.4375" y="524.1875"/>
      <point x="63.4375" y="512.6875" type="curve"/>
      <point x="63.4375" y="0.125" type="line" smooth="yes"/>
      <point x="63.4375" y="-47.0"/>
      <point x="48.0625" y="-61.125"/>
      <point x="17.5625" y="-63.8125" type="curve"/>
      <point x="-27.5" y="-67.625" type="line" smooth="yes"/>
      <point x="-36.5625" y="-69.3125"/>
      <point x="-41.375" y="-77.5"/>
      <point x="-41.375" y="-85.4375" type="curve"/>
      <point x="-40.8125" y="-152.0" type="line" smooth="yes"/>
      <point x="-40.8125" y="-167.3125"/>
      <point x="-31.4375" y="-170.0"/>
      <point x="25.875" y="-170.0" type="curve"/>
      <point x="145.5625" y="-170.0"/>
      <point x="193.4375" y="-116.125"/>
    </contour>
    <contour>
      <point x="195.625" y="627.9375" type="curve"/>
      <point x="195.625" y="724.5" type="line"/>
      <point x="195.625" y="735.3125"/>
      <point x="190.0625" y="742.0"/>
      <point x="180.25" y="742.0" type="curve"/>
      <point x="77.75" y="742.0" type="line" smooth="yes"/>
      <point x="67.9375" y="742.0"/>
      <point x="61.25" y="735.3125"/>
      <point x="61.25" y="723.375" type="curve"/>
      <point x="61.25" y="625.375" type="line" smooth="yes"/>
      <point x="61.25" y="612.3125"/>
      <point x="66.0625" y="604.625"/>
      <point x="81.25" y="604.625" type="curve"/>
      <point x="172.375" y="604.625" type="line" smooth="yes"/>
      <point x="189.6875" y="604.625"/>
      <point x="195.625" y="612.3125"/>
    </contour>
  </outline>
</glyph>
<glyph name="k" format="2">
  <advance width="590.3125"/>
  <unicode hex="006B"/>
  <anchor x="289.3125" y="0.0" name="bottom"/>
  <outline>
    <contour>
      <point x="566.4375" y="21.0" type="curve"/>
      <point x="566.4375" y="21.0" type="line"/>
      <point x="389.8125" y="334.375" type="line" smooth="yes"/>
      <point x="383.4375" y="346.6875"/>
      <point x="385.0" y="351.375"/>
      <point x="391.375" y="358.875" type="curve"/>
      <point x="537.875" y="507.125" type="line" smooth="yes"/>
      <point x="549.125" y="518.9375"/>
      <point x="546.4375" y="530.0"/>
      <point x="529.125" y="530.0" type="curve"/>
      <point x="438.0625" y="530.0" type="line" smooth="yes"/>
      <point x="429.375" y="530.0"/>
      <point x="421.875" y="525.1875"/>
      <point x="413.1875" y="516.0625" type="curve"/>
      <point x="204.5625" y="293.6875" type="line" smooth="yes"/>
      <point x="196.5625" y="285.125"/>
      <point x="193.4375" y="288.375"/>
      <point x="193.4375" y="297.0" type="curve"/>
      <point x="193.4375" y="725.8125" type="line" smooth="yes"/>
      <point x="193.4375" y="736.625"/>
      <point x="189.1875" y="742.0"/>
      <point x="179.375" y="742.0" type="curve"/>
      <point x="78.0625" y="742.0" type="line" smooth="yes"/>
      <point x="68.8125" y="742.0"/>
      <point x="63.4375" y="736.625"/>
      <point x="63.4375" y="724.6875" type="curve"/>
      <point x="63.4375" y="18.4375" type="line" smooth="yes"/>
      <point x="63.4375" y="5.375"/>
      <point x="67.6875" y="0.0"/>
      <point x="83.4375" y="0.0" type="curve"/>
      <point x="170.1875" y="0.0" type="line" smooth="yes"/>
      <point x="187.5" y="0.0"/>
      <point x="193.4375" y="5.375"/>
      <point x="193.4375" y="21.5625" type="curve"/>
      <point x="193.4375" y="139.625" type="line" smooth="yes"/>
      <point x="193.4375" y="151.6875"/>
      <point x="196.0" y="157.8125"/>
      <point x="201.5625" y="162.8125" type="curve"/>
      <point x="284.5625" y="245.0" type="line" smooth="yes"/>
      <point x="292.375" y="252.8125"/>
      <point x="295.625" y="250.8125"/>
      <point x="299.875" y="242.1875" type="curve"/>
      <point x="420.0" y="17.6875" type="line" smooth="yes"/>
      <point x="425.25" y="6.5"/>
      <point x="431.625" y="0.0"/>
      <point x="443.8125" y="0.0" type="curve"/>
      <point x="553.5625" y="0.0" type="line" smooth="yes"/>
      <point x="567.625" y="0.0"/>
      <point x="572.0" y="11.3125"/>
    </contour>
  </outline>
</glyph>
<glyph name="l" format="2">
  <advance width="256.875"/>
  <unicode hex="006C"/>
  <anchor x="130.6875" y="742.0" name="top"/>
  <anchor x="130.6875" y="0.0" name="bottom"/>
  <anchor x="299.3125" y="622.75" name="topright"/>
  <outline>
    <contour>
      <point x="193.4375" y="21.5625" type="curve"/>
      <point x="193.4375" y="725.8125" type="line"/>
      <point x="193.4375" y="736.625"/>
      <point x="188.625" y="742.0"/>
      <point x="179.375" y="742.0" type="curve"/>
      <point x="79.75" y="742.0" type="line" smooth="yes"/>
      <point x="69.9375" y="742.0"/>
      <point x="65.125" y="736.625"/>
      <point x="65.125" y="724.6875" type="curve"/>
      <point x="62.3125" y="18.4375" type="line" smooth="yes"/>
      <point x="62.3125" y="5.375"/>
      <point x="67.125" y="0.0"/>
      <point x="82.3125" y="0.0" type="curve"/>
      <point x="169.625" y="0.0" type="line" smooth="yes"/>
      <point x="186.9375" y="0.0"/>
      <point x="193.4375" y="5.375"/>
    </contour>
  </outline>
</glyph>
<glyph name="m" format="2">
  <advance width="914.4375"/>
  <unicode hex="006D"/>
  <guideline x="300.8125" y="384.8125" angle="90.0"/>
  <outline>
    <contour>
      <point x="81.4375" y="0.0" type="curve"/>
      <point x="81.4375" y="0.0" type="line"/>
      <point x="170.375" y="0.0" type="line" smooth="yes"/>
      <point x="186.5" y="0.0"/>
      <point x="192.875" y="5.8125"/>
      <point x="192.875" y="20.25" type="curve"/>
      <point x="192.875" y="375.6875" type="line"/>
      <point x="236.8125" y="421.5"/>
      <point x="270.5625" y="444.0625"/>
      <point x="316.75" y="444.0625" type="curve"/>
      <point x="369.75" y="444.0625"/>
      <point x="395.4375" y="413.375"/>
      <point x="395.4375" y="362.375" type="curve"/>
      <point x="395.4375" y="18.0" type="line" smooth="yes"/>
      <point x="395.4375" y="4.6875"/>
      <point x="401.125" y="0.0"/>
      <point x="412.3125" y="0.0" type="curve"/>
      <point x="504.0625" y="0.0" type="line" smooth="yes"/>
      <point x="518.0625" y="0.0"/>
      <point x="524.875" y="6.9375"/>
      <point x="524.875" y="21.25" type="curve"/>
      <point x="524.875" y="359.25" type="line" smooth="yes"/>
      <point x="524.875" y="370.4375"/>
      <point x="527.625" y="377.5625"/>
      <point x="536.8125" y="387.5625" type="curve"/>
      <point x="562.3125" y="413.375"/>
      <point x="602.75" y="444.0625"/>
      <point x="648.75" y="444.0625" type="curve"/>
      <point x="701.1875" y="444.0625"/>
      <point x="727.4375" y="413.375"/>
      <point x="727.4375" y="362.375" type="curve"/>
      <point x="727.4375" y="18.0" type="line" smooth="yes"/>
      <point x="727.4375" y="4.6875"/>
      <point x="732.125" y="0.0"/>
      <point x="744.3125" y="0.0" type="curve"/>
      <point x="836.0625" y="0.0" type="line" smooth="yes"/>
      <point x="850.5" y="0.0"/>
      <point x="857.4375" y="6.9375"/>
      <point x="857.4375" y="21.25" type="curve"/>
      <point x="857.4375" y="381.75" type="line" smooth="yes"/>
      <point x="857.4375" y="480.0"/>
      <point x="798.6875" y="540.0"/>
      <point x="704.3125" y="540.0" type="curve"/>
      <point x="640.375" y="540.0"/>
      <point x="578.8125" y="503.125"/>
      <point x="526.5" y="450.8125" type="curve"/>
      <point x="521.0625" y="445.25"/>
      <point x="515.1875" y="443.5"/>
      <point x="513.1875" y="448.9375" type="curve"/>
      <point x="494.5625" y="501.3125"/>
      <point x="445.625" y="540.5625"/>
      <point x="371.1875" y="540.5625" type="curve"/>
      <point x="306.6875" y="540.5625"/>
      <point x="256.375" y="508.75"/>
      <point x="200.6875" y="459.25" type="curve"/>
      <point x="193.5625" y="452.5625"/>
      <point x="189.875" y="455.25"/>
      <point x="189.875" y="462.8125" type="curve"/>
      <point x="189.875" y="515.25" type="line" smooth="yes"/>
      <point x="189.875" y="524.625"/>
      <point x="185.625" y="530.0"/>
      <point x="176.25" y="530.0" type="curve"/>
      <point x="77.0625" y="530.0" type="line" smooth="yes"/>
      <point x="68.25" y="530.0"/>
      <point x="62.875" y="523.625"/>
      <point x="62.875" y="513.125" type="curve"/>
      <point x="62.875" y="18.0" type="line" smooth="yes"/>
      <point x="62.875" y="5.25"/>
      <point x="68.125" y="0.0"/>
    </contour>
  </outline>
</glyph>
<glyph name="n" format="2">
  <advance width="591.75"/>
  <unicode hex="006E"/>
  <anchor x="303.5625" y="530.0" name="top"/>
  <anchor x="299.1875" y="0.0" name="bottom"/>
  <outline>
    <contour>
      <point x="81.4375" y="0.0" type="curve"/>
      <point x="81.4375" y="0.0" type="line"/>
      <point x="170.375" y="0.0" type="line" smooth="yes"/>
      <point x="186.5" y="0.0"/>
      <point x="192.875" y="5.8125"/>
      <point x="192.875" y="20.25" type="curve"/>
      <point x="192.875" y="375.6875" type="line"/>
      <point x="238.5625" y="421.5"/>
      <point x="272.625" y="444.0625"/>
      <point x="321.125" y="444.0625" type="curve"/>
      <point x="377.1875" y="444.0625"/>
      <point x="404.75" y="413.375"/>
      <point x="404.75" y="362.375" type="curve"/>
      <point x="404.75" y="18.0" type="line" smooth="yes"/>
      <point x="404.75" y="4.6875"/>
      <point x="409.4375" y="0.0"/>
      <point x="421.625" y="0.0" type="curve"/>
      <point x="513.9375" y="0.0" type="line" smooth="yes"/>
      <point x="528.375" y="0.0"/>
      <point x="534.75" y="6.9375"/>
      <point x="534.75" y="21.25" type="curve"/>
      <point x="534.75" y="384.5625" type="line" smooth="yes"/>
      <point x="534.75" y="478.3125"/>
      <point x="474.6875" y="540.0"/>
      <point x="375.5625" y="540.0" type="curve"/>
      <point x="308.75" y="540.0"/>
      <point x="258.125" y="508.75"/>
      <point x="201.25" y="459.25" type="curve"/>
      <point x="194.125" y="452.5625"/>
      <point x="190.4375" y="455.25"/>
      <point x="190.4375" y="462.8125" type="curve"/>
      <point x="190.4375" y="515.25" type="line" smooth="yes"/>
      <point x="190.4375" y="524.625"/>
      <point x="186.1875" y="530.0"/>
      <point x="176.8125" y="530.0" type="curve"/>
      <point x="77.0625" y="530.0" type="line" smooth="yes"/>
      <point x="67.6875" y="530.0"/>
      <point x="62.875" y="523.625"/>
      <point x="62.875" y="513.125" type="curve"/>
      <point x="62.875" y="18.0" type="line" smooth="yes"/>
      <point x="62.875" y="5.25"/>
      <point x="68.125" y="0.0"/>
    </contour>
  </outline>
</glyph>
<glyph name="o" format="2">
  <advance width="599.125"/>
  <unicode hex="006F"/>
  <anchor x="299.5625" y="265.0" name="center"/>
  <anchor x="371.4375" y="10.0" name="ogonek"/>
  <anchor x="300.4375" y="530.0" name="top"/>
  <anchor x="445.875" y="530.0" name="topright"/>
  <anchor x="297.4375" y="0.0" name="bottom"/>
  <outline>
    <contour>
      <point x="299.0" y="-10.0" type="curve"/>
      <point x="299.0" y="-10.0" type="line"/>
      <point x="455.6875" y="-10.0"/>
      <point x="562.8125" y="103.125"/>
      <point x="562.8125" y="262.875" type="curve"/>
      <point x="562.8125" y="424.3125"/>
      <point x="457.375" y="540.0"/>
      <point x="300.0" y="540.0" type="curve"/>
      <point x="147.25" y="540.0"/>
      <point x="36.3125" y="427.25"/>
      <point x="36.3125" y="262.0" type="curve"/>
      <point x="36.3125" y="102.125"/>
      <point x="142.4375" y="-10.0"/>
    </contour>
    <contour>
      <point x="300.4375" y="78.625" type="curve"/>
      <point x="300.4375" y="78.625" type="line"/>
      <point x="216.375" y="78.625"/>
      <point x="168.3125" y="144.9375"/>
      <point x="168.3125" y="265.125" type="curve"/>
      <point x="168.3125" y="385.875"/>
      <point x="216.375" y="453.625"/>
      <point x="300.0" y="453.625" type="curve"/>
      <point x="383.75" y="453.625"/>
      <point x="430.8125" y="386.3125"/>
      <point x="430.8125" y="265.125" type="curve"/>
      <point x="430.8125" y="145.0625"/>
      <point x="384.625" y="78.625"/>
    </contour>
  </outline>
</glyph>
<glyph name="p" format="2">
  <advance width="605.1875"/>
  <unicode hex="0070"/>
  <outline>
    <contour>
      <point x="173.5625" y="530.0" type="curve"/>
      <point x="173.5625" y="530.0" type="line"/>
      <point x="83.3125" y="530.0" type="line" smooth="yes"/>
      <point x="67.5625" y="530.0"/>
      <point x="62.875" y="523.625"/>
      <point x="62.875" y="510.125" type="curve"/>
      <point x="62.875" y="-148.6875" type="line" smooth="yes"/>
      <point x="62.875" y="-159.75"/>
      <point x="68.6875" y="-165.0"/>
      <point x="77.0625" y="-165.0" type="curve"/>
      <point x="178.8125" y="-165.0" type="line" smooth="yes"/>
      <point x="188.625" y="-165.0"/>
      <point x="192.875" y="-159.75"/>
      <point x="192.875" y="-149.375" type="curve"/>
      <point x="192.875" y="34.6875" type="line" smooth="yes"/>
      <point x="192.875" y="51.625"/>
      <point x="197.0" y="52.375"/>
      <point x="210.8125" y="40.5625" type="curve"/>
      <point x="247.125" y="7.5625"/>
      <point x="292.0625" y="-10.0"/>
      <point x="347.125" y="-10.0" type="curve"/>
      <point x="474.4375" y="-10.0"/>
      <point x="566.3125" y="82.5"/>
      <point x="566.3125" y="270.5" type="curve"/>
      <point x="566.3125" y="453.125"/>
      <point x="474.75" y="540.0"/>
      <point x="356.3125" y="540.0" type="curve"/>
      <point x="275.9375" y="540.0"/>
      <point x="235.1875" y="502.375"/>
      <point x="206.25" y="474.6875" type="curve"/>
      <point x="198.8125" y="467.8125"/>
      <point x="192.5625" y="468.25"/>
      <point x="192.5625" y="477.5625" type="curve"/>
      <point x="192.5625" y="511.6875" type="line" smooth="yes"/>
      <point x="192.5625" y="524.3125"/>
      <point x="187.3125" y="530.0"/>
    </contour>
    <contour>
      <point x="192.875" y="130.4375" type="curve"/>
      <point x="192.875" y="130.4375" type="line"/>
      <point x="192.875" y="363.4375" type="line" smooth="yes"/>
      <point x="192.875" y="407.6875"/>
      <point x="240.0625" y="455.3125"/>
      <point x="305.75" y="455.3125" type="curve"/>
      <point x="378.75" y="455.3125"/>
      <point x="434.3125" y="406.9375"/>
      <point x="434.3125" y="272.125" type="curve"/>
      <point x="434.3125" y="133.625"/>
      <point x="380.6875" y="74.6875"/>
      <point x="302.25" y="74.6875" type="curve"/>
      <point x="257.5625" y="74.6875"/>
      <point x="223.875" y="96.375"/>
    </contour>
  </outline>
</glyph>
<glyph name="q" format="2">
  <advance width="605.9375"/>
  <unicode hex="0071"/>
  <outline>
    <contour>
      <point x="523.0625" y="530.0" type="curve"/>
      <point x="472.875" y="530.0" type="line"/>
      <point x="460.875" y="530.0"/>
      <point x="455.5" y="524.1875"/>
      <point x="452.25" y="510.8125" type="curve"/>
      <point x="441.5" y="467.0" type="line" smooth="yes"/>
      <point x="439.375" y="458.4375"/>
      <point x="435.8125" y="457.4375"/>
      <point x="429.8125" y="464.0" type="curve"/>
      <point x="400.875" y="498.25"/>
      <point x="353.875" y="540.5625"/>
      <point x="264.25" y="540.5625" type="curve"/>
      <point x="122.875" y="540.5625"/>
      <point x="38.3125" y="431.0"/>
      <point x="38.3125" y="265.75" type="curve"/>
      <point x="38.3125" y="93.0"/>
      <point x="122.375" y="-10.0"/>
      <point x="258.375" y="-10.0" type="curve"/>
      <point x="313.0" y="-10.0"/>
      <point x="361.25" y="12.3125"/>
      <point x="396.8125" y="39.875" type="curve"/>
      <point x="408.6875" y="49.3125"/>
      <point x="413.0625" y="47.4375"/>
      <point x="413.0625" y="30.625" type="curve"/>
      <point x="413.0625" y="-148.9375" type="line" smooth="yes"/>
      <point x="413.0625" y="-159.75"/>
      <point x="417.875" y="-165.0"/>
      <point x="426.6875" y="-165.0" type="curve"/>
      <point x="528.4375" y="-165.0" type="line" smooth="yes"/>
      <point x="537.25" y="-165.0"/>
      <point x="543.0625" y="-159.75"/>
      <point x="543.0625" y="-148.25" type="curve"/>
      <point x="543.0625" y="509.6875" type="line" smooth="yes"/>
      <point x="543.0625" y="523.625"/>
      <point x="538.375" y="530.0"/>
    </contour>
    <contour>
      <point x="413.0625" y="347.9375" type="curve"/>
      <point x="413.0625" y="126.375" type="line"/>
      <point x="383.875" y="93.5625"/>
      <point x="343.375" y="74.125"/>
      <point x="299.375" y="74.125" type="curve"/>
      <point x="222.5" y="74.125"/>
      <point x="170.3125" y="134.875"/>
      <point x="170.3125" y="266.75" type="curve"/>
      <point x="170.3125" y="400.25"/>
      <point x="226.8125" y="459.25"/>
      <point x="300.3125" y="459.25" type="curve"/>
      <point x="366.375" y="459.25"/>
      <point x="413.0625" y="408.75"/>
    </contour>
  </outline>
</glyph>
<glyph name="r" format="2">
  <advance width="411.125"/>
  <unicode hex="0072"/>
  <anchor x="219.3125" y="530.0" name="top"/>
  <anchor x="134.625" y="0.0" name="bottom"/>
  <outline>
    <contour>
      <point x="81.4375" y="0.0" type="curve"/>
      <point x="81.4375" y="0.0" type="line"/>
      <point x="170.375" y="0.0" type="line" smooth="yes"/>
      <point x="185.9375" y="0.0"/>
      <point x="192.875" y="5.8125"/>
      <point x="192.875" y="20.25" type="curve"/>
      <point x="192.875" y="325.625" type="line" smooth="yes"/>
      <point x="192.875" y="374.625"/>
      <point x="260.25" y="422.9375"/>
      <point x="313.0" y="422.9375" type="curve"/>
      <point x="331.125" y="422.9375"/>
      <point x="354.875" y="420.8125"/>
      <point x="374.5" y="416.3125" type="curve"/>
      <point x="382.5625" y="414.625"/>
      <point x="387.9375" y="418.875"/>
      <point x="387.9375" y="427.5" type="curve"/>
      <point x="387.9375" y="524.375" type="line" smooth="yes"/>
      <point x="387.9375" y="535.3125"/>
      <point x="375.6875" y="540.0"/>
      <point x="351.8125" y="540.0" type="curve"/>
      <point x="301.75" y="540.0"/>
      <point x="244.9375" y="507.0"/>
      <point x="200.6875" y="451.0" type="curve"/>
      <point x="194.5625" y="443.3125"/>
      <point x="187.625" y="445.3125"/>
      <point x="187.625" y="454.0" type="curve"/>
      <point x="187.625" y="515.25" type="line" smooth="yes"/>
      <point x="187.625" y="524.625"/>
      <point x="182.8125" y="530.0"/>
      <point x="174.0" y="530.0" type="curve"/>
      <point x="77.0625" y="530.0" type="line" smooth="yes"/>
      <point x="67.6875" y="530.0"/>
      <point x="62.875" y="524.1875"/>
      <point x="62.875" y="513.125" type="curve"/>
      <point x="62.875" y="18.0" type="line" smooth="yes"/>
      <point x="62.875" y="5.8125"/>
      <point x="67.5625" y="0.0"/>
    </contour>
  </outline>
</glyph>
<glyph name="s" format="2">
  <advance width="523.5"/>
  <unicode hex="0073"/>
  <anchor x="253.6875" y="530.0" name="top"/>
  <anchor x="256.625" y="0.0" name="bottom"/>
  <outline>
    <contour>
      <point x="386.5625" y="399.0" type="curve"/>
      <point x="386.5625" y="399.0" type="line"/>
      <point x="391.9375" y="392.625"/>
      <point x="398.75" y="389.8125"/>
      <point x="406.8125" y="394.0625" type="curve"/>
      <point x="468.625" y="425.375" type="line" smooth="yes"/>
      <point x="477.8125" y="430.1875"/>
      <point x="473.75" y="438.375"/>
      <point x="469.0625" y="445.75" type="curve"/>
      <point x="435.6875" y="499.125"/>
      <point x="359.5" y="540.0"/>
      <point x="262.3125" y="540.0" type="curve"/>
      <point x="127.4375" y="540.0"/>
      <point x="43.1875" y="469.75"/>
      <point x="43.75" y="371.4375" type="curve"/>
      <point x="44.3125" y="298.375"/>
      <point x="90.4375" y="250.5625"/>
      <point x="191.0" y="227.3125" type="curve"/>
      <point x="293.4375" y="203.1875" type="line" smooth="yes"/>
      <point x="351.5625" y="188.3125"/>
      <point x="370.9375" y="168.5625"/>
      <point x="370.9375" y="141.5625" type="curve"/>
      <point x="370.9375" y="100.375"/>
      <point x="321.75" y="76.375"/>
      <point x="258.75" y="75.8125" type="curve"/>
      <point x="177.0" y="74.6875"/>
      <point x="135.125" y="109.0"/>
      <point x="106.875" y="149.875" type="curve"/>
      <point x="102.0625" y="155.6875"/>
      <point x="96.375" y="156.8125"/>
      <point x="85.5" y="151.4375" type="curve"/>
      <point x="26.9375" y="120.5625" type="line" smooth="yes"/>
      <point x="19.5625" y="116.4375"/>
      <point x="20.125" y="108.375"/>
      <point x="24.9375" y="99.875" type="curve"/>
      <point x="57.9375" y="37.25"/>
      <point x="143.75" y="-10.0"/>
      <point x="258.1875" y="-10.0" type="curve"/>
      <point x="392.4375" y="-10.0"/>
      <point x="488.875" y="53.25"/>
      <point x="488.875" y="155.5625" type="curve"/>
      <point x="488.875" y="223.8125"/>
      <point x="447.5" y="281.3125"/>
      <point x="343.625" y="306.875" type="curve"/>
      <point x="224.9375" y="338.5" type="line" smooth="yes"/>
      <point x="170.5625" y="353.375"/>
      <point x="160.0" y="373.4375"/>
      <point x="160.0" y="392.9375" type="curve"/>
      <point x="160.0" y="433.3125"/>
      <point x="203.875" y="458.125"/>
      <point x="260.75" y="458.125" type="curve"/>
      <point x="320.25" y="458.125"/>
      <point x="361.75" y="432.5"/>
    </contour>
  </outline>
</glyph>
<glyph name="t" format="2">
  <advance width="416.5"/>
  <unicode hex="0074"/>
  <anchor x="197.5625" y="288.1875" name="center"/>
  <anchor x="251.25" y="0.0" name="bottom"/>
  <anchor x="395.0625" y="788.75" name="topright"/>
  <outline>
    <contour>
      <point x="257.1875" y="438.75" type="curve"/>
      <point x="370.3125" y="438.75" type="line"/>
      <point x="382.0625" y="438.75"/>
      <point x="387.0" y="444.6875"/>
      <point x="387.0" y="453.75" type="curve"/>
      <point x="387.0" y="517.25" type="line" smooth="yes"/>
      <point x="387.0" y="526.3125"/>
      <point x="381.0625" y="530.5625"/>
      <point x="372.0" y="530.5625" type="curve"/>
      <point x="259.4375" y="530.5625" type="line" smooth="yes"/>
      <point x="253.3125" y="530.5625"/>
      <point x="250.1875" y="533.6875"/>
      <point x="250.1875" y="539.8125" type="curve"/>
      <point x="250.1875" y="692.8125" type="line" smooth="yes"/>
      <point x="250.1875" y="704.1875"/>
      <point x="244.375" y="710.0"/>
      <point x="235.5625" y="710.0" type="curve"/>
      <point x="146.75" y="710.0" type="line" smooth="yes"/>
      <point x="137.375" y="710.0"/>
      <point x="133.6875" y="704.75"/>
      <point x="133.125" y="694.375" type="curve"/>
      <point x="120.1875" y="539.8125" type="line" smooth="yes"/>
      <point x="119.625" y="533.5625"/>
      <point x="116.5" y="530.0"/>
      <point x="110.8125" y="530.0" type="curve"/>
      <point x="36.5" y="530.0" type="line" smooth="yes"/>
      <point x="26.875" y="530.0"/>
      <point x="21.5" y="525.75"/>
      <point x="21.5" y="516.6875" type="curve"/>
      <point x="21.5" y="453.75" type="line" smooth="yes"/>
      <point x="21.5" y="444.6875"/>
      <point x="26.3125" y="438.75"/>
      <point x="37.625" y="438.75" type="curve"/>
      <point x="105.3125" y="438.75" type="line" smooth="yes"/>
      <point x="114.25" y="438.75"/>
      <point x="116.8125" y="434.5"/>
      <point x="116.8125" y="425.5625" type="curve"/>
      <point x="116.8125" y="126.875" type="line" smooth="yes"/>
      <point x="116.8125" y="41.3125"/>
      <point x="167.125" y="0.0"/>
      <point x="256.125" y="0.0" type="curve"/>
      <point x="287.5625" y="0.0"/>
      <point x="335.75" y="1.0"/>
      <point x="366.1875" y="5.6875" type="curve"/>
      <point x="378.625" y="8.375"/>
      <point x="385.125" y="14.4375"/>
      <point x="385.125" y="25.625" type="curve"/>
      <point x="385.6875" y="78.0625" type="line" smooth="yes"/>
      <point x="385.6875" y="86.4375"/>
      <point x="380.4375" y="92.375"/>
      <point x="372.0625" y="92.375" type="curve"/>
      <point x="313.3125" y="92.375" type="line" smooth="yes"/>
      <point x="268.25" y="92.375"/>
      <point x="246.8125" y="109.0625"/>
      <point x="246.8125" y="161.125" type="curve"/>
      <point x="246.8125" y="428.375" type="line" smooth="yes"/>
      <point x="246.8125" y="435.625"/>
      <point x="251.0625" y="438.75"/>
    </contour>
  </outline>
</glyph>
<glyph name="u" format="2">
  <advance width="587.875"/>
  <unicode hex="0075"/>
  <anchor x="505.1875" y="10.4375" name="ogonek"/>
  <anchor x="285.4375" y="530.0" name="top"/>
  <anchor x="553.4375" y="530.0" name="topright"/>
  <anchor x="286.0" y="0.0" name="bottom"/>
  <outline>
    <contour>
      <point x="267.9375" y="85.375" type="curve"/>
      <point x="267.9375" y="85.375" type="line"/>
      <point x="217.9375" y="85.375"/>
      <point x="186.5625" y="118.6875"/>
      <point x="186.5625" y="170.25" type="curve"/>
      <point x="186.5625" y="511.4375" type="line" smooth="yes"/>
      <point x="186.5625" y="524.75"/>
      <point x="181.875" y="530.0"/>
      <point x="169.6875" y="530.0" type="curve"/>
      <point x="77.9375" y="530.0" type="line" smooth="yes"/>
      <point x="62.9375" y="530.0"/>
      <point x="56.5625" y="523.0625"/>
      <point x="56.5625" y="508.75" type="curve"/>
      <point x="56.5625" y="148.25" type="line" smooth="yes"/>
      <point x="56.5625" y="50.0"/>
      <point x="122.625" y="-10.0"/>
      <point x="212.125" y="-10.0" type="curve"/>
      <point x="272.5625" y="-10.0"/>
      <point x="325.125" y="11.375"/>
      <point x="387.75" y="71.0625" type="curve"/>
      <point x="394.3125" y="77.1875"/>
      <point x="398.0" y="75.0625"/>
      <point x="398.0" y="67.5" type="curve"/>
      <point x="398.0" y="14.75" type="line" smooth="yes"/>
      <point x="398.0" y="4.8125"/>
      <point x="402.8125" y="0.0"/>
      <point x="411.625" y="0.0" type="curve"/>
      <point x="509.6875" y="0.0" type="line" smooth="yes"/>
      <point x="519.0625" y="0.0"/>
      <point x="523.875" y="5.8125"/>
      <point x="523.875" y="16.3125" type="curve"/>
      <point x="526.125" y="511.4375" type="line" smooth="yes"/>
      <point x="526.125" y="524.1875"/>
      <point x="520.875" y="530.0"/>
      <point x="507.5625" y="530.0" type="curve"/>
      <point x="417.5" y="530.0" type="line" smooth="yes"/>
      <point x="401.9375" y="530.0"/>
      <point x="395.0" y="523.625"/>
      <point x="395.0" y="509.75" type="curve"/>
      <point x="395.0" y="154.375" type="line"/>
      <point x="356.4375" y="113.0"/>
      <point x="314.5625" y="85.375"/>
    </contour>
  </outline>
</glyph>
<glyph name="v" format="2">
  <advance width="564.3125"/>
  <unicode hex="0076"/>
  <outline>
    <contour>
      <point x="527.6875" y="530.0" type="curve"/>
      <point x="527.6875" y="530.0" type="line"/>
      <point x="455.0625" y="530.0" type="line" smooth="yes"/>
      <point x="445.6875" y="530.0"/>
      <point x="439.3125" y="524.0625"/>
      <point x="435.625" y="515.6875" type="curve"/>
      <point x="307.75" y="187.6875" type="line" smooth="yes"/>
      <point x="301.75" y="173.6875"/>
      <point x="296.75" y="174.25"/>
      <point x="292.3125" y="186.6875" type="curve"/>
      <point x="162.75" y="515.25" type="line" smooth="yes"/>
      <point x="159.625" y="524.0625"/>
      <point x="152.6875" y="530.0"/>
      <point x="142.875" y="530.0" type="curve"/>
      <point x="38.1875" y="530.0" type="line" smooth="yes"/>
      <point x="26.125" y="530.0"/>
      <point x="20.3125" y="519.8125"/>
      <point x="24.0" y="509.3125" type="curve"/>
      <point x="223.25" y="18.4375" type="line" smooth="yes"/>
      <point x="228.5" y="5.8125"/>
      <point x="237.1875" y="0.0"/>
      <point x="252.8125" y="0.0" type="curve"/>
      <point x="311.8125" y="0.0" type="line" smooth="yes"/>
      <point x="327.0" y="0.0"/>
      <point x="335.25" y="5.8125"/>
      <point x="340.5" y="18.875" type="curve"/>
      <point x="540.3125" y="509.75" type="line" smooth="yes"/>
      <point x="544.0" y="519.8125"/>
      <point x="539.3125" y="530.0"/>
    </contour>
  </outline>
</glyph>
<glyph name="w" format="2">
  <advance width="810.5625"/>
  <unicode hex="0077"/>
  <anchor x="406.6875" y="530.0" name="top"/>
  <outline>
    <contour>
      <point x="771.75" y="530.0" type="curve"/>
      <point x="771.75" y="530.0" type="line"/>
      <point x="708.0625" y="530.0" type="line" smooth="yes"/>
      <point x="698.6875" y="530.0"/>
      <point x="691.4375" y="524.0625"/>
      <point x="687.75" y="515.6875" type="curve"/>
      <point x="591.3125" y="196.8125" type="line" smooth="yes"/>
      <point x="586.75" y="182.8125"/>
      <point x="580.625" y="183.375"/>
      <point x="577.1875" y="195.8125" type="curve"/>
      <point x="477.875" y="515.25" type="line" smooth="yes"/>
      <point x="475.3125" y="524.0625"/>
      <point x="467.8125" y="530.0"/>
      <point x="458.5625" y="530.0" type="curve"/>
      <point x="387.1875" y="530.0" type="line" smooth="yes"/>
      <point x="378.25" y="530.0"/>
      <point x="370.75" y="524.5"/>
      <point x="368.1875" y="516.125" type="curve"/>
      <point x="271.25" y="196.8125" type="line" smooth="yes"/>
      <point x="266.6875" y="182.8125"/>
      <point x="260.125" y="183.375"/>
      <point x="256.6875" y="195.8125" type="curve"/>
      <point x="157.0625" y="515.25" type="line" smooth="yes"/>
      <point x="154.5" y="524.0625"/>
      <point x="147.0" y="530.0"/>
      <point x="137.1875" y="530.0" type="curve"/>
      <point x="39.9375" y="530.0" type="line" smooth="yes"/>
      <point x="27.875" y="530.0"/>
      <point x="22.0625" y="519.8125"/>
      <point x="25.75" y="509.3125" type="curve"/>
      <point x="185.6875" y="16.75" type="line" smooth="yes"/>
      <point x="189.375" y="4.6875"/>
      <point x="196.5" y="0.0"/>
      <point x="209.3125" y="0.0" type="curve"/>
      <point x="282.625" y="0.0" type="line" smooth="yes"/>
      <point x="295.0" y="0.0"/>
      <point x="300.0" y="4.125"/>
      <point x="303.125" y="14.9375" type="curve"/>
      <point x="399.375" y="325.625" type="line" smooth="yes"/>
      <point x="402.9375" y="337.875"/>
      <point x="408.1875" y="338.3125"/>
      <point x="412.75" y="325.625" type="curve"/>
      <point x="510.0" y="16.75" type="line" smooth="yes"/>
      <point x="513.6875" y="4.6875"/>
      <point x="520.8125" y="0.0"/>
      <point x="534.1875" y="0.0" type="curve"/>
      <point x="604.5" y="0.0" type="line" smooth="yes"/>
      <point x="616.3125" y="0.0"/>
      <point x="621.75" y="4.125"/>
      <point x="624.875" y="14.9375" type="curve"/>
      <point x="784.8125" y="509.75" type="line" smooth="yes"/>
      <point x="788.625" y="519.8125"/>
      <point x="783.375" y="530.0"/>
    </contour>
  </outline>
</glyph>
<glyph name="x" format="2">
  <advance width="575.1875"/>
  <unicode hex="0078"/>
  <outline>
    <contour>
      <point x="543.25" y="29.4375" type="curve"/>
      <point x="543.25" y="29.4375" type="line"/>
      <point x="366.5" y="272.4375" type="line" smooth="yes"/>
      <point x="359.125" y="282.5"/>
      <point x="357.5625" y="289.0625"/>
      <point x="365.9375" y="300.125" type="curve"/>
      <point x="522.0625" y="510.1875" type="line" smooth="yes"/>
      <point x="529.5625" y="520.375"/>
      <point x="529.125" y="530.0"/>
      <point x="512.4375" y="530.0" type="curve"/>
      <point x="435.375" y="530.0" type="line" smooth="yes"/>
      <point x="419.375" y="530.0"/>
      <point x="413.4375" y="526.1875"/>
      <point x="407.0625" y="516.5625" type="curve"/>
      <point x="304.1875" y="367.375" type="line" smooth="yes"/>
      <point x="298.0625" y="357.5625"/>
      <point x="293.0625" y="359.125"/>
      <point x="287.9375" y="367.375" type="curve"/>
      <point x="180.5" y="516.5625" type="line" smooth="yes"/>
      <point x="174.125" y="526.1875"/>
      <point x="168.1875" y="530.0"/>
      <point x="152.625" y="530.0" type="curve"/>
      <point x="49.625" y="530.0" type="line" smooth="yes"/>
      <point x="34.0625" y="530.0"/>
      <point x="29.25" y="516.5625"/>
      <point x="36.75" y="506.375" type="curve"/>
      <point x="203.0" y="280.5" type="line" smooth="yes"/>
      <point x="210.9375" y="269.4375"/>
      <point x="211.9375" y="263.3125"/>
      <point x="203.5625" y="252.8125" type="curve"/>
      <point x="33.75" y="34.8125" type="line" smooth="yes"/>
      <point x="13.9375" y="8.625"/>
      <point x="24.5625" y="0.0"/>
      <point x="43.8125" y="0.0" type="curve"/>
      <point x="113.8125" y="0.0" type="line" smooth="yes"/>
      <point x="127.6875" y="0.0"/>
      <point x="136.75" y="4.25"/>
      <point x="142.6875" y="13.4375" type="curve"/>
      <point x="262.25" y="176.125" type="line" smooth="yes"/>
      <point x="271.75" y="189.875"/>
      <point x="274.625" y="189.3125"/>
      <point x="284.125" y="175.5625" type="curve"/>
      <point x="400.1875" y="13.4375" type="line" smooth="yes"/>
      <point x="406.125" y="4.25"/>
      <point x="415.625" y="0.0"/>
      <point x="429.0625" y="0.0" type="curve"/>
      <point x="537.3125" y="0.0" type="line" smooth="yes"/>
      <point x="556.6875" y="0.0"/>
      <point x="559.25" y="7.5"/>
    </contour>
  </outline>
</glyph>
<glyph name="y" format="2">
  <advance width="553.5625"/>
  <unicode hex="0079"/>
  <anchor x="294.9375" y="530.0" name="top"/>
  <anchor x="395.375" y="0.0" name="bottom"/>
  <outline>
    <contour>
      <point x="104.625" y="-165.0" type="curve"/>
      <point x="104.625" y="-165.0" type="line"/>
      <point x="215.4375" y="-165.0"/>
      <point x="270.0625" y="-139.5"/>
      <point x="320.25" y="-16.25" type="curve"/>
      <point x="530.125" y="509.75" type="line" smooth="yes"/>
      <point x="534.375" y="519.375"/>
      <point x="529.125" y="530.0"/>
      <point x="517.5" y="530.0" type="curve"/>
      <point x="444.875" y="530.0" type="line" smooth="yes"/>
      <point x="435.9375" y="530.0"/>
      <point x="429.5625" y="524.0625"/>
      <point x="425.875" y="515.6875" type="curve"/>
      <point x="303.125" y="187.75" type="line" smooth="yes"/>
      <point x="297.125" y="172.875"/>
      <point x="290.125" y="174.0"/>
      <point x="285.6875" y="186.0" type="curve"/>
      <point x="161.75" y="515.25" type="line" smooth="yes"/>
      <point x="158.625" y="524.0625"/>
      <point x="151.25" y="530.0"/>
      <point x="141.875" y="530.0" type="curve"/>
      <point x="37.625" y="530.0" type="line" smooth="yes"/>
      <point x="24.6875" y="530.0"/>
      <point x="18.75" y="519.375"/>
      <point x="23.4375" y="508.4375" type="curve"/>
      <point x="215.25" y="33.625" type="line" smooth="yes"/>
      <point x="230.0625" y="-3.5"/>
      <point x="193.1875" y="-68.8125"/>
      <point x="139.75" y="-68.8125" type="curve"/>
      <point x="73.5625" y="-68.8125" type="line" smooth="yes"/>
      <point x="50.6875" y="-68.8125"/>
      <point x="45.125" y="-75.875"/>
      <point x="45.125" y="-84.3125" type="curve"/>
      <point x="45.125" y="-148.25" type="line" smooth="yes"/>
      <point x="45.125" y="-163.75"/>
      <point x="63.9375" y="-165.0"/>
    </contour>
  </outline>
</glyph>
<glyph name="z" format="2">
  <advance width="506.375"/>
  <unicode hex="007A"/>
  <anchor x="263.125" y="530.0" name="top"/>
  <outline>
    <contour>
      <point x="43.6875" y="0.0" type="curve"/>
      <point x="43.6875" y="0.0" type="line"/>
      <point x="458.6875" y="0.0" type="line" smooth="yes"/>
      <point x="470.875" y="0.0"/>
      <point x="476.25" y="6.5"/>
      <point x="476.25" y="15.875" type="curve"/>
      <point x="476.25" y="71.75" type="line" smooth="yes"/>
      <point x="476.25" y="81.375"/>
      <point x="470.3125" y="85.0625"/>
      <point x="460.6875" y="85.0625" type="curve"/>
      <point x="202.3125" y="85.0625" type="line" smooth="yes"/>
      <point x="192.6875" y="85.0625"/>
      <point x="190.125" y="89.875"/>
      <point x="196.9375" y="98.8125" type="curve"/>
      <point x="460.0" y="444.25" type="line" smooth="yes"/>
      <point x="468.9375" y="456.4375"/>
      <point x="472.625" y="464.5625"/>
      <point x="472.625" y="476.5" type="curve"/>
      <point x="472.625" y="516.6875" type="line" smooth="yes"/>
      <point x="472.625" y="524.625"/>
      <point x="467.8125" y="530.0"/>
      <point x="459.75" y="530.0" type="curve"/>
      <point x="61.1875" y="530.0" type="line" smooth="yes"/>
      <point x="53.25" y="530.0"/>
      <point x="48.4375" y="524.625"/>
      <point x="48.4375" y="515.6875" type="curve"/>
      <point x="48.4375" y="462.0625" type="line" smooth="yes"/>
      <point x="48.4375" y="449.3125"/>
      <point x="52.125" y="446.0625"/>
      <point x="63.875" y="446.0625" type="curve"/>
      <point x="295.0625" y="446.0625" type="line" smooth="yes"/>
      <point x="305.125" y="446.0625"/>
      <point x="308.25" y="441.9375"/>
      <point x="302.0" y="433.5625" type="curve"/>
      <point x="41.75" y="89.9375" type="line" smooth="yes"/>
      <point x="28.4375" y="72.375"/>
      <point x="26.4375" y="67.375"/>
      <point x="26.4375" y="52.5" type="curve"/>
      <point x="26.4375" y="17.125" type="line" smooth="yes"/>
      <point x="26.4375" y="3.6875"/>
      <point x="30.25" y="0.0"/>
    </contour>
  </outline>
</glyph>
<glyph name="braceleft" format="2">
  <advance width="345.1875"/>
  <unicode hex="007B"/>
  <outline>
    <contour>
      <point x="116.0" y="626.125" type="curve"/>
      <point x="116.0" y="626.125" type="line"/>
      <point x="116.0" y="422.375" type="line" smooth="yes"/>
      <point x="116.0" y="362.375"/>
      <point x="83.5" y="327.0"/>
      <point x="8.5" y="326.5625" type="curve"/>
      <point x="3.6875" y="326.5625"/>
      <point x="0.0" y="322.875"/>
      <point x="0.0" y="312.6875" type="curve"/>
      <point x="0.0" y="271.0625" type="line" smooth="yes"/>
      <point x="0.0" y="260.875"/>
      <point x="3.6875" y="257.1875"/>
      <point x="8.5" y="257.1875" type="curve"/>
      <point x="82.5" y="257.1875"/>
      <point x="116.0" y="213.375"/>
      <point x="116.0" y="165.375" type="curve"/>
      <point x="116.0" y="-48.25" type="line" smooth="yes"/>
      <point x="116.0" y="-124.0"/>
      <point x="185.9375" y="-165.0"/>
      <point x="266.625" y="-165.0" type="curve"/>
      <point x="316.5625" y="-165.0" type="line" smooth="yes"/>
      <point x="326.5" y="-165.0"/>
      <point x="330.1875" y="-161.3125"/>
      <point x="330.1875" y="-151.375" type="curve"/>
      <point x="330.1875" y="-101.125" type="line" smooth="yes"/>
      <point x="330.1875" y="-92.75"/>
      <point x="325.5" y="-88.625"/>
      <point x="316.5625" y="-88.625" type="curve"/>
      <point x="289.125" y="-88.625" type="line" smooth="yes"/>
      <point x="239.125" y="-88.625"/>
      <point x="224.6875" y="-72.75"/>
      <point x="224.6875" y="-34.75" type="curve"/>
      <point x="224.6875" y="176.0625" type="line" smooth="yes"/>
      <point x="223.0" y="259.625"/>
      <point x="167.625" y="284.375"/>
      <point x="119.4375" y="288.375" type="curve"/>
      <point x="110.4375" y="289.375"/>
      <point x="111.4375" y="293.8125"/>
      <point x="119.4375" y="294.8125" type="curve"/>
      <point x="168.625" y="300.375"/>
      <point x="223.0" y="330.125"/>
      <point x="224.6875" y="403.8125" type="curve"/>
      <point x="224.6875" y="612.625" type="line" smooth="yes"/>
      <point x="224.6875" y="643.4375"/>
      <point x="232.5625" y="665.625"/>
      <point x="288.6875" y="665.625" type="curve"/>
      <point x="318.6875" y="665.625" type="line" smooth="yes"/>
      <point x="325.5" y="665.625"/>
      <point x="330.1875" y="669.3125"/>
      <point x="330.1875" y="676.125" type="curve"/>
      <point x="330.1875" y="732.5" type="line" smooth="yes"/>
      <point x="330.1875" y="739.3125"/>
      <point x="327.0625" y="742.0"/>
      <point x="318.6875" y="742.0" type="curve"/>
      <point x="264.5" y="742.0" type="line" smooth="yes"/>
      <point x="187.6875" y="742.0"/>
      <point x="116.0" y="701.1875"/>
    </contour>
  </outline>
</glyph>
<glyph name="bar" format="2">
  <advance width="254.625"/>
  <unicode hex="007C"/>
  <outline>
    <contour>
      <point x="98.375" y="-165.0" type="curve"/>
      <point x="161.1875" y="-165.0" type="line"/>
      <point x="170.125" y="-165.0"/>
      <point x="175.5" y="-160.1875"/>
      <point x="175.5" y="-151.375" type="curve"/>
      <point x="175.5" y="831.9375" type="line" smooth="yes"/>
      <point x="175.5" y="841.75"/>
      <point x="170.125" y="847.0"/>
      <point x="159.0625" y="847.0" type="curve"/>
      <point x="95.8125" y="847.0" type="line" smooth="yes"/>
      <point x="84.5" y="847.0"/>
      <point x="79.125" y="842.3125"/>
      <point x="79.125" y="829.3125" type="curve"/>
      <point x="79.5625" y="-144.25" type="line" smooth="yes"/>
      <point x="79.5625" y="-158.5"/>
      <point x="84.9375" y="-165.0"/>
    </contour>
  </outline>
</glyph>
<glyph name="asciitilde" format="2">
  <advance width="594.875"/>
  <unicode hex="007E"/>
  <outline>
    <contour>
      <point x="533.1875" y="372.5625" type="curve"/>
      <point x="533.1875" y="372.5625" type="line"/>
      <point x="538.3125" y="379.8125"/>
      <point x="539.875" y="388.0"/>
      <point x="535.625" y="395.375" type="curve"/>
      <point x="513.5625" y="434.9375" type="line" smooth="yes"/>
      <point x="507.1875" y="445.875"/>
      <point x="499.6875" y="447.0"/>
      <point x="492.4375" y="437.5" type="curve"/>
      <point x="471.5" y="410.25"/>
      <point x="441.625" y="385.625"/>
      <point x="396.6875" y="385.625" type="curve"/>
      <point x="330.1875" y="385.625"/>
      <point x="287.6875" y="445.25"/>
      <point x="206.6875" y="445.25" type="curve"/>
      <point x="145.9375" y="445.25"/>
      <point x="106.5" y="412.6875"/>
      <point x="63.625" y="371.5625" type="curve"/>
      <point x="56.125" y="364.5"/>
      <point x="54.4375" y="359.125"/>
      <point x="58.125" y="351.875" type="curve"/>
      <point x="84.8125" y="305.3125" type="line" smooth="yes"/>
      <point x="88.9375" y="297.75"/>
      <point x="94.4375" y="297.75"/>
      <point x="100.0" y="303.875" type="curve"/>
      <point x="127.3125" y="332.4375"/>
      <point x="158.4375" y="361.5625"/>
      <point x="206.75" y="361.5625" type="curve"/>
      <point x="275.0625" y="361.5625"/>
      <point x="316.25" y="301.8125"/>
      <point x="398.5" y="301.8125" type="curve"/>
      <point x="454.6875" y="301.8125"/>
      <point x="505.0" y="328.3125"/>
    </contour>
  </outline>
</glyph>
<glyph name="exclamdown" format="2">
  <advance width="257.3125"/>
  <unicode hex="00A1"/>
  <outline>
    <contour>
      <point x="201.5625" y="399.375" type="curve"/>
      <point x="201.5625" y="399.375" type="line"/>
      <point x="201.5625" y="508.875" type="line" smooth="yes"/>
      <point x="201.5625" y="524.1875"/>
      <point x="195.1875" y="530.0"/>
      <point x="177.3125" y="530.0" type="curve"/>
      <point x="75.875" y="530.0" type="line" smooth="yes"/>
      <point x="61.125" y="530.0"/>
      <point x="56.3125" y="524.1875"/>
      <point x="56.3125" y="511.5625" type="curve"/>
      <point x="56.3125" y="400.9375" type="line" smooth="yes"/>
      <point x="56.3125" y="389.4375"/>
      <point x="62.125" y="384.625"/>
      <point x="70.0625" y="384.625" type="curve"/>
      <point x="188.375" y="384.625" type="line" smooth="yes"/>
      <point x="197.3125" y="384.625"/>
      <point x="201.5625" y="389.4375"/>
    </contour>
    <contour>
      <point x="204.875" y="-150.5625" type="curve"/>
      <point x="204.875" y="-150.5625" type="line"/>
      <point x="173.0625" y="296.375" type="line" smooth="yes"/>
      <point x="171.9375" y="310.25"/>
      <point x="166.125" y="315.625"/>
      <point x="150.125" y="315.625" type="curve"/>
      <point x="105.1875" y="315.625" type="line" smooth="yes"/>
      <point x="91.3125" y="315.625"/>
      <point x="88.75" y="310.25"/>
      <point x="87.0625" y="298.5" type="curve"/>
      <point x="54.5625" y="-149.0" type="line" smooth="yes"/>
      <point x="53.4375" y="-159.625"/>
      <point x="59.375" y="-165.0"/>
      <point x="67.4375" y="-165.0" type="curve"/>
      <point x="192.125" y="-165.0" type="line" smooth="yes"/>
      <point x="200.0625" y="-165.0"/>
      <point x="206.0" y="-159.1875"/>
    </contour>
  </outline>
</glyph>
<glyph name="cent" format="2">
  <advance width="558.0"/>
  <unicode hex="00A2"/>
  <outline>
    <contour>
      <point x="341.0" y="22.0" type="curve"/>
      <point x="341.0" y="22.0" type="line"/>
      <point x="341.0" y="145.0625" type="line" smooth="yes"/>
      <point x="341.0" y="156.8125"/>
      <point x="336.1875" y="163.1875"/>
      <point x="322.3125" y="163.1875" type="curve"/>
      <point x="274.125" y="163.1875" type="line" smooth="yes"/>
      <point x="259.125" y="163.1875"/>
      <point x="252.75" y="156.8125"/>
      <point x="252.75" y="142.9375" type="curve"/>
      <point x="252.75" y="19.875" type="line" smooth="yes"/>
      <point x="252.75" y="6.8125"/>
      <point x="258.0" y="0.0"/>
      <point x="273.1875" y="0.0" type="curve"/>
      <point x="317.875" y="0.0" type="line" smooth="yes"/>
      <point x="334.1875" y="0.0"/>
      <point x="341.0" y="6.8125"/>
    </contour>
    <contour>
      <point x="341.0" y="600.8125" type="curve"/>
      <point x="341.0" y="600.8125" type="line"/>
      <point x="341.0" y="723.875" type="line" smooth="yes"/>
      <point x="341.0" y="735.625"/>
      <point x="336.1875" y="742.0"/>
      <point x="322.3125" y="742.0" type="curve"/>
      <point x="274.125" y="742.0" type="line" smooth="yes"/>
      <point x="259.125" y="742.0"/>
      <point x="252.75" y="735.625"/>
      <point x="252.75" y="721.75" type="curve"/>
      <point x="252.75" y="598.6875" type="line" smooth="yes"/>
      <point x="252.75" y="585.625"/>
      <point x="258.0" y="578.8125"/>
      <point x="273.1875" y="578.8125" type="curve"/>
      <point x="317.875" y="578.8125" type="line" smooth="yes"/>
      <point x="334.1875" y="578.8125"/>
      <point x="341.0" y="585.625"/>
    </contour>
    <component base="c" yOffset="111.0"/>
  </outline>
</glyph>
